<?xml version="1.0" encoding="utf-8"?>
<!-- Generator: Adobe Illustrator 16.0.0, SVG Export Plug-In . SVG Version: 6.00 Build 0)  -->
<!DOCTYPE svg PUBLIC "-//W3C//DTD SVG 1.1//EN" "http://www.w3.org/Graphics/SVG/1.1/DTD/svg11.dtd">
<svg version="1.1" id="Layer_1" xmlns="http://www.w3.org/2000/svg" xmlns:xlink="http://www.w3.org/1999/xlink" x="0px" y="0px"
	 width="46.125px" height="41.265px" viewBox="0 0 46.125 41.265" enable-background="new 0 0 46.125 41.265" xml:space="preserve">
<g>
	<g>
		<ellipse fill="#FFFFFF" cx="23.253" cy="22.005" rx="22.38" ry="18.846"/>
		<g>
			<path fill="#B77C2D" d="M45.688,22.007c0,0-0.028,0.507-0.082,1.456c-0.068,0.945-0.307,2.34-0.847,4.038
				c-0.615,1.668-1.549,3.66-3.133,5.604c-1.569,1.941-3.734,3.851-6.462,5.32c-2.718,1.481-5.995,2.489-9.53,2.784
				c-0.891,0.03-1.769,0.095-2.704,0.077c-0.896-0.073-1.786-0.055-2.72-0.228c-0.462-0.067-0.927-0.136-1.395-0.205
				c-0.463-0.085-0.917-0.209-1.379-0.313c-0.93-0.182-1.825-0.524-2.74-0.816c-3.583-1.353-7.07-3.485-9.681-6.567
				c-2.674-3.015-4.333-6.995-4.44-11.17c-0.009-2,0.355-4.132,1.065-6.059c0.699-1.954,1.849-3.704,3.14-5.278
				c2.634-3.147,6.186-5.313,9.829-6.621c3.67-1.267,7.519-1.619,11.01-1.321c3.594,0.321,6.822,1.383,9.555,2.857
				c2.731,1.472,4.892,3.391,6.46,5.333c1.588,1.945,2.512,3.942,3.139,5.606c0.553,1.698,0.778,3.091,0.842,4.04
				C45.663,21.498,45.688,22.007,45.688,22.007z M45.579,22.003c0,0-0.035-0.502-0.101-1.446c-0.081-0.939-0.333-2.314-0.911-3.979
				c-0.625-1.646-1.686-3.538-3.308-5.362c-1.616-1.826-3.831-3.525-6.502-4.847c-2.659-1.326-5.838-2.233-9.188-2.553
				c-3.448-0.291-7.053,0.127-10.593,1.278c-3.5,1.199-6.913,3.232-9.47,6.18c-1.263,1.469-2.401,3.107-3.108,4.951
				c-0.74,1.843-1.156,3.738-1.229,5.797c0.001,1.956,0.35,3.97,1.038,5.835c0.684,1.88,1.805,3.563,3.063,5.079
				c2.58,3.014,6.058,5.079,9.617,6.233c0.906,0.25,1.788,0.549,2.701,0.692c0.453,0.084,0.9,0.188,1.349,0.254
				c0.449,0.049,0.896,0.098,1.341,0.146c0.874,0.136,1.805,0.079,2.69,0.127c0.85,0.005,1.737-0.067,2.585-0.105
				c3.409-0.346,6.54-1.307,9.213-2.625c2.675-1.323,4.884-3.032,6.501-4.859c1.625-1.824,2.677-3.721,3.313-5.363
				c0.591-1.665,0.83-3.036,0.905-3.981C45.547,22.507,45.579,22.003,45.579,22.003z"/>
		</g>
	</g>
	<g>
		<path fill="#AA7959" d="M39.94,9.735c0-3.082-7.471-8.298-16.688-8.298c-9.215,0-16.687,5.216-16.687,8.298
			c0,0,8.067,2.303,17.283,2.303C33.065,12.038,39.94,9.735,39.94,9.735z"/>
		<g>
			<path fill="#8B5E3C" d="M39.912,9.716c-0.045-0.838-0.529-1.522-1.037-2.139c-0.516-0.631-1.157-1.146-1.794-1.652
				c-0.329-0.242-0.673-0.463-1.008-0.695L35.017,4.61c-0.726-0.376-1.457-0.739-2.213-1.049c-0.757-0.302-1.521-0.599-2.309-0.815
				c-0.778-0.252-1.58-0.412-2.375-0.596c-0.804-0.139-1.606-0.299-2.421-0.364c-0.811-0.111-1.628-0.107-2.445-0.161
				c-0.809,0.025-1.649,0.002-2.454,0.099c-0.815,0.048-1.624,0.191-2.435,0.314c-0.802,0.169-1.606,0.34-2.388,0.59
				c-0.791,0.219-1.561,0.511-2.319,0.823c-0.756,0.322-1.486,0.696-2.203,1.093l-1.045,0.646c-0.331,0.241-0.67,0.47-0.993,0.72
				c-0.627,0.52-1.254,1.053-1.741,1.7C7.189,8.237,6.736,8.966,6.738,9.735L6.614,9.57c1.356,0.34,2.73,0.646,4.112,0.888
				c0.689,0.135,1.379,0.261,2.074,0.362s1.384,0.239,2.082,0.31l2.09,0.251c0.696,0.081,1.397,0.113,2.096,0.18
				c0.699,0.054,1.396,0.134,2.098,0.14l2.102,0.066c0.701,0.042,1.392-0.015,2.101-0.024c0.703-0.021,1.411-0.008,2.109-0.054
				l2.094-0.152c0.7-0.035,1.395-0.143,2.092-0.222c0.697-0.085,1.396-0.162,2.086-0.289c0.691-0.124,1.39-0.211,2.075-0.365
				C37.196,10.392,38.567,10.104,39.912,9.716z M39.948,9.759c-1.336,0.452-2.699,0.819-4.074,1.135
				c-0.686,0.171-1.384,0.277-2.075,0.418c-0.691,0.146-1.391,0.24-2.089,0.343c-0.699,0.097-1.395,0.223-2.101,0.277l-2.114,0.206
				c-0.705,0.063-1.407,0.07-2.111,0.104c-0.698,0.012-1.414,0.072-2.121,0.033l-2.121-0.057c-0.708-0.003-1.411-0.08-2.116-0.132
				c-0.704-0.06-1.41-0.101-2.111-0.191l-2.101-0.276c-0.702-0.08-1.395-0.226-2.092-0.335c-0.698-0.111-1.392-0.24-2.082-0.39
				C9.254,10.617,7.885,10.278,6.52,9.9L6.391,9.864l0.004-0.129c0.029-0.917,0.542-1.658,1.059-2.301
				c0.523-0.66,1.168-1.195,1.816-1.712c0.333-0.248,0.681-0.475,1.02-0.713l1.068-0.635c0.731-0.389,1.474-0.753,2.24-1.064
				c0.766-0.307,1.533-0.623,2.328-0.85c0.784-0.267,1.594-0.434,2.396-0.638c0.813-0.15,1.624-0.321,2.454-0.396
				c0.831-0.124,1.642-0.125,2.478-0.176c0.829,0.022,1.663,0.005,2.487,0.114c0.83,0.059,1.647,0.212,2.467,0.347
				c0.809,0.189,1.622,0.368,2.41,0.632c0.798,0.23,1.571,0.541,2.338,0.857c0.766,0.324,1.507,0.699,2.23,1.109l1.057,0.662
				c0.335,0.247,0.678,0.482,1.005,0.738c0.639,0.531,1.27,1.084,1.763,1.76c0.489,0.646,0.965,1.427,0.954,2.263v0.021
				L39.948,9.759z"/>
		</g>
	</g>
</g>
</svg>
