<?xml version="1.0" encoding="utf-8"?>
<!-- Generator: Adobe Illustrator 16.0.0, SVG Export Plug-In . SVG Version: 6.00 Build 0)  -->
<!DOCTYPE svg PUBLIC "-//W3C//DTD SVG 1.1//EN" "http://www.w3.org/Graphics/SVG/1.1/DTD/svg11.dtd">
<svg version="1.1" id="Layer_1" xmlns="http://www.w3.org/2000/svg" xmlns:xlink="http://www.w3.org/1999/xlink" x="0px" y="0px"
	 width="46.125px" height="41.265px" viewBox="0 0 46.125 41.265" enable-background="new 0 0 46.125 41.265" xml:space="preserve">
<g>
	<g>
		<ellipse fill="#FFFFFF" cx="23.253" cy="22.005" rx="22.38" ry="18.846"/>
		<g>
			<path fill="#B77C2D" d="M45.688,22.007c0,0-0.028,0.506-0.082,1.455c-0.068,0.945-0.307,2.34-0.847,4.039
				c-0.615,1.668-1.549,3.66-3.133,5.604c-1.569,1.941-3.733,3.85-6.462,5.32c-2.718,1.48-5.995,2.49-9.53,2.785
				c-0.891,0.029-1.769,0.094-2.704,0.076c-0.896-0.072-1.786-0.055-2.72-0.227c-0.462-0.068-0.927-0.137-1.395-0.205
				c-0.463-0.086-0.917-0.209-1.379-0.313c-0.93-0.184-1.825-0.525-2.74-0.818c-3.583-1.352-7.07-3.484-9.681-6.566
				c-2.675-3.008-4.333-7.014-4.441-11.152c-0.007-2.037,0.356-4.143,1.065-6.076c0.7-1.955,1.849-3.705,3.14-5.279
				c2.634-3.146,6.186-5.313,9.829-6.62c3.67-1.268,7.519-1.62,11.01-1.321c3.594,0.321,6.823,1.383,9.555,2.857
				c2.731,1.471,4.891,3.39,6.46,5.333c1.587,1.945,2.512,3.941,3.139,5.605c0.553,1.699,0.778,3.092,0.842,4.041
				C45.663,21.498,45.688,22.007,45.688,22.007z M45.579,22.003c0,0-0.035-0.502-0.101-1.447c-0.081-0.939-0.333-2.314-0.911-3.979
				c-0.625-1.645-1.686-3.537-3.308-5.361c-1.617-1.826-3.831-3.526-6.503-4.848c-2.658-1.326-5.838-2.233-9.188-2.553
				c-3.448-0.291-7.053,0.127-10.593,1.278c-3.5,1.2-6.913,3.232-9.47,6.181c-1.263,1.468-2.4,3.107-3.108,4.951
				c-0.74,1.836-1.156,3.756-1.228,5.779c0,1.992,0.35,3.98,1.038,5.854c0.684,1.879,1.806,3.563,3.063,5.078
				c2.58,3.014,6.058,5.08,9.617,6.234c0.906,0.25,1.788,0.549,2.701,0.691c0.453,0.084,0.9,0.189,1.349,0.254
				c0.449,0.049,0.896,0.098,1.341,0.146c0.874,0.137,1.805,0.08,2.69,0.127c0.85,0.006,1.737-0.066,2.585-0.105
				c3.409-0.346,6.54-1.307,9.213-2.625c2.674-1.322,4.884-3.033,6.5-4.859c1.625-1.824,2.677-3.721,3.313-5.363
				c0.591-1.666,0.83-3.037,0.905-3.982C45.547,22.507,45.579,22.003,45.579,22.003z"/>
		</g>
	</g>
	<g>
		<path fill="#EDE595" d="M39.94,9.735c0-3.082-7.471-8.298-16.688-8.298c-9.215,0-16.687,5.216-16.687,8.298
			c0,0,8.067,2.303,17.283,2.303C33.065,12.038,39.94,9.735,39.94,9.735z"/>
		<path fill="#E8DB80" d="M39.909,9.714c-0.048-0.837-0.531-1.518-1.04-2.133c-0.517-0.629-1.159-1.143-1.795-1.647
			c-0.329-0.241-0.673-0.461-1.008-0.693l-1.058-0.617c-0.725-0.375-1.456-0.738-2.212-1.046c-0.757-0.302-1.521-0.598-2.308-0.813
			c-0.777-0.252-1.579-0.411-2.374-0.595c-0.804-0.139-1.604-0.299-2.419-0.365c-0.81-0.111-1.627-0.107-2.443-0.163
			c-0.808,0.024-1.65,0-2.453,0.096c-0.814,0.047-1.623,0.188-2.434,0.311c-0.802,0.168-1.606,0.338-2.388,0.588
			c-0.791,0.219-1.561,0.509-2.318,0.822c-0.756,0.322-1.485,0.697-2.202,1.094l-1.044,0.646c-0.33,0.241-0.669,0.471-0.992,0.72
			c-0.626,0.52-1.253,1.053-1.738,1.7C7.2,8.244,6.75,8.973,6.753,9.735L6.618,9.556c1.355,0.339,2.73,0.643,4.112,0.883
			c0.688,0.135,1.379,0.26,2.073,0.36c0.694,0.101,1.383,0.238,2.082,0.309l2.089,0.25c0.697,0.08,1.398,0.112,2.095,0.18
			c0.699,0.054,1.396,0.134,2.098,0.14l2.101,0.066c0.7,0.042,1.39-0.015,2.1-0.023c0.703-0.021,1.411-0.007,2.109-0.051l2.093-0.15
			c0.699-0.034,1.395-0.141,2.091-0.22c0.697-0.084,1.396-0.16,2.086-0.287c0.691-0.123,1.39-0.209,2.075-0.363
			C37.193,10.384,38.564,10.1,39.909,9.714z M39.949,9.761c-1.336,0.454-2.698,0.825-4.073,1.143
			c-0.686,0.172-1.383,0.278-2.075,0.421c-0.691,0.146-1.391,0.242-2.089,0.346c-0.699,0.098-1.395,0.225-2.102,0.279l-2.115,0.209
			c-0.705,0.063-1.407,0.071-2.111,0.106c-0.697,0.012-1.415,0.072-2.122,0.033l-2.121-0.057c-0.708-0.002-1.411-0.08-2.116-0.131
			c-0.705-0.06-1.411-0.102-2.112-0.192l-2.102-0.277c-0.703-0.08-1.395-0.227-2.092-0.336c-0.698-0.111-1.392-0.241-2.083-0.391
			c-1.385-0.278-2.754-0.619-4.121-0.999l-0.14-0.039l0.004-0.14C6.41,8.812,6.926,8.07,7.443,7.426
			c0.524-0.66,1.17-1.195,1.82-1.712C9.596,5.465,9.944,5.238,10.284,5l1.069-0.634c0.731-0.389,1.475-0.753,2.241-1.063
			c0.767-0.307,1.533-0.623,2.328-0.851c0.784-0.267,1.595-0.435,2.397-0.64c0.813-0.151,1.624-0.323,2.455-0.4
			c0.832-0.125,1.642-0.127,2.479-0.18c0.83,0.021,1.664,0.004,2.489,0.113c0.831,0.058,1.648,0.212,2.469,0.346
			c0.81,0.19,1.623,0.369,2.412,0.634c0.798,0.231,1.572,0.542,2.339,0.859c0.766,0.324,1.508,0.701,2.231,1.111l1.057,0.664
			c0.335,0.248,0.678,0.483,1.005,0.74c0.639,0.532,1.27,1.086,1.762,1.765c0.488,0.647,0.963,1.432,0.951,2.268l-0.001,0.023
			L39.949,9.761z"/>
	</g>
</g>
<g>
	<g>
		<ellipse fill="#FFFFFF" cx="23.253" cy="22.005" rx="22.38" ry="18.846"/>
		<g>
			<path fill="#B77C2D" d="M45.688,22.007c0,0-0.028,0.506-0.082,1.455c-0.068,0.945-0.307,2.34-0.847,4.039
				c-0.615,1.668-1.549,3.66-3.133,5.604c-1.569,1.941-3.733,3.85-6.462,5.32c-2.718,1.48-5.995,2.49-9.53,2.785
				c-0.891,0.029-1.769,0.094-2.704,0.076c-0.896-0.072-1.786-0.055-2.72-0.227c-0.462-0.068-0.927-0.137-1.395-0.205
				c-0.463-0.086-0.917-0.209-1.379-0.313c-0.93-0.184-1.825-0.525-2.74-0.818c-3.583-1.352-7.07-3.484-9.681-6.566
				c-2.675-3.008-4.333-7.014-4.441-11.152c-0.007-2.037,0.356-4.143,1.065-6.076c0.7-1.955,1.849-3.705,3.14-5.279
				c2.634-3.146,6.186-5.313,9.829-6.62c3.67-1.268,7.519-1.62,11.01-1.321c3.594,0.321,6.823,1.383,9.555,2.857
				c2.731,1.471,4.891,3.39,6.46,5.333c1.587,1.945,2.512,3.941,3.139,5.605c0.553,1.699,0.778,3.092,0.842,4.041
				C45.663,21.498,45.688,22.007,45.688,22.007z M45.579,22.003c0,0-0.035-0.502-0.101-1.447c-0.081-0.939-0.333-2.314-0.911-3.979
				c-0.625-1.645-1.686-3.537-3.308-5.361c-1.617-1.826-3.831-3.526-6.503-4.848c-2.658-1.326-5.838-2.233-9.188-2.553
				c-3.448-0.291-7.053,0.127-10.593,1.278c-3.5,1.2-6.913,3.232-9.47,6.181c-1.263,1.468-2.4,3.107-3.108,4.951
				c-0.74,1.836-1.156,3.756-1.228,5.779c0,1.992,0.35,3.98,1.038,5.854c0.684,1.879,1.806,3.563,3.063,5.078
				c2.58,3.014,6.058,5.08,9.617,6.234c0.906,0.25,1.788,0.549,2.701,0.691c0.453,0.084,0.9,0.189,1.349,0.254
				c0.449,0.049,0.896,0.098,1.341,0.146c0.874,0.137,1.805,0.08,2.69,0.127c0.85,0.006,1.737-0.066,2.585-0.105
				c3.409-0.346,6.54-1.307,9.213-2.625c2.674-1.322,4.884-3.033,6.5-4.859c1.625-1.824,2.677-3.721,3.313-5.363
				c0.591-1.666,0.83-3.037,0.905-3.982C45.547,22.507,45.579,22.003,45.579,22.003z"/>
		</g>
	</g>
	<g>
		<path fill="#6BB76F" d="M39.94,9.735c0-3.082-7.471-8.298-16.688-8.298c-9.215,0-16.687,5.216-16.687,8.298
			c0,0,8.067,2.303,17.283,2.303C33.065,12.038,39.94,9.735,39.94,9.735z"/>
		<path fill="#4CA54D" d="M39.909,9.714c-0.048-0.837-0.531-1.518-1.04-2.133c-0.517-0.629-1.159-1.143-1.795-1.647
			c-0.329-0.241-0.673-0.461-1.008-0.693l-1.058-0.617c-0.725-0.375-1.456-0.738-2.212-1.046c-0.757-0.302-1.521-0.598-2.308-0.813
			c-0.777-0.252-1.579-0.411-2.374-0.595c-0.804-0.139-1.604-0.299-2.419-0.365c-0.81-0.111-1.627-0.107-2.443-0.163
			c-0.808,0.024-1.65,0-2.453,0.096c-0.814,0.047-1.623,0.188-2.434,0.311c-0.802,0.168-1.606,0.338-2.388,0.588
			c-0.791,0.219-1.561,0.509-2.318,0.822c-0.756,0.322-1.485,0.697-2.202,1.094l-1.044,0.646c-0.33,0.241-0.669,0.471-0.992,0.72
			c-0.626,0.52-1.253,1.053-1.738,1.7C7.2,8.244,6.75,8.973,6.753,9.735L6.618,9.556c1.355,0.339,2.73,0.643,4.112,0.883
			c0.688,0.135,1.379,0.26,2.073,0.36c0.694,0.101,1.383,0.238,2.082,0.309l2.089,0.25c0.697,0.08,1.398,0.112,2.095,0.18
			c0.699,0.054,1.396,0.134,2.098,0.14l2.101,0.066c0.7,0.042,1.39-0.015,2.1-0.023c0.703-0.021,1.411-0.007,2.109-0.051l2.093-0.15
			c0.699-0.034,1.395-0.141,2.091-0.22c0.697-0.084,1.396-0.16,2.086-0.287c0.691-0.123,1.39-0.209,2.075-0.363
			C37.193,10.384,38.564,10.1,39.909,9.714z M39.949,9.761c-1.336,0.454-2.698,0.825-4.073,1.143
			c-0.686,0.172-1.383,0.278-2.075,0.421c-0.691,0.146-1.391,0.242-2.089,0.346c-0.699,0.098-1.395,0.225-2.102,0.279l-2.115,0.209
			c-0.705,0.063-1.407,0.071-2.111,0.106c-0.697,0.012-1.415,0.072-2.122,0.033l-2.121-0.057c-0.708-0.002-1.411-0.08-2.116-0.131
			c-0.705-0.06-1.411-0.102-2.112-0.192l-2.102-0.277c-0.703-0.08-1.395-0.227-2.092-0.336c-0.698-0.111-1.392-0.241-2.083-0.391
			c-1.385-0.278-2.754-0.619-4.121-0.999l-0.14-0.039l0.004-0.14C6.41,8.812,6.926,8.07,7.443,7.426
			c0.524-0.66,1.17-1.195,1.82-1.712C9.596,5.465,9.944,5.238,10.284,5l1.069-0.634c0.731-0.389,1.475-0.753,2.241-1.063
			c0.767-0.307,1.533-0.623,2.328-0.851c0.784-0.267,1.595-0.435,2.397-0.64c0.813-0.151,1.624-0.323,2.455-0.4
			c0.832-0.125,1.642-0.127,2.479-0.18c0.83,0.021,1.664,0.004,2.489,0.113c0.831,0.058,1.648,0.212,2.469,0.346
			c0.81,0.19,1.623,0.369,2.412,0.634c0.798,0.231,1.572,0.542,2.339,0.859c0.766,0.324,1.508,0.701,2.231,1.111l1.057,0.664
			c0.335,0.248,0.678,0.483,1.005,0.74c0.639,0.532,1.27,1.086,1.762,1.765c0.488,0.647,0.963,1.432,0.951,2.268l-0.001,0.023
			L39.949,9.761z"/>
	</g>
</g>
<g>
	<g>
		<ellipse fill="#FFFFFF" cx="23.253" cy="22.005" rx="22.38" ry="18.846"/>
		<g>
			<path fill="#B77C2D" d="M45.688,22.007c0,0-0.028,0.506-0.082,1.455c-0.068,0.945-0.307,2.34-0.846,4.039
				c-0.616,1.668-1.549,3.66-3.134,5.604c-1.568,1.941-3.733,3.85-6.462,5.32c-2.717,1.48-5.995,2.49-9.529,2.785
				c-0.891,0.029-1.769,0.094-2.704,0.076c-0.896-0.072-1.786-0.055-2.72-0.227c-0.462-0.068-0.927-0.137-1.395-0.205
				c-0.462-0.086-0.917-0.209-1.379-0.314c-0.929-0.182-1.825-0.523-2.74-0.816c-3.583-1.352-7.07-3.484-9.681-6.566
				c-2.675-3.008-4.333-7.014-4.441-11.152c-0.007-2.037,0.356-4.143,1.065-6.076c0.699-1.955,1.849-3.704,3.14-5.278
				c2.633-3.147,6.186-5.313,9.829-6.621c3.67-1.268,7.519-1.62,11.01-1.321c3.594,0.321,6.823,1.383,9.555,2.856
				c2.731,1.472,4.892,3.391,6.46,5.333c1.588,1.945,2.512,3.941,3.139,5.605c0.553,1.699,0.778,3.092,0.842,4.041
				C45.662,21.498,45.688,22.007,45.688,22.007z M45.578,22.003c0,0-0.035-0.502-0.101-1.447c-0.081-0.939-0.333-2.314-0.911-3.979
				c-0.625-1.645-1.686-3.537-3.308-5.361c-1.616-1.826-3.831-3.525-6.502-4.847c-2.658-1.326-5.838-2.233-9.188-2.553
				c-3.448-0.291-7.053,0.127-10.593,1.279c-3.5,1.199-6.912,3.231-9.469,6.18c-1.264,1.468-2.401,3.107-3.108,4.951
				c-0.74,1.836-1.156,3.756-1.228,5.779c0,1.992,0.35,3.98,1.038,5.854c0.684,1.879,1.806,3.563,3.063,5.078
				c2.58,3.014,6.058,5.08,9.617,6.234c0.906,0.25,1.788,0.549,2.701,0.691c0.452,0.084,0.9,0.189,1.348,0.254
				c0.449,0.049,0.896,0.098,1.341,0.146c0.874,0.137,1.805,0.08,2.69,0.127c0.85,0.006,1.737-0.066,2.585-0.105
				c3.409-0.346,6.54-1.307,9.213-2.625c2.675-1.322,4.884-3.033,6.501-4.859c1.624-1.824,2.677-3.721,3.313-5.363
				c0.591-1.666,0.83-3.037,0.905-3.982C45.546,22.507,45.578,22.003,45.578,22.003z"/>
		</g>
	</g>
	<g>
		<path fill="#3C2415" d="M39.94,9.735c0-3.082-7.472-8.298-16.687-8.298c-9.217,0-16.688,5.216-16.688,8.298
			c0,0,8.067,2.303,17.283,2.303C33.065,12.038,39.94,9.735,39.94,9.735z"/>
		<path fill="#24140C" d="M39.909,9.714c-0.048-0.837-0.531-1.518-1.04-2.133c-0.517-0.628-1.159-1.143-1.795-1.647
			c-0.329-0.241-0.673-0.461-1.008-0.693l-1.058-0.617c-0.725-0.375-1.456-0.738-2.212-1.046c-0.757-0.302-1.521-0.598-2.308-0.813
			c-0.777-0.252-1.579-0.411-2.374-0.595c-0.804-0.139-1.605-0.299-2.419-0.365c-0.807-0.111-1.634-0.107-2.436-0.163
			c-0.822,0.025-1.654,0-2.46,0.096c-0.814,0.047-1.623,0.189-2.434,0.311c-0.802,0.168-1.606,0.338-2.388,0.588
			c-0.791,0.219-1.561,0.509-2.318,0.822c-0.756,0.322-1.485,0.697-2.202,1.094l-1.044,0.646c-0.331,0.241-0.669,0.471-0.992,0.72
			c-0.626,0.52-1.252,1.054-1.737,1.7C7.2,8.244,6.75,8.973,6.753,9.735L6.618,9.556c1.355,0.339,2.73,0.643,4.112,0.883
			c0.688,0.135,1.379,0.26,2.073,0.36c0.694,0.101,1.383,0.238,2.082,0.309l2.089,0.25c0.697,0.08,1.398,0.112,2.095,0.18
			c0.699,0.054,1.396,0.134,2.098,0.14l2.101,0.066c0.7,0.042,1.39-0.015,2.1-0.023c0.703-0.021,1.411-0.007,2.109-0.051l2.093-0.15
			c0.699-0.034,1.395-0.141,2.091-0.22c0.697-0.084,1.396-0.16,2.086-0.287c0.691-0.123,1.39-0.209,2.075-0.363
			C37.193,10.384,38.564,10.1,39.909,9.714z M39.949,9.761c-1.336,0.454-2.698,0.825-4.073,1.143
			c-0.686,0.172-1.383,0.278-2.075,0.421c-0.691,0.146-1.391,0.242-2.089,0.346c-0.699,0.098-1.395,0.225-2.102,0.279l-2.115,0.209
			c-0.705,0.063-1.407,0.071-2.111,0.106c-0.697,0.012-1.415,0.072-2.122,0.033l-2.121-0.057c-0.708-0.002-1.411-0.08-2.116-0.131
			c-0.705-0.06-1.411-0.102-2.112-0.192l-2.102-0.277c-0.703-0.08-1.395-0.227-2.092-0.336c-0.698-0.111-1.392-0.241-2.083-0.391
			c-1.385-0.278-2.754-0.619-4.121-0.999l-0.14-0.039l0.004-0.14C6.41,8.812,6.926,8.07,7.443,7.426
			c0.524-0.661,1.17-1.195,1.819-1.713C9.596,5.465,9.944,5.238,10.284,5l1.069-0.635c0.732-0.388,1.475-0.752,2.242-1.063
			c0.767-0.307,1.533-0.623,2.328-0.851c0.784-0.267,1.595-0.435,2.397-0.64c0.813-0.151,1.624-0.323,2.455-0.4
			c0.829-0.125,1.649-0.127,2.472-0.179c0.844,0.021,1.668,0.003,2.497,0.112c0.831,0.058,1.648,0.212,2.469,0.346
			c0.81,0.19,1.623,0.369,2.412,0.634c0.798,0.231,1.572,0.542,2.339,0.859c0.766,0.324,1.508,0.701,2.231,1.111l1.057,0.664
			c0.335,0.248,0.678,0.483,1.005,0.74c0.639,0.532,1.27,1.086,1.762,1.765c0.488,0.647,0.963,1.432,0.951,2.268l-0.001,0.023
			L39.949,9.761z"/>
	</g>
</g>
<g>
	<g>
		<ellipse fill="#FFFFFF" cx="23.253" cy="22.005" rx="22.38" ry="18.846"/>
		<g>
			<path fill="#B77C2D" d="M45.688,22.007c0,0-0.028,0.506-0.082,1.455c-0.068,0.945-0.307,2.34-0.846,4.039
				c-0.616,1.668-1.549,3.66-3.134,5.604c-1.568,1.941-3.733,3.852-6.462,5.32c-2.717,1.48-5.995,2.49-9.529,2.785
				c-0.891,0.029-1.769,0.094-2.704,0.076c-0.896-0.072-1.786-0.055-2.72-0.227c-0.462-0.068-0.927-0.137-1.395-0.205
				c-0.462-0.086-0.917-0.209-1.378-0.314c-0.93-0.182-1.826-0.523-2.74-0.816c-3.583-1.352-7.07-3.484-9.681-6.568
				c-2.674-3.014-4.333-6.994-4.44-11.168c-0.009-2.002,0.355-4.133,1.064-6.059c0.699-1.955,1.849-3.705,3.14-5.279
				c2.633-3.147,6.186-5.313,9.829-6.621c3.67-1.268,7.519-1.62,11.01-1.321c3.594,0.321,6.822,1.383,9.554,2.857
				c2.731,1.471,4.892,3.391,6.46,5.333c1.588,1.945,2.512,3.941,3.139,5.605c0.553,1.699,0.778,3.092,0.842,4.041
				C45.662,21.498,45.688,22.007,45.688,22.007z M45.578,22.003c0,0-0.035-0.502-0.101-1.447c-0.081-0.939-0.333-2.314-0.911-3.979
				c-0.624-1.646-1.686-3.537-3.308-5.361c-1.616-1.826-3.83-3.526-6.502-4.847c-2.659-1.326-5.839-2.233-9.188-2.553
				c-3.448-0.291-7.052,0.127-10.593,1.278c-3.5,1.2-6.912,3.232-9.469,6.181c-1.263,1.469-2.4,3.107-3.108,4.951
				c-0.74,1.842-1.156,3.738-1.229,5.797c0.002,1.955,0.351,3.971,1.039,5.834c0.684,1.881,1.805,3.564,3.063,5.08
				c2.58,3.014,6.058,5.08,9.617,6.234c0.906,0.25,1.788,0.549,2.701,0.691c0.452,0.084,0.9,0.189,1.349,0.254
				c0.449,0.049,0.896,0.098,1.341,0.146c0.874,0.137,1.805,0.08,2.69,0.127c0.85,0.006,1.737-0.066,2.585-0.105
				c3.408-0.346,6.54-1.307,9.213-2.625c2.675-1.322,4.884-3.033,6.501-4.859c1.624-1.824,2.677-3.721,3.313-5.363
				c0.591-1.666,0.83-3.037,0.905-3.982C45.546,22.507,45.578,22.003,45.578,22.003z"/>
		</g>
	</g>
	<g>
		<path fill="#CC3850" d="M39.94,9.734c0-3.082-7.472-8.297-16.687-8.297c-9.217,0-16.688,5.216-16.688,8.297
			c0,0,8.067,2.304,17.283,2.304C33.065,12.038,39.94,9.734,39.94,9.734z"/>
		<path fill="#911D37" d="M39.909,9.714c-0.048-0.837-0.531-1.518-1.04-2.133c-0.517-0.629-1.159-1.143-1.796-1.648
			C36.745,5.692,36.4,5.472,36.065,5.24l-1.057-0.617c-0.726-0.375-1.456-0.737-2.212-1.046c-0.757-0.302-1.52-0.598-2.308-0.813
			c-0.777-0.252-1.579-0.411-2.373-0.595c-0.804-0.139-1.605-0.299-2.419-0.365c-0.807-0.111-1.634-0.107-2.436-0.163
			c-0.822,0.025-1.654,0-2.46,0.096c-0.814,0.047-1.623,0.189-2.434,0.311c-0.802,0.168-1.606,0.338-2.388,0.588
			c-0.791,0.219-1.562,0.509-2.319,0.822c-0.755,0.322-1.485,0.697-2.202,1.094l-1.044,0.646c-0.33,0.241-0.669,0.47-0.992,0.72
			c-0.626,0.52-1.252,1.053-1.738,1.7C7.2,8.243,6.75,8.972,6.753,9.734L6.618,9.555c1.355,0.339,2.73,0.644,4.112,0.883
			c0.688,0.135,1.379,0.26,2.073,0.361c0.694,0.101,1.383,0.238,2.082,0.309l2.089,0.25c0.697,0.08,1.397,0.112,2.095,0.18
			c0.699,0.054,1.396,0.134,2.098,0.14l2.101,0.066c0.7,0.042,1.39-0.015,2.1-0.023c0.703-0.021,1.411-0.007,2.109-0.052
			l2.093-0.149c0.7-0.034,1.395-0.142,2.091-0.22c0.697-0.084,1.396-0.16,2.086-0.287c0.691-0.123,1.389-0.209,2.075-0.362
			C37.193,10.384,38.564,10.1,39.909,9.714z M39.949,9.76c-1.336,0.454-2.698,0.825-4.073,1.143
			c-0.686,0.173-1.383,0.279-2.075,0.421c-0.691,0.146-1.391,0.242-2.089,0.345c-0.7,0.099-1.395,0.225-2.102,0.279l-2.115,0.209
			c-0.705,0.063-1.407,0.071-2.111,0.106c-0.697,0.012-1.415,0.072-2.122,0.033l-2.121-0.057c-0.708-0.002-1.411-0.08-2.116-0.131
			c-0.705-0.06-1.411-0.102-2.112-0.192l-2.102-0.278c-0.703-0.08-1.395-0.226-2.092-0.336c-0.698-0.112-1.392-0.241-2.083-0.392
			c-1.386-0.278-2.754-0.619-4.121-0.999l-0.14-0.039L6.38,9.734C6.41,8.812,6.926,8.07,7.443,7.426
			c0.524-0.661,1.17-1.196,1.82-1.713C9.596,5.465,9.944,5.238,10.284,5l1.069-0.634c0.731-0.388,1.475-0.752,2.241-1.063
			c0.767-0.307,1.533-0.623,2.328-0.851c0.784-0.267,1.595-0.435,2.397-0.64c0.813-0.151,1.624-0.323,2.455-0.4
			c0.829-0.125,1.649-0.127,2.472-0.179c0.844,0.021,1.668,0.003,2.497,0.112c0.831,0.058,1.648,0.212,2.469,0.346
			c0.809,0.19,1.623,0.369,2.411,0.634c0.799,0.23,1.572,0.542,2.339,0.859c0.766,0.324,1.508,0.7,2.231,1.111l1.057,0.664
			c0.335,0.247,0.678,0.483,1.005,0.739c0.639,0.532,1.27,1.087,1.762,1.765c0.488,0.647,0.963,1.432,0.951,2.268l-0.001,0.023
			L39.949,9.76z"/>
	</g>
</g>
<g>
	<g>
		<ellipse fill="#FFFFFF" cx="23.253" cy="22.005" rx="22.38" ry="18.846"/>
		<g>
			<path fill="#B77C2D" d="M45.688,22.007c0,0-0.028,0.506-0.082,1.455c-0.068,0.945-0.307,2.34-0.846,4.039
				c-0.616,1.668-1.549,3.66-3.134,5.604c-1.568,1.941-3.733,3.852-6.462,5.32c-2.717,1.48-5.995,2.49-9.529,2.785
				c-0.891,0.029-1.769,0.094-2.704,0.076c-0.896-0.072-1.786-0.055-2.72-0.227c-0.462-0.068-0.927-0.137-1.395-0.205
				c-0.462-0.086-0.917-0.209-1.378-0.314c-0.93-0.182-1.826-0.523-2.74-0.816c-3.583-1.352-7.07-3.484-9.681-6.568
				c-2.674-3.014-4.333-6.994-4.44-11.168c-0.009-2.002,0.355-4.133,1.064-6.059c0.699-1.955,1.849-3.705,3.14-5.279
				c2.633-3.147,6.186-5.313,9.829-6.621c3.67-1.268,7.519-1.62,11.01-1.321c3.594,0.321,6.822,1.383,9.554,2.857
				c2.731,1.471,4.892,3.391,6.46,5.333c1.588,1.945,2.512,3.941,3.139,5.605c0.553,1.699,0.778,3.092,0.842,4.041
				C45.662,21.498,45.688,22.007,45.688,22.007z M45.578,22.003c0,0-0.035-0.502-0.101-1.447c-0.081-0.939-0.333-2.314-0.911-3.979
				c-0.624-1.646-1.686-3.537-3.308-5.361c-1.616-1.826-3.83-3.526-6.502-4.847c-2.659-1.326-5.839-2.233-9.188-2.553
				c-3.448-0.291-7.052,0.127-10.593,1.278c-3.5,1.2-6.912,3.232-9.469,6.181c-1.263,1.469-2.4,3.107-3.108,4.951
				c-0.74,1.842-1.156,3.738-1.229,5.797c0.002,1.955,0.351,3.971,1.039,5.834c0.684,1.881,1.805,3.564,3.063,5.08
				c2.58,3.014,6.058,5.08,9.617,6.234c0.906,0.25,1.788,0.549,2.701,0.691c0.452,0.084,0.9,0.189,1.349,0.254
				c0.449,0.049,0.896,0.098,1.341,0.146c0.874,0.137,1.805,0.08,2.69,0.127c0.85,0.006,1.737-0.066,2.585-0.105
				c3.408-0.346,6.54-1.307,9.213-2.625c2.675-1.322,4.884-3.033,6.501-4.859c1.624-1.824,2.677-3.721,3.313-5.363
				c0.591-1.666,0.83-3.037,0.905-3.982C45.546,22.507,45.578,22.003,45.578,22.003z"/>
		</g>
	</g>
	<g>
		<path fill="#581C59" d="M39.94,9.734c0-3.082-7.472-8.297-16.687-8.297c-9.217,0-16.688,5.216-16.688,8.297
			c0,0,8.067,2.304,17.283,2.304C33.065,12.038,39.94,9.734,39.94,9.734z"/>
		<path fill="#351037" d="M39.909,9.714c-0.048-0.837-0.531-1.518-1.04-2.133c-0.517-0.629-1.159-1.143-1.796-1.648
			C36.745,5.692,36.4,5.472,36.065,5.24l-1.057-0.617c-0.726-0.375-1.456-0.737-2.212-1.046c-0.757-0.302-1.52-0.598-2.308-0.813
			c-0.777-0.252-1.579-0.411-2.373-0.595c-0.804-0.139-1.605-0.299-2.419-0.365c-0.807-0.111-1.634-0.107-2.436-0.163
			c-0.822,0.025-1.654,0-2.46,0.096c-0.814,0.047-1.623,0.189-2.434,0.311c-0.802,0.168-1.606,0.338-2.388,0.588
			c-0.791,0.219-1.562,0.509-2.319,0.822c-0.755,0.322-1.485,0.697-2.202,1.094l-1.044,0.646c-0.33,0.241-0.669,0.47-0.992,0.72
			c-0.626,0.52-1.252,1.053-1.738,1.7C7.2,8.243,6.75,8.972,6.753,9.734L6.618,9.555c1.355,0.339,2.73,0.644,4.112,0.883
			c0.688,0.135,1.379,0.26,2.073,0.361c0.694,0.101,1.383,0.238,2.082,0.309l2.089,0.25c0.697,0.08,1.397,0.112,2.095,0.18
			c0.699,0.054,1.396,0.134,2.098,0.14l2.101,0.066c0.7,0.042,1.39-0.015,2.1-0.023c0.703-0.021,1.411-0.007,2.109-0.052
			l2.093-0.149c0.7-0.034,1.395-0.142,2.091-0.22c0.697-0.084,1.396-0.16,2.086-0.287c0.691-0.123,1.389-0.209,2.075-0.362
			C37.193,10.384,38.564,10.1,39.909,9.714z M39.949,9.76c-1.336,0.454-2.698,0.825-4.073,1.143
			c-0.686,0.173-1.383,0.279-2.075,0.421c-0.691,0.146-1.391,0.242-2.089,0.345c-0.7,0.099-1.395,0.225-2.102,0.279l-2.115,0.209
			c-0.705,0.063-1.407,0.071-2.111,0.106c-0.697,0.012-1.415,0.072-2.122,0.033l-2.121-0.057c-0.708-0.002-1.411-0.08-2.116-0.131
			c-0.705-0.06-1.411-0.102-2.112-0.192l-2.102-0.278c-0.703-0.08-1.395-0.226-2.092-0.336c-0.698-0.112-1.392-0.241-2.083-0.392
			c-1.386-0.278-2.754-0.619-4.121-0.999l-0.14-0.039L6.38,9.734C6.41,8.812,6.926,8.07,7.443,7.426
			c0.524-0.661,1.17-1.196,1.82-1.713C9.596,5.465,9.944,5.238,10.284,5l1.069-0.634c0.731-0.388,1.475-0.752,2.241-1.063
			c0.767-0.307,1.533-0.623,2.328-0.851c0.784-0.267,1.595-0.435,2.397-0.64c0.813-0.151,1.624-0.323,2.455-0.4
			c0.829-0.125,1.649-0.127,2.472-0.179c0.844,0.021,1.668,0.003,2.497,0.112c0.831,0.058,1.648,0.212,2.469,0.346
			c0.809,0.19,1.623,0.369,2.411,0.634c0.799,0.23,1.572,0.542,2.339,0.859c0.766,0.324,1.508,0.7,2.231,1.111l1.057,0.664
			c0.335,0.247,0.678,0.483,1.005,0.739c0.639,0.532,1.27,1.087,1.762,1.765c0.488,0.647,0.963,1.432,0.951,2.268l-0.001,0.023
			L39.949,9.76z"/>
	</g>
</g>
<g>
	<g>
		<ellipse fill="#FFFFFF" cx="23.253" cy="22.005" rx="22.38" ry="18.846"/>
		<g>
			<path fill="#B77C2D" d="M45.688,22.007c0,0-0.028,0.506-0.082,1.455c-0.068,0.945-0.307,2.34-0.846,4.039
				c-0.616,1.668-1.549,3.66-3.134,5.604c-1.568,1.941-3.733,3.852-6.462,5.32c-2.717,1.48-5.995,2.49-9.529,2.785
				c-0.891,0.029-1.769,0.094-2.704,0.076c-0.896-0.072-1.786-0.055-2.72-0.227c-0.462-0.068-0.927-0.137-1.395-0.205
				c-0.462-0.086-0.917-0.209-1.378-0.314c-0.93-0.182-1.826-0.523-2.74-0.816c-3.583-1.352-7.07-3.484-9.681-6.568
				c-2.674-3.014-4.333-6.994-4.44-11.168c-0.009-2.002,0.355-4.133,1.064-6.059c0.699-1.955,1.849-3.705,3.14-5.279
				c2.633-3.147,6.186-5.313,9.829-6.621c3.67-1.268,7.519-1.62,11.01-1.321c3.594,0.321,6.822,1.383,9.554,2.857
				c2.731,1.471,4.892,3.391,6.46,5.333c1.588,1.945,2.512,3.941,3.139,5.605c0.553,1.699,0.778,3.092,0.842,4.041
				C45.662,21.498,45.688,22.007,45.688,22.007z M45.578,22.003c0,0-0.035-0.502-0.101-1.447c-0.081-0.939-0.333-2.314-0.911-3.979
				c-0.624-1.646-1.686-3.537-3.308-5.361c-1.616-1.826-3.83-3.526-6.502-4.847c-2.659-1.326-5.839-2.233-9.188-2.553
				c-3.448-0.291-7.052,0.127-10.593,1.278c-3.5,1.2-6.912,3.232-9.469,6.181c-1.263,1.469-2.4,3.107-3.108,4.951
				c-0.74,1.842-1.156,3.738-1.229,5.797c0.002,1.955,0.351,3.971,1.039,5.834c0.684,1.881,1.805,3.564,3.063,5.08
				c2.58,3.014,6.058,5.08,9.617,6.234c0.906,0.25,1.788,0.549,2.701,0.691c0.452,0.084,0.9,0.189,1.349,0.254
				c0.449,0.049,0.896,0.098,1.341,0.146c0.874,0.137,1.805,0.08,2.69,0.127c0.85,0.006,1.737-0.066,2.585-0.105
				c3.408-0.346,6.54-1.307,9.213-2.625c2.675-1.322,4.884-3.033,6.501-4.859c1.624-1.824,2.677-3.721,3.313-5.363
				c0.591-1.666,0.83-3.037,0.905-3.982C45.546,22.507,45.578,22.003,45.578,22.003z"/>
		</g>
	</g>
	<g>
		<path fill="#F4A2B8" d="M39.94,9.734c0-3.082-7.472-8.297-16.687-8.297c-9.217,0-16.688,5.216-16.688,8.297
			c0,0,8.067,2.304,17.283,2.304C33.065,12.038,39.94,9.734,39.94,9.734z"/>
		<path fill="#EC008C" d="M39.909,9.714c-0.048-0.837-0.531-1.518-1.04-2.133c-0.517-0.629-1.159-1.143-1.796-1.648
			C36.745,5.692,36.4,5.472,36.065,5.24l-1.057-0.617c-0.726-0.375-1.456-0.737-2.212-1.046c-0.757-0.302-1.52-0.598-2.308-0.813
			c-0.777-0.252-1.579-0.411-2.373-0.595c-0.804-0.139-1.605-0.299-2.419-0.365c-0.807-0.111-1.634-0.107-2.436-0.163
			c-0.822,0.025-1.654,0-2.46,0.096c-0.814,0.047-1.623,0.189-2.434,0.311c-0.802,0.168-1.606,0.338-2.388,0.588
			c-0.791,0.219-1.562,0.509-2.319,0.822c-0.755,0.322-1.485,0.697-2.202,1.094l-1.044,0.646c-0.33,0.241-0.669,0.47-0.992,0.72
			c-0.626,0.52-1.252,1.053-1.738,1.7C7.2,8.243,6.75,8.972,6.753,9.734L6.618,9.555c1.355,0.339,2.73,0.644,4.112,0.883
			c0.688,0.135,1.379,0.26,2.073,0.361c0.694,0.101,1.383,0.238,2.082,0.309l2.089,0.25c0.697,0.08,1.397,0.112,2.095,0.18
			c0.699,0.054,1.396,0.134,2.098,0.14l2.101,0.066c0.7,0.042,1.39-0.015,2.1-0.023c0.703-0.021,1.411-0.007,2.109-0.052
			l2.093-0.149c0.7-0.034,1.395-0.142,2.091-0.22c0.697-0.084,1.396-0.16,2.086-0.287c0.691-0.123,1.389-0.209,2.075-0.362
			C37.193,10.384,38.564,10.1,39.909,9.714z M39.949,9.76c-1.336,0.454-2.698,0.825-4.073,1.143
			c-0.686,0.173-1.383,0.279-2.075,0.421c-0.691,0.146-1.391,0.242-2.089,0.345c-0.7,0.099-1.395,0.225-2.102,0.279l-2.115,0.209
			c-0.705,0.063-1.407,0.071-2.111,0.106c-0.697,0.012-1.415,0.072-2.122,0.033l-2.121-0.057c-0.708-0.002-1.411-0.08-2.116-0.131
			c-0.705-0.06-1.411-0.102-2.112-0.192l-2.102-0.278c-0.703-0.08-1.395-0.226-2.092-0.336c-0.698-0.112-1.392-0.241-2.083-0.392
			c-1.386-0.278-2.754-0.619-4.121-0.999l-0.14-0.039L6.38,9.734C6.41,8.812,6.926,8.07,7.443,7.426
			c0.524-0.661,1.17-1.196,1.82-1.713C9.596,5.465,9.944,5.238,10.284,5l1.069-0.634c0.731-0.388,1.475-0.752,2.241-1.063
			c0.767-0.307,1.533-0.623,2.328-0.851c0.784-0.267,1.595-0.435,2.397-0.64c0.813-0.151,1.624-0.323,2.455-0.4
			c0.829-0.125,1.649-0.127,2.472-0.179c0.844,0.021,1.668,0.003,2.497,0.112c0.831,0.058,1.648,0.212,2.469,0.346
			c0.809,0.19,1.623,0.369,2.411,0.634c0.799,0.23,1.572,0.542,2.339,0.859c0.766,0.324,1.508,0.7,2.231,1.111l1.057,0.664
			c0.335,0.247,0.678,0.483,1.005,0.739c0.639,0.532,1.27,1.087,1.762,1.765c0.488,0.647,0.963,1.432,0.951,2.268l-0.001,0.023
			L39.949,9.76z"/>
	</g>
</g>
<g>
	<g>
		<ellipse fill="#FFFFFF" cx="23.253" cy="22.005" rx="22.38" ry="18.846"/>
		<g>
			<path fill="#B77C2D" d="M45.688,22.007c0,0-0.028,0.506-0.082,1.455c-0.068,0.945-0.307,2.34-0.846,4.039
				c-0.616,1.668-1.549,3.66-3.134,5.604c-1.568,1.941-3.733,3.85-6.462,5.32c-2.717,1.48-5.995,2.49-9.529,2.785
				c-0.891,0.029-1.769,0.094-2.704,0.076c-0.896-0.072-1.786-0.055-2.72-0.227c-0.462-0.068-0.927-0.137-1.395-0.205
				c-0.462-0.086-0.917-0.209-1.379-0.314c-0.93-0.182-1.825-0.523-2.74-0.816c-3.583-1.352-7.07-3.484-9.681-6.566
				c-2.675-3.008-4.333-7.014-4.441-11.152c-0.007-2.037,0.356-4.143,1.065-6.076c0.699-1.955,1.848-3.705,3.14-5.279
				c2.633-3.147,6.186-5.313,9.829-6.62c3.67-1.268,7.519-1.62,11.01-1.321c3.594,0.321,6.822,1.383,9.554,2.856
				c2.731,1.472,4.892,3.391,6.46,5.333c1.588,1.945,2.512,3.941,3.139,5.605c0.553,1.699,0.778,3.092,0.842,4.041
				C45.662,21.498,45.688,22.007,45.688,22.007z M45.578,22.003c0,0-0.035-0.502-0.101-1.447c-0.081-0.939-0.333-2.314-0.911-3.979
				c-0.624-1.646-1.686-3.537-3.308-5.361c-1.616-1.826-3.83-3.525-6.502-4.847c-2.659-1.326-5.839-2.233-9.188-2.553
				c-3.448-0.291-7.053,0.127-10.593,1.278c-3.5,1.199-6.912,3.232-9.47,6.181c-1.263,1.468-2.4,3.107-3.108,4.951
				c-0.74,1.836-1.156,3.756-1.228,5.779c0,1.992,0.35,3.98,1.038,5.854c0.684,1.879,1.805,3.563,3.063,5.078
				c2.58,3.014,6.057,5.08,9.617,6.234c0.906,0.25,1.788,0.549,2.701,0.691c0.452,0.084,0.9,0.189,1.348,0.254
				c0.449,0.049,0.896,0.098,1.341,0.146c0.874,0.137,1.805,0.08,2.69,0.127c0.85,0.006,1.737-0.066,2.585-0.105
				c3.409-0.346,6.54-1.307,9.213-2.625c2.675-1.322,4.884-3.033,6.501-4.859c1.624-1.824,2.677-3.721,3.313-5.363
				c0.591-1.666,0.83-3.037,0.905-3.982C45.546,22.507,45.578,22.003,45.578,22.003z"/>
		</g>
	</g>
	<g>
		<path fill="#F7941E" d="M39.94,9.734c0-3.082-7.472-8.298-16.687-8.298c-9.217,0-16.688,5.216-16.688,8.298
			c0,0,8.067,2.304,17.283,2.304C33.065,12.038,39.94,9.734,39.94,9.734z"/>
		<path fill="#CB6F28" d="M39.909,9.714c-0.048-0.837-0.531-1.518-1.04-2.133c-0.517-0.629-1.159-1.143-1.796-1.648
			C36.745,5.692,36.4,5.472,36.065,5.24l-1.057-0.617c-0.726-0.375-1.456-0.737-2.212-1.046c-0.757-0.302-1.521-0.598-2.308-0.813
			c-0.777-0.252-1.579-0.411-2.374-0.595c-0.804-0.139-1.605-0.299-2.419-0.365c-0.807-0.111-1.634-0.107-2.436-0.163
			c-0.822,0.025-1.654,0-2.46,0.096c-0.814,0.047-1.623,0.189-2.434,0.311c-0.802,0.168-1.606,0.338-2.388,0.588
			c-0.791,0.219-1.561,0.509-2.318,0.822c-0.756,0.322-1.485,0.697-2.202,1.094l-1.044,0.646c-0.33,0.241-0.669,0.471-0.992,0.72
			c-0.626,0.52-1.252,1.053-1.738,1.7C7.2,8.243,6.75,8.972,6.753,9.734L6.618,9.555c1.355,0.339,2.73,0.644,4.112,0.883
			c0.688,0.135,1.379,0.26,2.073,0.361c0.694,0.101,1.383,0.238,2.082,0.309l2.089,0.25c0.697,0.08,1.397,0.112,2.095,0.18
			c0.699,0.054,1.396,0.134,2.098,0.14l2.101,0.066c0.7,0.042,1.39-0.015,2.1-0.023c0.703-0.021,1.411-0.007,2.109-0.052
			l2.093-0.149c0.7-0.034,1.395-0.142,2.091-0.22c0.697-0.084,1.396-0.16,2.086-0.287c0.691-0.123,1.389-0.209,2.075-0.362
			C37.193,10.384,38.564,10.1,39.909,9.714z M39.949,9.76c-1.336,0.454-2.698,0.825-4.073,1.143
			c-0.686,0.173-1.383,0.279-2.075,0.421c-0.691,0.146-1.391,0.242-2.089,0.345c-0.7,0.099-1.395,0.225-2.102,0.279l-2.115,0.209
			c-0.705,0.063-1.407,0.071-2.111,0.106c-0.697,0.012-1.415,0.072-2.122,0.033l-2.121-0.057c-0.708-0.002-1.411-0.08-2.116-0.131
			c-0.705-0.06-1.411-0.102-2.112-0.192l-2.102-0.278c-0.703-0.08-1.395-0.226-2.092-0.336c-0.698-0.112-1.392-0.241-2.083-0.392
			c-1.386-0.278-2.754-0.619-4.121-0.999l-0.14-0.039L6.38,9.734C6.41,8.812,6.926,8.07,7.443,7.426
			c0.524-0.661,1.17-1.196,1.82-1.713C9.596,5.465,9.944,5.238,10.284,5l1.069-0.634c0.731-0.389,1.475-0.753,2.241-1.063
			c0.767-0.307,1.533-0.623,2.328-0.851c0.784-0.267,1.595-0.435,2.397-0.64c0.813-0.151,1.624-0.323,2.455-0.4
			c0.829-0.125,1.649-0.127,2.472-0.179c0.844,0.021,1.668,0.003,2.497,0.112c0.831,0.058,1.648,0.212,2.469,0.346
			c0.81,0.19,1.623,0.369,2.411,0.634c0.799,0.231,1.573,0.542,2.339,0.859c0.766,0.324,1.508,0.701,2.231,1.112l1.057,0.663
			c0.335,0.248,0.678,0.483,1.005,0.74c0.639,0.532,1.27,1.087,1.762,1.765c0.488,0.647,0.963,1.432,0.951,2.268l-0.001,0.023
			L39.949,9.76z"/>
	</g>
</g>
<g>
	<g>
		<ellipse fill="#FFFFFF" cx="23.253" cy="22.005" rx="22.38" ry="18.846"/>
		<g>
			<path fill="#B77C2D" d="M45.688,22.007c0,0-0.028,0.506-0.082,1.455c-0.068,0.945-0.307,2.34-0.846,4.039
				c-0.616,1.668-1.549,3.66-3.134,5.604c-1.568,1.941-3.733,3.85-6.462,5.32c-2.717,1.48-5.995,2.49-9.529,2.785
				c-0.891,0.029-1.769,0.094-2.704,0.076c-0.896-0.072-1.786-0.055-2.72-0.227c-0.462-0.068-0.927-0.137-1.395-0.205
				c-0.462-0.086-0.917-0.209-1.379-0.314c-0.93-0.182-1.825-0.523-2.74-0.816c-3.583-1.352-7.07-3.484-9.681-6.566
				c-2.675-3.008-4.333-7.014-4.441-11.152c-0.007-2.037,0.356-4.143,1.065-6.076c0.699-1.955,1.848-3.705,3.14-5.279
				c2.633-3.147,6.186-5.313,9.829-6.62c3.67-1.268,7.519-1.62,11.01-1.321c3.594,0.321,6.822,1.383,9.554,2.856
				c2.731,1.472,4.892,3.391,6.46,5.333c1.588,1.945,2.512,3.941,3.139,5.605c0.553,1.699,0.778,3.092,0.842,4.041
				C45.662,21.498,45.688,22.007,45.688,22.007z M45.578,22.003c0,0-0.035-0.502-0.101-1.447c-0.081-0.939-0.333-2.314-0.911-3.979
				c-0.624-1.646-1.686-3.537-3.308-5.361c-1.616-1.826-3.83-3.525-6.502-4.847c-2.659-1.326-5.839-2.233-9.188-2.553
				c-3.448-0.291-7.053,0.127-10.593,1.278c-3.5,1.199-6.912,3.232-9.47,6.181c-1.263,1.468-2.4,3.107-3.108,4.951
				c-0.74,1.836-1.156,3.756-1.228,5.779c0,1.992,0.35,3.98,1.038,5.854c0.684,1.879,1.805,3.563,3.063,5.078
				c2.58,3.014,6.057,5.08,9.617,6.234c0.906,0.25,1.788,0.549,2.701,0.691c0.452,0.084,0.9,0.189,1.348,0.254
				c0.449,0.049,0.896,0.098,1.341,0.146c0.874,0.137,1.805,0.08,2.69,0.127c0.85,0.006,1.737-0.066,2.585-0.105
				c3.409-0.346,6.54-1.307,9.213-2.625c2.675-1.322,4.884-3.033,6.501-4.859c1.624-1.824,2.677-3.721,3.313-5.363
				c0.591-1.666,0.83-3.037,0.905-3.982C45.546,22.507,45.578,22.003,45.578,22.003z"/>
		</g>
	</g>
	<g>
		<path fill="#AA7959" d="M39.941,9.734c0-3.082-7.473-8.298-16.688-8.298c-9.217,0-16.688,5.216-16.688,8.298
			c0,0,8.067,2.304,17.284,2.304C33.065,12.038,39.941,9.734,39.941,9.734z"/>
		<path fill="#8B5E3C" d="M39.91,9.714c-0.048-0.837-0.532-1.518-1.04-2.133c-0.517-0.629-1.159-1.143-1.796-1.648
			c-0.328-0.241-0.673-0.461-1.008-0.693L35.01,4.623c-0.726-0.375-1.456-0.737-2.212-1.046c-0.757-0.302-1.521-0.597-2.308-0.813
			c-0.777-0.252-1.579-0.411-2.374-0.595c-0.804-0.139-1.605-0.299-2.419-0.365c-0.807-0.111-1.634-0.107-2.436-0.163
			c-0.822,0.025-1.653,0-2.46,0.096c-0.814,0.047-1.623,0.189-2.434,0.311c-0.802,0.168-1.606,0.338-2.388,0.588
			c-0.791,0.219-1.561,0.509-2.319,0.822c-0.755,0.322-1.485,0.697-2.202,1.094l-1.044,0.646c-0.33,0.241-0.669,0.471-0.992,0.72
			c-0.626,0.52-1.252,1.053-1.738,1.7C7.2,8.243,6.75,8.972,6.753,9.734L6.618,9.555c1.355,0.339,2.73,0.644,4.112,0.883
			c0.688,0.135,1.379,0.26,2.074,0.361c0.694,0.101,1.383,0.238,2.082,0.309l2.089,0.25c0.697,0.08,1.397,0.112,2.095,0.18
			c0.699,0.054,1.396,0.134,2.098,0.14l2.101,0.066c0.701,0.042,1.391-0.015,2.101-0.023c0.703-0.021,1.411-0.007,2.109-0.052
			l2.093-0.149c0.7-0.034,1.395-0.142,2.092-0.22c0.697-0.084,1.396-0.16,2.086-0.287c0.691-0.123,1.39-0.209,2.075-0.362
			C37.194,10.384,38.565,10.1,39.91,9.714z M39.95,9.76c-1.336,0.454-2.698,0.825-4.073,1.143c-0.686,0.173-1.384,0.279-2.075,0.421
			c-0.691,0.146-1.391,0.242-2.089,0.345c-0.699,0.099-1.395,0.225-2.102,0.279l-2.115,0.209c-0.706,0.063-1.408,0.071-2.111,0.106
			c-0.697,0.012-1.415,0.072-2.122,0.033l-2.121-0.057c-0.708-0.002-1.412-0.08-2.117-0.131c-0.704-0.06-1.411-0.102-2.112-0.192
			l-2.102-0.278c-0.702-0.08-1.395-0.226-2.092-0.336c-0.698-0.112-1.392-0.241-2.083-0.392c-1.385-0.278-2.754-0.619-4.121-0.999
			l-0.14-0.039L6.38,9.734C6.41,8.812,6.926,8.07,7.443,7.425c0.524-0.66,1.17-1.195,1.82-1.712C9.596,5.465,9.944,5.238,10.284,5
			l1.069-0.635c0.732-0.388,1.475-0.752,2.242-1.063c0.766-0.307,1.533-0.623,2.328-0.851c0.784-0.267,1.595-0.435,2.397-0.64
			c0.813-0.151,1.624-0.323,2.455-0.4c0.829-0.125,1.649-0.127,2.472-0.179c0.844,0.021,1.668,0.003,2.497,0.112
			c0.831,0.058,1.648,0.212,2.469,0.346c0.81,0.19,1.623,0.369,2.412,0.634c0.798,0.231,1.572,0.542,2.339,0.86
			c0.766,0.324,1.508,0.7,2.231,1.111l1.057,0.663c0.335,0.248,0.678,0.483,1.005,0.74c0.639,0.532,1.269,1.087,1.762,1.765
			c0.488,0.647,0.963,1.432,0.951,2.268l-0.001,0.023L39.95,9.76z"/>
	</g>
</g>
<g>
	<g>
		<g>
			<ellipse fill="#FFFFFF" cx="23.253" cy="22.283" rx="22.38" ry="18.846"/>
			<g>
				<path fill="#B77C2D" d="M45.688,22.285c0,0-0.028,0.506-0.082,1.455c-0.068,0.945-0.307,2.34-0.846,4.039
					c-0.616,1.668-1.549,3.66-3.134,5.604c-1.568,1.941-3.732,3.852-6.461,5.32c-2.718,1.48-5.996,2.49-9.53,2.785
					c-0.891,0.029-1.769,0.094-2.705,0.076c-0.896-0.072-1.786-0.055-2.719-0.227c-0.462-0.068-0.928-0.137-1.395-0.205
					c-0.462-0.086-0.917-0.209-1.378-0.313c-0.93-0.184-1.826-0.525-2.74-0.818c-3.583-1.352-7.07-3.484-9.681-6.566
					c-2.675-3.008-4.333-7.014-4.441-11.152c-0.007-2.035,0.356-4.143,1.065-6.076c0.699-1.954,1.848-3.704,3.14-5.278
					c2.633-3.147,6.185-5.313,9.829-6.621c3.67-1.268,7.519-1.62,11.01-1.321c3.594,0.321,6.822,1.383,9.555,2.856
					c2.731,1.472,4.892,3.391,6.46,5.333c1.588,1.945,2.512,3.941,3.139,5.605c0.553,1.699,0.778,3.092,0.842,4.041
					C45.662,21.775,45.688,22.285,45.688,22.285z M45.578,22.281c0,0-0.035-0.502-0.101-1.447c-0.081-0.939-0.333-2.314-0.911-3.979
					c-0.625-1.645-1.686-3.537-3.308-5.361c-1.616-1.826-3.831-3.525-6.502-4.847c-2.659-1.326-5.838-2.233-9.188-2.553
					c-3.448-0.291-7.053,0.127-10.593,1.279c-3.5,1.199-6.913,3.232-9.47,6.18c-1.263,1.468-2.4,3.107-3.108,4.953
					c-0.74,1.834-1.156,3.754-1.228,5.777c0,1.992,0.35,3.98,1.038,5.854c0.684,1.881,1.805,3.563,3.063,5.078
					c2.58,3.014,6.058,5.08,9.617,6.234c0.906,0.25,1.789,0.549,2.701,0.691c0.452,0.084,0.9,0.189,1.348,0.254
					c0.449,0.049,0.896,0.098,1.341,0.146c0.874,0.137,1.805,0.08,2.69,0.127c0.85,0.006,1.738-0.066,2.585-0.105
					c3.408-0.346,6.539-1.307,9.212-2.625c2.675-1.322,4.884-3.033,6.501-4.859c1.624-1.824,2.677-3.721,3.313-5.363
					c0.591-1.666,0.83-3.037,0.905-3.982C45.546,22.785,45.578,22.281,45.578,22.281z"/>
			</g>
		</g>
		<g>
			<path fill="#754C29" d="M39.94,10.012c0-3.082-7.472-8.298-16.687-8.298c-9.217,0-16.688,5.216-16.688,8.298
				c0,0,8.067,2.303,17.283,2.303C33.065,12.315,39.94,10.012,39.94,10.012z"/>
			<path fill="#603913" d="M39.909,9.992c-0.048-0.837-0.531-1.518-1.04-2.133c-0.517-0.628-1.159-1.143-1.795-1.647
				c-0.329-0.241-0.673-0.461-1.008-0.693l-1.058-0.617c-0.725-0.375-1.456-0.738-2.212-1.046c-0.757-0.302-1.521-0.598-2.308-0.813
				c-0.777-0.252-1.579-0.411-2.374-0.595c-0.804-0.139-1.605-0.299-2.419-0.365c-0.807-0.111-1.634-0.107-2.436-0.163
				c-0.822,0.025-1.654,0-2.46,0.096c-0.814,0.047-1.623,0.189-2.434,0.311c-0.802,0.168-1.606,0.338-2.388,0.588
				c-0.791,0.219-1.561,0.509-2.318,0.822c-0.756,0.322-1.485,0.697-2.202,1.094l-1.044,0.646c-0.331,0.241-0.669,0.471-0.992,0.72
				c-0.626,0.52-1.252,1.054-1.737,1.7C7.2,8.521,6.75,9.25,6.753,10.012L6.618,9.833c1.355,0.339,2.73,0.643,4.112,0.883
				c0.688,0.135,1.379,0.26,2.073,0.36c0.694,0.101,1.383,0.238,2.082,0.309l2.089,0.25c0.697,0.08,1.398,0.112,2.095,0.18
				c0.699,0.054,1.396,0.134,2.098,0.14l2.101,0.066c0.7,0.042,1.39-0.015,2.1-0.023c0.703-0.021,1.411-0.007,2.109-0.051
				l2.093-0.15c0.699-0.034,1.395-0.141,2.091-0.22c0.697-0.084,1.396-0.16,2.086-0.287c0.691-0.123,1.39-0.209,2.075-0.363
				C37.193,10.662,38.564,10.377,39.909,9.992z M39.949,10.038c-1.336,0.454-2.698,0.825-4.073,1.143
				c-0.686,0.172-1.383,0.278-2.075,0.421c-0.691,0.146-1.391,0.242-2.089,0.346c-0.699,0.098-1.395,0.225-2.102,0.279l-2.115,0.209
				c-0.705,0.063-1.407,0.071-2.111,0.107c-0.697,0.012-1.415,0.072-2.122,0.033l-2.121-0.058c-0.708-0.003-1.411-0.08-2.116-0.131
				c-0.705-0.06-1.411-0.102-2.112-0.192l-2.102-0.277c-0.703-0.08-1.395-0.227-2.092-0.336c-0.698-0.111-1.392-0.241-2.083-0.391
				c-1.385-0.278-2.754-0.619-4.121-0.999l-0.14-0.039l0.004-0.14c0.03-0.923,0.546-1.665,1.063-2.309
				c0.524-0.661,1.17-1.195,1.819-1.713c0.333-0.248,0.682-0.475,1.021-0.712l1.069-0.635c0.732-0.388,1.475-0.752,2.242-1.063
				c0.767-0.307,1.533-0.623,2.328-0.851c0.784-0.267,1.595-0.435,2.397-0.64c0.813-0.151,1.624-0.323,2.455-0.4
				c0.829-0.125,1.649-0.127,2.472-0.179c0.844,0.021,1.668,0.003,2.497,0.112c0.831,0.058,1.648,0.212,2.469,0.346
				c0.81,0.19,1.623,0.369,2.412,0.634c0.798,0.231,1.572,0.542,2.339,0.859c0.766,0.324,1.508,0.701,2.231,1.111l1.057,0.664
				c0.335,0.248,0.678,0.483,1.005,0.74c0.639,0.532,1.27,1.086,1.762,1.765c0.488,0.647,0.963,1.432,0.951,2.268l-0.001,0.023
				L39.949,10.038z"/>
		</g>
	</g>
	<g>
		<g>
			<path fill="#FFFFFF" d="M11.754,7.935c0.002,0.001-0.015-0.047-0.023-0.114c0.001-0.06-0.028-0.169-0.009-0.257
				c0.021-0.085,0.013-0.213,0.064-0.299c0.048-0.089,0.1-0.184,0.151-0.279c0.083-0.069,0.167-0.137,0.246-0.202
				c0.077-0.065,0.202-0.083,0.282-0.12c0.083-0.035,0.195-0.029,0.253-0.041c0.067-0.004,0.117,0.002,0.115,0.001l0.029,0.003
				c0.011,0.001,0.018,0.011,0.017,0.021c0,0.004-0.002,0.007-0.004,0.01c0,0-0.26,0.336-0.52,0.673
				c-0.28,0.319-0.561,0.638-0.561,0.638c-0.007,0.008-0.02,0.009-0.027,0.002c-0.003-0.002-0.005-0.005-0.006-0.009L11.754,7.935z"
				/>
		</g>
		<g>
			<path fill="#FFFFFF" d="M16.445,3.516c-0.001,0.002,0.047-0.014,0.114-0.021c0.06,0.002,0.17-0.024,0.257-0.003
				c0.085,0.023,0.213,0.018,0.298,0.071c0.088,0.05,0.182,0.104,0.276,0.158c0.067,0.085,0.134,0.17,0.196,0.25
				C17.65,4.05,17.665,4.175,17.7,4.256c0.033,0.083,0.024,0.195,0.035,0.254c0.003,0.067-0.005,0.118-0.003,0.116l-0.003,0.028
				c-0.001,0.011-0.012,0.019-0.022,0.017c-0.004,0-0.007-0.002-0.01-0.004c0,0-0.331-0.267-0.661-0.535
				c-0.313-0.288-0.625-0.576-0.625-0.576c-0.008-0.007-0.009-0.02-0.001-0.027c0.002-0.003,0.006-0.005,0.009-0.006L16.445,3.516z"
				/>
		</g>
		<g>
			<path fill="#FFFFFF" d="M11.149,4.439c-0.001,0.002,0.047-0.014,0.114-0.021c0.06,0.002,0.169-0.024,0.257-0.003
				c0.085,0.023,0.212,0.018,0.298,0.071c0.088,0.05,0.182,0.104,0.276,0.158c0.067,0.085,0.133,0.17,0.196,0.25
				c0.063,0.079,0.078,0.204,0.114,0.285c0.033,0.084,0.024,0.195,0.035,0.254c0.003,0.067-0.005,0.118-0.003,0.116l-0.003,0.028
				c-0.001,0.011-0.012,0.019-0.022,0.017c-0.003,0-0.007-0.002-0.009-0.004c0,0-0.331-0.267-0.661-0.535
				c-0.313-0.288-0.625-0.576-0.625-0.576c-0.008-0.007-0.009-0.02-0.001-0.027c0.002-0.003,0.006-0.005,0.009-0.005L11.149,4.439z"
				/>
		</g>
		<g>
			<path fill="#FFFFFF" d="M17.231,6.24c-0.001,0.002,0.047-0.014,0.114-0.021c0.06,0.002,0.17-0.024,0.257-0.003
				c0.085,0.023,0.212,0.018,0.298,0.071c0.088,0.05,0.182,0.104,0.276,0.158c0.066,0.085,0.133,0.171,0.196,0.25
				c0.064,0.079,0.078,0.204,0.114,0.285c0.033,0.084,0.024,0.195,0.035,0.254c0.003,0.067-0.005,0.118-0.003,0.116l-0.003,0.028
				c-0.001,0.011-0.012,0.019-0.022,0.017c-0.003,0-0.007-0.002-0.009-0.004c0,0-0.331-0.267-0.661-0.535
				c-0.313-0.288-0.625-0.576-0.625-0.576c-0.008-0.007-0.009-0.02-0.001-0.027c0.002-0.003,0.006-0.005,0.009-0.005L17.231,6.24z"
				/>
		</g>
		<g>
			<path fill="#FFFFFF" d="M22.324,3.91c-0.001,0.002,0.047-0.014,0.114-0.021c0.06,0.002,0.169-0.024,0.257-0.003
				c0.085,0.023,0.212,0.018,0.298,0.071c0.088,0.05,0.182,0.104,0.276,0.158c0.067,0.085,0.133,0.17,0.196,0.25
				c0.063,0.079,0.078,0.204,0.114,0.285c0.033,0.084,0.024,0.195,0.035,0.254c0.003,0.067-0.005,0.118-0.003,0.116l-0.003,0.028
				c-0.001,0.011-0.012,0.019-0.022,0.017c-0.003,0-0.007-0.002-0.009-0.004c0,0-0.331-0.267-0.661-0.535
				c-0.313-0.288-0.625-0.576-0.625-0.576c-0.008-0.007-0.009-0.02-0.001-0.027c0.002-0.003,0.006-0.005,0.009-0.005L22.324,3.91z"
				/>
		</g>
		<g>
			<path fill="#FFFFFF" d="M24.557,8.45c-0.001,0.002,0.047-0.014,0.114-0.021c0.06,0.002,0.169-0.024,0.257-0.003
				c0.085,0.023,0.212,0.018,0.298,0.071c0.088,0.05,0.182,0.104,0.275,0.158c0.067,0.085,0.133,0.17,0.196,0.25
				c0.064,0.079,0.079,0.204,0.114,0.285c0.033,0.084,0.024,0.196,0.035,0.254c0.003,0.067-0.005,0.118-0.003,0.116l-0.003,0.028
				c-0.001,0.011-0.012,0.019-0.022,0.017c-0.003,0-0.007-0.002-0.009-0.004c0,0-0.331-0.267-0.661-0.535
				c-0.313-0.288-0.625-0.576-0.625-0.576c-0.008-0.007-0.009-0.02-0.001-0.027c0.002-0.003,0.006-0.005,0.009-0.005L24.557,8.45z"
				/>
		</g>
		<g>
			<path fill="#FFFFFF" d="M20.131,9.355c-0.001,0.002,0.047-0.014,0.114-0.021c0.06,0.002,0.169-0.024,0.257-0.003
				c0.085,0.023,0.212,0.018,0.298,0.071c0.088,0.05,0.182,0.104,0.275,0.158c0.067,0.085,0.133,0.17,0.196,0.25
				c0.064,0.079,0.079,0.204,0.114,0.285c0.033,0.084,0.024,0.196,0.035,0.254c0.003,0.067-0.005,0.118-0.003,0.116l-0.003,0.028
				c-0.001,0.011-0.012,0.019-0.022,0.017c-0.004,0-0.007-0.002-0.01-0.004c0,0-0.331-0.267-0.661-0.535
				c-0.313-0.288-0.625-0.576-0.625-0.576c-0.008-0.007-0.009-0.02-0.001-0.027c0.002-0.003,0.006-0.005,0.009-0.005L20.131,9.355z"
				/>
		</g>
		<g>
			<path fill="#FFFFFF" d="M14.315,10.465c-0.001,0.002,0.047-0.014,0.114-0.021c0.06,0.002,0.169-0.024,0.257-0.003
				c0.085,0.023,0.212,0.018,0.298,0.071c0.088,0.05,0.182,0.104,0.275,0.158c0.067,0.085,0.133,0.17,0.196,0.25
				c0.064,0.079,0.079,0.204,0.114,0.285c0.033,0.084,0.024,0.196,0.035,0.254c0.003,0.067-0.005,0.118-0.003,0.116l-0.003,0.028
				c-0.001,0.011-0.012,0.019-0.022,0.017c-0.003,0-0.007-0.002-0.009-0.004c0,0-0.331-0.267-0.661-0.535
				c-0.313-0.288-0.625-0.576-0.625-0.576c-0.008-0.007-0.009-0.02-0.001-0.027c0.002-0.003,0.006-0.005,0.009-0.005L14.315,10.465z
				"/>
		</g>
		<g>
			<path fill="#FFFFFF" d="M28.08,4.626c-0.001,0.002,0.047-0.014,0.114-0.021c0.06,0.002,0.17-0.024,0.257-0.003
				c0.085,0.023,0.212,0.018,0.298,0.071c0.088,0.05,0.182,0.104,0.276,0.158c0.067,0.085,0.133,0.17,0.196,0.25
				c0.064,0.079,0.079,0.204,0.114,0.285c0.033,0.083,0.024,0.195,0.035,0.254c0.003,0.067-0.005,0.118-0.003,0.116l-0.003,0.028
				c-0.001,0.011-0.011,0.019-0.022,0.017c-0.004,0-0.007-0.002-0.01-0.004c0,0-0.331-0.267-0.661-0.535
				c-0.313-0.288-0.625-0.576-0.625-0.576c-0.008-0.007-0.009-0.02-0.001-0.027c0.002-0.003,0.006-0.005,0.009-0.006L28.08,4.626z"
				/>
		</g>
		<g>
			<path fill="#FFFFFF" d="M32.827,5.39c-0.001,0.002,0.047-0.014,0.114-0.021c0.06,0.002,0.17-0.024,0.257-0.003
				c0.085,0.023,0.212,0.018,0.298,0.071c0.088,0.05,0.182,0.104,0.276,0.158c0.066,0.085,0.133,0.171,0.196,0.25
				c0.064,0.079,0.078,0.204,0.114,0.285c0.033,0.084,0.024,0.195,0.035,0.254c0.003,0.067-0.005,0.118-0.003,0.116l-0.003,0.028
				c-0.001,0.011-0.012,0.019-0.022,0.017c-0.003,0-0.007-0.002-0.009-0.004c0,0-0.331-0.267-0.661-0.535
				c-0.313-0.288-0.625-0.576-0.625-0.576c-0.008-0.007-0.009-0.02-0.001-0.027c0.002-0.003,0.006-0.005,0.009-0.005L32.827,5.39z"
				/>
		</g>
		<g>
			<path fill="#FFFFFF" d="M25.2,1.139c-0.001,0.002,0.047-0.014,0.114-0.021c0.06,0.002,0.17-0.024,0.257-0.003
				c0.085,0.023,0.213,0.018,0.298,0.071c0.088,0.05,0.182,0.104,0.276,0.158c0.067,0.085,0.134,0.17,0.196,0.25
				c0.064,0.079,0.079,0.204,0.114,0.285c0.033,0.083,0.024,0.195,0.035,0.254c0.003,0.067-0.005,0.118-0.003,0.116l-0.003,0.028
				c-0.001,0.011-0.011,0.019-0.022,0.017c-0.004,0-0.007-0.002-0.01-0.004c0,0-0.331-0.267-0.661-0.535
				c-0.313-0.288-0.625-0.576-0.625-0.576c-0.008-0.007-0.009-0.02-0.001-0.027c0.002-0.003,0.006-0.005,0.009-0.006L25.2,1.139z"/>
		</g>
		<g>
			<path fill="#FFFFFF" d="M10.822,8.467c-0.002,0.001,0.048-0.006,0.116-0.001c0.059,0.012,0.171,0.005,0.254,0.04
				c0.08,0.037,0.207,0.053,0.282,0.12c0.078,0.064,0.162,0.133,0.245,0.202c0.052,0.095,0.103,0.19,0.151,0.28
				c0.05,0.088,0.043,0.214,0.064,0.299c0.019,0.088-0.009,0.197-0.008,0.257c-0.008,0.067-0.024,0.115-0.022,0.113l-0.009,0.027
				c-0.003,0.01-0.014,0.016-0.024,0.013c-0.003-0.001-0.006-0.003-0.009-0.006c0,0-0.281-0.319-0.562-0.638
				c-0.26-0.336-0.52-0.673-0.52-0.673c-0.006-0.008-0.005-0.021,0.003-0.027c0.003-0.002,0.006-0.003,0.01-0.004L10.822,8.467z"/>
		</g>
		<g>
			<path fill="#FFFFFF" d="M19.073,11.761c0.001,0.002-0.007-0.048-0.004-0.116c0.011-0.059,0.001-0.171,0.035-0.255
				c0.036-0.081,0.049-0.208,0.114-0.284c0.063-0.08,0.129-0.165,0.196-0.25c0.094-0.053,0.188-0.107,0.276-0.157
				c0.087-0.052,0.213-0.048,0.298-0.071c0.088-0.021,0.197,0.004,0.257,0.002c0.067,0.006,0.115,0.022,0.114,0.02l0.027,0.008
				c0.011,0.003,0.017,0.014,0.014,0.024c-0.001,0.003-0.003,0.006-0.006,0.009c0,0-0.313,0.288-0.625,0.576
				c-0.331,0.268-0.661,0.535-0.661,0.535c-0.008,0.007-0.021,0.005-0.027-0.003c-0.002-0.003-0.003-0.006-0.004-0.009
				L19.073,11.761z"/>
		</g>
		<g>
			<path fill="#FFFFFF" d="M6.973,9.56c0.001,0.002-0.007-0.048-0.004-0.116C6.98,9.386,6.971,9.273,7.004,9.189
				C7.04,9.109,7.053,8.982,7.118,8.905c0.063-0.08,0.129-0.165,0.196-0.25c0.094-0.053,0.188-0.107,0.276-0.157
				C7.678,8.446,7.804,8.45,7.889,8.427C7.977,8.407,8.086,8.432,8.146,8.43c0.067,0.007,0.115,0.022,0.114,0.02l0.027,0.008
				C8.297,8.46,8.303,8.471,8.3,8.482C8.299,8.485,8.297,8.488,8.294,8.491c0,0-0.313,0.288-0.625,0.576
				C7.339,9.334,7.008,9.601,7.008,9.601C7,9.608,6.988,9.606,6.981,9.598C6.979,9.595,6.978,9.592,6.977,9.589L6.973,9.56z"/>
		</g>
		<g>
			<path fill="#FFFFFF" d="M16.642,8.548c0.001,0.002-0.007-0.048-0.003-0.116c0.011-0.059,0.001-0.171,0.034-0.255
				c0.036-0.081,0.049-0.208,0.114-0.284c0.063-0.08,0.13-0.165,0.197-0.25c0.094-0.054,0.188-0.107,0.276-0.157
				c0.087-0.052,0.213-0.048,0.298-0.071c0.088-0.02,0.197,0.005,0.257,0.003c0.067,0.006,0.115,0.022,0.114,0.02l0.027,0.008
				c0.011,0.003,0.017,0.014,0.014,0.024c-0.001,0.003-0.003,0.006-0.006,0.009c0,0-0.313,0.288-0.625,0.576
				c-0.331,0.268-0.661,0.535-0.661,0.535c-0.008,0.007-0.021,0.005-0.027-0.003c-0.002-0.003-0.003-0.006-0.004-0.009L16.642,8.548
				z"/>
		</g>
		<g>
			<path fill="#FFFFFF" d="M21.323,11.072c0,0.002,0.038-0.031,0.097-0.063c0.056-0.021,0.147-0.088,0.236-0.103
				c0.087-0.011,0.203-0.066,0.302-0.05c0.101,0.012,0.208,0.025,0.315,0.039c0.095,0.053,0.189,0.105,0.278,0.155
				c0.089,0.047,0.151,0.157,0.215,0.218c0.063,0.064,0.098,0.171,0.131,0.221c0.029,0.061,0.041,0.11,0.042,0.107l0.008,0.028
				c0.002,0.01-0.003,0.021-0.014,0.024c-0.003,0.001-0.007,0.001-0.01,0c0,0-0.408-0.118-0.816-0.236
				c-0.4-0.144-0.8-0.288-0.8-0.288c-0.01-0.003-0.016-0.015-0.012-0.025c0.001-0.003,0.003-0.006,0.006-0.009L21.323,11.072z"/>
		</g>
		<g>
			<path fill="#FFFFFF" d="M23.392,7.595c0.001,0.002-0.007-0.048-0.004-0.116c0.011-0.059,0.001-0.171,0.035-0.255
				c0.036-0.081,0.049-0.208,0.114-0.284c0.063-0.08,0.13-0.165,0.197-0.25c0.094-0.054,0.188-0.107,0.276-0.158
				c0.087-0.051,0.213-0.048,0.298-0.071c0.088-0.021,0.197,0.004,0.257,0.002c0.067,0.007,0.115,0.022,0.114,0.02l0.027,0.008
				c0.011,0.003,0.017,0.014,0.014,0.024c-0.001,0.003-0.003,0.006-0.006,0.009c0,0-0.313,0.288-0.625,0.576
				c-0.331,0.267-0.661,0.535-0.661,0.535c-0.008,0.007-0.021,0.005-0.027-0.003c-0.002-0.003-0.003-0.006-0.004-0.009L23.392,7.595
				z"/>
		</g>
		<g>
			<path fill="#FFFFFF" d="M14.769,7.083c0.001,0.002-0.007-0.048-0.004-0.116c0.011-0.059,0.001-0.171,0.035-0.255
				c0.036-0.081,0.049-0.208,0.114-0.284c0.063-0.08,0.129-0.165,0.196-0.25c0.094-0.053,0.188-0.107,0.276-0.157
				c0.087-0.052,0.213-0.048,0.298-0.071c0.088-0.021,0.197,0.004,0.257,0.002c0.067,0.006,0.115,0.022,0.114,0.02l0.027,0.008
				c0.011,0.003,0.017,0.014,0.014,0.024c-0.001,0.003-0.003,0.006-0.006,0.009c0,0-0.313,0.288-0.625,0.576
				c-0.331,0.268-0.661,0.535-0.661,0.535c-0.008,0.007-0.021,0.005-0.027-0.003c-0.002-0.003-0.003-0.006-0.004-0.009L14.769,7.083
				z"/>
		</g>
		<g>
			<path fill="#FFFFFF" d="M8.807,8.008C8.808,8.01,8.8,7.96,8.803,7.893c0.011-0.059,0.001-0.171,0.035-0.255
				C8.873,7.557,8.886,7.43,8.951,7.354c0.063-0.08,0.129-0.165,0.196-0.25C9.242,7.05,9.335,6.997,9.424,6.946
				c0.087-0.052,0.213-0.048,0.298-0.071C9.81,6.855,9.919,6.88,9.979,6.878c0.067,0.007,0.115,0.022,0.114,0.02l0.027,0.008
				c0.011,0.003,0.017,0.014,0.014,0.024c-0.001,0.003-0.003,0.006-0.006,0.009c0,0-0.313,0.288-0.625,0.576
				c-0.33,0.268-0.661,0.535-0.661,0.535C8.833,8.056,8.821,8.055,8.814,8.046C8.813,8.043,8.811,8.041,8.811,8.037L8.807,8.008z"/>
		</g>
		<g>
			<path fill="#FFFFFF" d="M15.09,3.36c-0.002,0.001,0.048-0.006,0.116-0.001c0.059,0.012,0.171,0.005,0.254,0.04
				c0.08,0.037,0.207,0.053,0.282,0.12c0.078,0.064,0.162,0.133,0.246,0.202c0.051,0.095,0.103,0.19,0.151,0.28
				c0.05,0.088,0.043,0.214,0.064,0.299c0.019,0.088-0.009,0.197-0.008,0.257c-0.008,0.067-0.024,0.115-0.022,0.113l-0.009,0.027
				c-0.003,0.01-0.014,0.016-0.024,0.013c-0.003-0.001-0.006-0.003-0.009-0.006c0,0-0.281-0.319-0.562-0.638
				c-0.26-0.336-0.52-0.673-0.52-0.673c-0.006-0.008-0.005-0.021,0.003-0.027c0.003-0.002,0.006-0.003,0.01-0.004L15.09,3.36z"/>
		</g>
		<g>
			<path fill="#FFFFFF" d="M18.43,9.189c0.001,0.002-0.007-0.048-0.004-0.116c0.011-0.059,0.001-0.171,0.035-0.255
				c0.036-0.081,0.049-0.208,0.114-0.284c0.063-0.08,0.129-0.165,0.196-0.25c0.094-0.053,0.188-0.107,0.276-0.157
				c0.087-0.052,0.213-0.048,0.298-0.071c0.088-0.021,0.197,0.004,0.257,0.002c0.067,0.006,0.115,0.022,0.114,0.02l0.027,0.008
				c0.011,0.003,0.017,0.014,0.014,0.024c-0.001,0.003-0.003,0.006-0.006,0.009c0,0-0.313,0.288-0.625,0.576
				c-0.331,0.268-0.661,0.535-0.661,0.535c-0.008,0.007-0.021,0.005-0.027-0.003c-0.002-0.003-0.003-0.006-0.004-0.009L18.43,9.189z
				"/>
		</g>
		<g>
			<path fill="#FFFFFF" d="M20.91,3.442c0.001,0.002-0.007-0.048-0.004-0.116c0.011-0.059,0.001-0.171,0.035-0.255
				c0.036-0.081,0.049-0.208,0.114-0.284c0.063-0.08,0.129-0.165,0.196-0.25c0.094-0.053,0.188-0.107,0.276-0.157
				c0.087-0.052,0.213-0.048,0.298-0.071c0.088-0.021,0.197,0.004,0.257,0.002c0.067,0.007,0.115,0.022,0.114,0.02l0.027,0.008
				c0.011,0.003,0.017,0.014,0.014,0.024c-0.001,0.003-0.003,0.006-0.006,0.009c0,0-0.313,0.288-0.625,0.576
				c-0.331,0.268-0.661,0.535-0.661,0.535c-0.008,0.007-0.021,0.005-0.027-0.003c-0.002-0.003-0.003-0.006-0.004-0.009L20.91,3.442z
				"/>
		</g>
		<g>
			<path fill="#FFFFFF" d="M26.81,5.53c0,0.002,0.038-0.031,0.097-0.063c0.056-0.021,0.147-0.088,0.236-0.103
				c0.087-0.011,0.203-0.066,0.302-0.05c0.101,0.012,0.208,0.025,0.315,0.039c0.095,0.053,0.189,0.105,0.278,0.155
				c0.089,0.047,0.151,0.157,0.215,0.218c0.063,0.064,0.098,0.171,0.131,0.221c0.029,0.061,0.041,0.11,0.042,0.107l0.008,0.028
				c0.002,0.01-0.003,0.021-0.014,0.024c-0.003,0.001-0.007,0.001-0.01,0c0,0-0.408-0.118-0.816-0.236
				c-0.4-0.144-0.8-0.288-0.8-0.288c-0.01-0.003-0.016-0.015-0.012-0.025c0.001-0.003,0.003-0.006,0.006-0.009L26.81,5.53z"/>
		</g>
		<g>
			<path fill="#FFFFFF" d="M26.142,3.442c0.001,0.002-0.007-0.048-0.004-0.116c0.011-0.059,0.001-0.171,0.035-0.255
				c0.036-0.081,0.049-0.208,0.114-0.284c0.063-0.08,0.129-0.165,0.197-0.25c0.094-0.054,0.188-0.107,0.276-0.157
				c0.087-0.052,0.213-0.048,0.298-0.071c0.088-0.02,0.197,0.005,0.257,0.003c0.067,0.006,0.115,0.022,0.114,0.02l0.027,0.008
				c0.011,0.003,0.017,0.014,0.014,0.024c-0.001,0.003-0.003,0.006-0.006,0.009c0,0-0.313,0.288-0.625,0.576
				c-0.331,0.268-0.661,0.535-0.661,0.535c-0.008,0.007-0.021,0.005-0.027-0.003c-0.002-0.003-0.003-0.006-0.004-0.009L26.142,3.442
				z"/>
		</g>
		<g>
			<path fill="#FFFFFF" d="M18.809,3.145c0.001,0.002-0.007-0.048-0.003-0.116c0.011-0.059,0.001-0.171,0.035-0.255
				c0.036-0.081,0.049-0.208,0.114-0.284c0.063-0.08,0.13-0.165,0.197-0.25c0.094-0.054,0.188-0.107,0.276-0.157
				c0.087-0.052,0.213-0.048,0.298-0.071c0.088-0.02,0.197,0.005,0.257,0.003c0.067,0.006,0.115,0.022,0.114,0.02l0.027,0.008
				c0.011,0.003,0.017,0.014,0.014,0.024c-0.001,0.003-0.003,0.006-0.006,0.009c0,0-0.313,0.288-0.625,0.576
				c-0.331,0.268-0.662,0.535-0.662,0.535c-0.008,0.007-0.021,0.005-0.027-0.003c-0.002-0.003-0.003-0.006-0.004-0.009L18.809,3.145
				z"/>
		</g>
		<g>
			<path fill="#FFFFFF" d="M13.04,4.626c0.001,0.002-0.007-0.048-0.004-0.116c0.011-0.059,0.001-0.171,0.035-0.255
				c0.036-0.081,0.049-0.208,0.114-0.284c0.063-0.08,0.129-0.165,0.197-0.25c0.094-0.053,0.188-0.107,0.276-0.157
				c0.087-0.052,0.213-0.048,0.298-0.071c0.088-0.021,0.197,0.004,0.257,0.002c0.067,0.006,0.115,0.022,0.114,0.02l0.027,0.008
				c0.011,0.003,0.017,0.014,0.014,0.024c-0.001,0.003-0.003,0.006-0.006,0.009c0,0-0.313,0.288-0.625,0.576
				c-0.331,0.268-0.661,0.535-0.661,0.535c-0.008,0.007-0.021,0.005-0.027-0.003c-0.002-0.003-0.003-0.006-0.004-0.009L13.04,4.626z
				"/>
		</g>
		<g>
			<path fill="#FFFFFF" d="M25.59,6.292c0.001,0.002-0.007-0.048-0.003-0.116c0.011-0.059,0.001-0.171,0.034-0.255
				c0.036-0.081,0.049-0.208,0.114-0.284c0.063-0.08,0.13-0.165,0.197-0.25c0.094-0.054,0.188-0.107,0.276-0.157
				c0.087-0.052,0.213-0.048,0.298-0.071c0.088-0.02,0.197,0.005,0.257,0.003c0.067,0.006,0.115,0.022,0.114,0.02l0.027,0.008
				c0.011,0.003,0.017,0.014,0.014,0.024c-0.001,0.003-0.003,0.006-0.006,0.009c0,0-0.313,0.288-0.625,0.576
				c-0.331,0.268-0.661,0.535-0.661,0.535c-0.008,0.007-0.021,0.005-0.027-0.003c-0.002-0.003-0.003-0.006-0.004-0.009L25.59,6.292z
				"/>
		</g>
		<g>
			<path fill="#FFFFFF" d="M34.649,7.905c0.001,0.002-0.007-0.048-0.003-0.116c0.011-0.059,0.001-0.171,0.035-0.255
				c0.036-0.081,0.049-0.208,0.114-0.284c0.063-0.08,0.13-0.165,0.197-0.25c0.094-0.054,0.188-0.107,0.276-0.157
				c0.087-0.052,0.213-0.048,0.299-0.071c0.087-0.02,0.196,0.005,0.256,0.003c0.067,0.006,0.116,0.022,0.114,0.02l0.027,0.008
				c0.011,0.003,0.017,0.014,0.014,0.024c-0.001,0.003-0.003,0.006-0.006,0.009c0,0-0.313,0.288-0.626,0.576
				c-0.33,0.268-0.661,0.535-0.661,0.535c-0.008,0.007-0.021,0.005-0.027-0.003c-0.002-0.003-0.003-0.006-0.004-0.009L34.649,7.905z
				"/>
		</g>
		<g>
			<path fill="#FFFFFF" d="M26.205,8.868c0.001,0.002-0.007-0.048-0.004-0.116c0.011-0.059,0.001-0.171,0.035-0.255
				c0.035-0.081,0.048-0.208,0.114-0.284c0.063-0.08,0.129-0.165,0.196-0.25c0.094-0.054,0.188-0.107,0.276-0.158
				c0.087-0.052,0.213-0.048,0.298-0.071c0.087-0.021,0.197,0.004,0.256,0.002c0.067,0.007,0.115,0.022,0.114,0.02l0.027,0.008
				c0.011,0.003,0.017,0.014,0.014,0.024c-0.001,0.003-0.003,0.006-0.006,0.009c0,0-0.312,0.288-0.625,0.576
				c-0.33,0.268-0.661,0.535-0.661,0.535c-0.008,0.007-0.021,0.005-0.027-0.003c-0.002-0.003-0.003-0.006-0.004-0.009L26.205,8.868z
				"/>
		</g>
		<g>
			<path fill="#FFFFFF" d="M31.334,8.598c0.002-0.001-0.048,0.006-0.116,0.001c-0.059-0.012-0.171-0.005-0.254-0.04
				c-0.08-0.037-0.207-0.053-0.282-0.12c-0.078-0.064-0.162-0.133-0.246-0.202c-0.051-0.095-0.103-0.19-0.151-0.28
				c-0.05-0.088-0.043-0.214-0.064-0.299C30.204,7.569,30.231,7.46,30.23,7.4c0.008-0.067,0.024-0.115,0.022-0.113l0.009-0.027
				c0.003-0.01,0.014-0.016,0.024-0.013c0.003,0.001,0.006,0.003,0.009,0.006c0,0,0.281,0.319,0.562,0.638
				c0.26,0.336,0.52,0.673,0.52,0.673c0.006,0.008,0.005,0.021-0.003,0.027c-0.003,0.002-0.006,0.003-0.01,0.004L31.334,8.598z"/>
		</g>
		<g>
			<path fill="#FFFFFF" d="M31.385,2.631c-0.001-0.002,0.007,0.048,0.003,0.116c-0.011,0.059-0.001,0.171-0.034,0.255
				c-0.036,0.081-0.049,0.208-0.114,0.284c-0.063,0.08-0.13,0.165-0.197,0.25c-0.094,0.053-0.188,0.107-0.276,0.157
				c-0.087,0.052-0.213,0.048-0.298,0.071c-0.088,0.021-0.197-0.004-0.257-0.002c-0.067-0.006-0.115-0.022-0.114-0.02l-0.027-0.008
				c-0.011-0.003-0.017-0.014-0.014-0.024c0.001-0.003,0.003-0.006,0.006-0.009c0,0,0.313-0.288,0.625-0.576
				C31.02,2.857,31.35,2.59,31.35,2.59c0.008-0.007,0.021-0.005,0.027,0.003c0.002,0.003,0.003,0.006,0.004,0.009L31.385,2.631z"/>
		</g>
		<g>
			<path fill="#FFFFFF" d="M38.052,8.748c-0.002-0.002,0.007,0.048,0.004,0.116c-0.011,0.059-0.001,0.171-0.035,0.255
				c-0.035,0.081-0.048,0.208-0.113,0.284c-0.063,0.08-0.13,0.165-0.196,0.25c-0.095,0.053-0.188,0.107-0.276,0.157
				c-0.087,0.052-0.213,0.048-0.299,0.071c-0.087,0.021-0.196-0.004-0.256-0.002c-0.067-0.006-0.116-0.022-0.114-0.02l-0.027-0.008
				c-0.011-0.003-0.017-0.014-0.014-0.024c0.001-0.003,0.003-0.006,0.006-0.009c0,0,0.313-0.288,0.625-0.576
				c0.331-0.268,0.661-0.535,0.661-0.535c0.008-0.007,0.021-0.005,0.027,0.003c0.002,0.003,0.004,0.006,0.004,0.009L38.052,8.748z"
				/>
		</g>
		<g>
			<path fill="#FFFFFF" d="M30.6,5.354c-0.001-0.002,0.007,0.048,0.004,0.116c-0.011,0.059-0.001,0.171-0.035,0.255
				c-0.036,0.081-0.049,0.208-0.114,0.284c-0.063,0.08-0.129,0.165-0.196,0.25c-0.094,0.053-0.188,0.107-0.276,0.157
				c-0.087,0.052-0.213,0.048-0.298,0.071c-0.088,0.021-0.197-0.004-0.257-0.002c-0.067-0.006-0.115-0.022-0.114-0.02l-0.027-0.008
				c-0.011-0.003-0.017-0.014-0.014-0.024c0.001-0.003,0.003-0.006,0.006-0.009c0,0,0.313-0.288,0.625-0.576
				c0.331-0.268,0.661-0.535,0.661-0.535c0.008-0.007,0.021-0.005,0.027,0.003c0.002,0.003,0.003,0.006,0.004,0.009L30.6,5.354z"/>
		</g>
		<g>
			<path fill="#FFFFFF" d="M24.7,3.267c0-0.002-0.038,0.031-0.097,0.063c-0.056,0.021-0.147,0.088-0.236,0.103
				c-0.087,0.011-0.203,0.066-0.302,0.05c-0.101-0.012-0.208-0.025-0.315-0.039c-0.094-0.053-0.189-0.105-0.277-0.155
				c-0.089-0.047-0.151-0.157-0.215-0.218c-0.063-0.064-0.098-0.171-0.131-0.221c-0.029-0.061-0.041-0.11-0.042-0.107l-0.008-0.028
				c-0.002-0.01,0.003-0.021,0.014-0.024c0.004-0.001,0.007-0.001,0.011,0c0,0,0.408,0.118,0.816,0.236
				c0.399,0.144,0.799,0.288,0.799,0.288c0.01,0.004,0.016,0.015,0.012,0.025c-0.001,0.003-0.003,0.006-0.006,0.008L24.7,3.267z"/>
		</g>
		<g>
			<path fill="#FFFFFF" d="M23.274,7.565c-0.001-0.002,0.007,0.048,0.004,0.116c-0.011,0.059-0.001,0.171-0.035,0.255
				c-0.036,0.081-0.049,0.208-0.114,0.284C23.067,8.299,23,8.385,22.933,8.47c-0.094,0.053-0.188,0.107-0.276,0.157
				c-0.087,0.052-0.213,0.048-0.298,0.071c-0.088,0.021-0.197-0.004-0.257-0.002c-0.067-0.007-0.115-0.022-0.114-0.02l-0.027-0.008
				c-0.011-0.003-0.017-0.014-0.014-0.024c0.001-0.003,0.003-0.006,0.006-0.009c0,0,0.313-0.288,0.625-0.576
				c0.331-0.268,0.661-0.535,0.661-0.535c0.008-0.007,0.021-0.005,0.027,0.003c0.002,0.003,0.003,0.006,0.004,0.009L23.274,7.565z"
				/>
		</g>
		<g>
			<path fill="#FFFFFF" d="M27.554,10.506c-0.001-0.002,0.007,0.048,0.004,0.116c-0.011,0.059-0.001,0.171-0.035,0.255
				c-0.036,0.081-0.048,0.208-0.114,0.284c-0.063,0.08-0.129,0.165-0.196,0.25c-0.094,0.053-0.188,0.107-0.276,0.157
				c-0.087,0.052-0.213,0.048-0.298,0.071c-0.088,0.021-0.197-0.004-0.257-0.002c-0.067-0.007-0.115-0.022-0.114-0.02l-0.027-0.008
				c-0.011-0.003-0.017-0.014-0.014-0.024c0.001-0.003,0.003-0.006,0.006-0.009c0,0,0.313-0.288,0.625-0.576
				c0.33-0.268,0.661-0.535,0.661-0.535c0.008-0.007,0.021-0.005,0.027,0.003c0.002,0.003,0.003,0.006,0.004,0.009L27.554,10.506z"
				/>
		</g>
		<g>
			<path fill="#FFFFFF" d="M31.577,9.908c-0.001-0.002,0.007,0.048,0.004,0.116c-0.011,0.059-0.001,0.171-0.035,0.255
				c-0.036,0.081-0.048,0.208-0.114,0.284c-0.063,0.08-0.129,0.165-0.196,0.25c-0.094,0.053-0.188,0.107-0.276,0.157
				c-0.087,0.052-0.213,0.048-0.298,0.071c-0.088,0.021-0.197-0.004-0.257-0.002c-0.067-0.007-0.115-0.022-0.114-0.02l-0.027-0.008
				c-0.011-0.003-0.017-0.014-0.014-0.024c0.001-0.003,0.003-0.006,0.006-0.009c0,0,0.313-0.288,0.625-0.576
				c0.33-0.268,0.661-0.535,0.661-0.535c0.008-0.007,0.021-0.005,0.027,0.003c0.002,0.003,0.003,0.006,0.004,0.009L31.577,9.908z"/>
		</g>
		<g>
			<path fill="#FFFFFF" d="M19.751,3.741c-0.001-0.002,0.007,0.048,0.004,0.116c-0.011,0.059-0.001,0.171-0.035,0.255
				c-0.036,0.081-0.049,0.208-0.114,0.284c-0.063,0.08-0.129,0.165-0.196,0.25c-0.094,0.053-0.188,0.107-0.276,0.157
				c-0.087,0.052-0.213,0.048-0.298,0.071c-0.088,0.021-0.197-0.004-0.257-0.002c-0.067-0.006-0.115-0.022-0.114-0.02l-0.027-0.008
				c-0.011-0.003-0.017-0.014-0.014-0.024c0.001-0.003,0.003-0.006,0.006-0.009c0,0,0.313-0.288,0.625-0.576
				C19.386,3.967,19.716,3.7,19.716,3.7c0.008-0.007,0.021-0.005,0.027,0.003c0.002,0.003,0.003,0.006,0.004,0.009L19.751,3.741z"/>
		</g>
		<g>
			<path fill="#FFFFFF" d="M15.005,4.506c-0.001-0.002,0.007,0.048,0.003,0.116c-0.011,0.059-0.001,0.171-0.035,0.255
				c-0.036,0.081-0.049,0.208-0.114,0.284c-0.063,0.08-0.13,0.165-0.197,0.25c-0.094,0.054-0.188,0.107-0.276,0.157
				C14.3,5.62,14.173,5.616,14.088,5.639C14,5.659,13.891,5.634,13.832,5.636c-0.067-0.006-0.115-0.022-0.114-0.02L13.69,5.608
				c-0.011-0.003-0.017-0.014-0.014-0.024c0.001-0.003,0.003-0.006,0.006-0.009c0,0,0.313-0.288,0.625-0.576
				c0.331-0.268,0.662-0.535,0.662-0.535c0.008-0.007,0.021-0.005,0.027,0.003C14.999,4.471,15,4.474,15.001,4.477L15.005,4.506z"/>
		</g>
		<g>
			<path fill="#FFFFFF" d="M21.037,5.035c-0.001-0.002,0.007,0.048,0.004,0.116c-0.011,0.059-0.001,0.171-0.035,0.255
				c-0.036,0.081-0.048,0.208-0.114,0.284c-0.063,0.08-0.129,0.165-0.196,0.25c-0.094,0.053-0.188,0.107-0.276,0.157
				c-0.087,0.052-0.213,0.048-0.298,0.071c-0.088,0.021-0.197-0.004-0.257-0.002c-0.067-0.006-0.115-0.022-0.114-0.02l-0.027-0.008
				c-0.011-0.003-0.017-0.014-0.014-0.024c0.001-0.003,0.003-0.006,0.006-0.009c0,0,0.313-0.288,0.625-0.576
				c0.33-0.268,0.661-0.535,0.661-0.535c0.008-0.007,0.021-0.005,0.027,0.003C21.031,5,21.033,5.003,21.033,5.006L21.037,5.035z"/>
		</g>
		<g>
			<path fill="#FFFFFF" d="M16.928,9.77c-0.002,0.001,0.048-0.006,0.116-0.001c0.059,0.012,0.171,0.005,0.254,0.04
				c0.08,0.037,0.207,0.053,0.282,0.12c0.078,0.064,0.162,0.133,0.246,0.202c0.051,0.095,0.103,0.19,0.151,0.28
				c0.05,0.088,0.043,0.214,0.064,0.3c0.019,0.088-0.009,0.197-0.008,0.256c-0.008,0.067-0.024,0.115-0.022,0.113l-0.009,0.027
				c-0.003,0.01-0.014,0.016-0.024,0.013c-0.003-0.001-0.006-0.003-0.009-0.006c0,0-0.281-0.319-0.562-0.638
				c-0.26-0.336-0.52-0.673-0.52-0.673c-0.006-0.008-0.005-0.021,0.003-0.027c0.003-0.002,0.006-0.003,0.01-0.004L16.928,9.77z"/>
		</g>
		<g>
			<path fill="#FFFFFF" d="M23.945,12.878c0.001,0.002-0.007-0.048-0.004-0.115c0.011-0.059,0.001-0.172,0.035-0.255
				c0.036-0.081,0.049-0.208,0.114-0.284c0.063-0.08,0.129-0.165,0.197-0.25c0.094-0.053,0.188-0.107,0.276-0.157
				c0.087-0.052,0.213-0.048,0.298-0.071c0.088-0.021,0.197,0.004,0.257,0.002c0.067,0.006,0.115,0.022,0.114,0.02l0.027,0.008
				c0.011,0.003,0.017,0.014,0.014,0.024c-0.001,0.003-0.003,0.006-0.006,0.009c0,0-0.313,0.288-0.625,0.576
				c-0.331,0.268-0.661,0.534-0.661,0.534c-0.008,0.008-0.021,0.006-0.027-0.002c-0.002-0.004-0.003-0.006-0.004-0.01L23.945,12.878
				z"/>
		</g>
		<g>
			<path fill="#FFFFFF" d="M22.749,9.852c0.001,0.002-0.007-0.048-0.004-0.116c0.011-0.059,0.001-0.171,0.035-0.255
				c0.036-0.081,0.048-0.208,0.114-0.284c0.063-0.08,0.129-0.165,0.196-0.25c0.094-0.053,0.188-0.107,0.276-0.157
				c0.087-0.052,0.213-0.048,0.298-0.071c0.088-0.021,0.197,0.004,0.257,0.002c0.067,0.006,0.115,0.022,0.114,0.02l0.027,0.008
				c0.011,0.003,0.017,0.014,0.014,0.024c-0.001,0.003-0.003,0.006-0.006,0.009c0,0-0.313,0.288-0.625,0.576
				c-0.33,0.268-0.661,0.535-0.661,0.535c-0.008,0.007-0.021,0.005-0.027-0.003c-0.002-0.003-0.003-0.006-0.004-0.009L22.749,9.852z
				"/>
		</g>
		<g>
			<path fill="#FFFFFF" d="M28.975,9.257c-0.001,0.002,0.038-0.031,0.097-0.063c0.056-0.021,0.147-0.088,0.236-0.103
				c0.087-0.011,0.203-0.066,0.302-0.05c0.101,0.012,0.208,0.025,0.315,0.039c0.095,0.053,0.189,0.105,0.278,0.155
				c0.089,0.047,0.151,0.157,0.215,0.218c0.063,0.064,0.098,0.171,0.131,0.221c0.029,0.061,0.041,0.11,0.042,0.107l0.008,0.028
				c0.002,0.01-0.003,0.021-0.014,0.024c-0.003,0.001-0.007,0.001-0.01,0c0,0-0.408-0.118-0.816-0.236
				c-0.4-0.144-0.799-0.288-0.799-0.288c-0.01-0.004-0.016-0.015-0.012-0.025c0.001-0.003,0.003-0.006,0.006-0.008L28.975,9.257z"/>
		</g>
		<g>
			<path fill="#FFFFFF" d="M27.752,9.103c0.001,0.002-0.007-0.048-0.004-0.116c0.011-0.059,0.001-0.171,0.035-0.255
				c0.036-0.081,0.048-0.208,0.114-0.284c0.063-0.08,0.129-0.165,0.196-0.25c0.094-0.053,0.188-0.107,0.276-0.157
				c0.087-0.052,0.213-0.048,0.298-0.071c0.088-0.021,0.197,0.004,0.257,0.002c0.067,0.007,0.115,0.022,0.114,0.02L29.065,8
				c0.011,0.003,0.017,0.014,0.014,0.024c-0.001,0.003-0.003,0.006-0.006,0.009c0,0-0.313,0.288-0.625,0.576
				c-0.33,0.268-0.661,0.535-0.661,0.535c-0.008,0.007-0.021,0.005-0.027-0.003c-0.002-0.003-0.003-0.006-0.004-0.009L27.752,9.103z
				"/>
		</g>
		<g>
			<path fill="#FFFFFF" d="M20.875,8.386c0.001,0.002-0.007-0.048-0.004-0.116c0.011-0.059,0.001-0.171,0.035-0.255
				c0.036-0.081,0.049-0.208,0.114-0.284c0.063-0.08,0.129-0.165,0.196-0.25c0.094-0.053,0.188-0.107,0.276-0.157
				c0.087-0.052,0.213-0.048,0.298-0.071c0.088-0.021,0.197,0.004,0.257,0.002c0.067,0.006,0.115,0.022,0.114,0.02l0.027,0.008
				c0.011,0.003,0.017,0.014,0.014,0.024c-0.001,0.003-0.003,0.006-0.006,0.009c0,0-0.313,0.288-0.625,0.576
				C21.24,8.16,20.91,8.427,20.91,8.427c-0.008,0.007-0.021,0.005-0.027-0.003c-0.002-0.003-0.003-0.006-0.004-0.009L20.875,8.386z"
				/>
		</g>
		<g>
			<path fill="#FFFFFF" d="M14.913,9.312c0.001,0.002-0.007-0.048-0.004-0.116c0.011-0.059,0.001-0.171,0.035-0.255
				c0.036-0.081,0.049-0.208,0.114-0.284c0.063-0.08,0.129-0.165,0.196-0.25c0.094-0.053,0.188-0.107,0.276-0.157
				c0.087-0.052,0.213-0.048,0.298-0.071c0.088-0.021,0.197,0.004,0.257,0.002c0.067,0.006,0.115,0.022,0.114,0.02l0.027,0.008
				c0.011,0.003,0.017,0.014,0.014,0.024c-0.001,0.003-0.003,0.006-0.006,0.009c0,0-0.313,0.288-0.625,0.576
				c-0.331,0.268-0.661,0.535-0.661,0.535c-0.008,0.007-0.021,0.005-0.027-0.003c-0.002-0.003-0.003-0.006-0.004-0.009L14.913,9.312
				z"/>
		</g>
		<g>
			<path fill="#FFFFFF" d="M21.196,4.663c-0.002,0.001,0.048-0.006,0.116-0.001c0.059,0.012,0.171,0.005,0.254,0.04
				c0.08,0.038,0.207,0.053,0.282,0.121c0.078,0.064,0.162,0.133,0.246,0.202c0.051,0.095,0.103,0.19,0.151,0.28
				c0.05,0.088,0.043,0.214,0.064,0.299c0.019,0.088-0.009,0.197-0.008,0.257c-0.008,0.067-0.024,0.115-0.022,0.113l-0.009,0.027
				c-0.003,0.01-0.014,0.016-0.024,0.013c-0.003-0.001-0.006-0.003-0.009-0.006c0,0-0.281-0.319-0.562-0.638
				c-0.26-0.336-0.52-0.673-0.52-0.673c-0.006-0.008-0.005-0.021,0.003-0.027c0.003-0.002,0.006-0.003,0.01-0.004L21.196,4.663z"/>
		</g>
		<g>
			<path fill="#FFFFFF" d="M24.537,10.493c0.001,0.002-0.007-0.048-0.004-0.116c0.011-0.059,0.001-0.171,0.035-0.255
				c0.036-0.081,0.048-0.208,0.114-0.284c0.063-0.08,0.129-0.165,0.196-0.25c0.094-0.053,0.188-0.107,0.276-0.157
				c0.087-0.052,0.213-0.048,0.298-0.071c0.088-0.021,0.197,0.004,0.257,0.002c0.067,0.007,0.115,0.022,0.114,0.02L25.85,9.39
				c0.011,0.003,0.017,0.014,0.014,0.024c-0.001,0.003-0.003,0.006-0.006,0.009c0,0-0.313,0.288-0.625,0.576
				c-0.33,0.268-0.661,0.535-0.661,0.535c-0.008,0.007-0.021,0.005-0.027-0.003c-0.002-0.003-0.003-0.006-0.004-0.009L24.537,10.493
				z"/>
		</g>
		<g>
			<path fill="#FFFFFF" d="M27.017,4.745c0.001,0.002-0.007-0.048-0.004-0.116c0.011-0.059,0.001-0.171,0.035-0.255
				c0.036-0.081,0.048-0.208,0.114-0.284c0.063-0.08,0.129-0.165,0.196-0.25c0.094-0.054,0.188-0.107,0.276-0.157
				c0.087-0.052,0.213-0.048,0.298-0.071c0.088-0.021,0.197,0.004,0.257,0.002c0.067,0.007,0.115,0.022,0.114,0.02l0.027,0.008
				c0.011,0.003,0.017,0.014,0.014,0.024c-0.001,0.003-0.003,0.006-0.006,0.009c0,0-0.313,0.288-0.625,0.576
				c-0.33,0.267-0.661,0.535-0.661,0.535c-0.008,0.007-0.021,0.005-0.027-0.003c-0.002-0.003-0.003-0.006-0.004-0.009L27.017,4.745z
				"/>
		</g>
		<g>
			<path fill="#FFFFFF" d="M32.917,6.833c-0.001,0.002,0.038-0.031,0.097-0.063c0.056-0.021,0.147-0.088,0.236-0.103
				c0.087-0.011,0.203-0.066,0.302-0.05c0.101,0.012,0.208,0.025,0.315,0.039c0.095,0.053,0.189,0.105,0.278,0.155
				c0.089,0.047,0.151,0.157,0.215,0.218c0.063,0.064,0.098,0.171,0.13,0.221c0.029,0.061,0.041,0.11,0.042,0.107l0.008,0.028
				c0.002,0.01-0.003,0.021-0.014,0.024c-0.004,0.001-0.007,0.001-0.011,0c0,0-0.408-0.118-0.816-0.236
				c-0.4-0.144-0.8-0.288-0.8-0.288c-0.01-0.004-0.016-0.015-0.012-0.025c0.001-0.003,0.003-0.006,0.006-0.008L32.917,6.833z"/>
		</g>
		<g>
			<path fill="#FFFFFF" d="M32.792,4.994c0.001,0.002-0.007-0.048-0.004-0.116c0.011-0.059,0.001-0.171,0.035-0.255
				c0.036-0.081,0.048-0.208,0.114-0.284c0.063-0.08,0.129-0.165,0.196-0.25c0.094-0.053,0.188-0.107,0.276-0.157
				c0.087-0.052,0.213-0.048,0.298-0.071c0.088-0.021,0.197,0.004,0.257,0.002c0.067,0.006,0.115,0.022,0.114,0.02l0.027,0.008
				c0.011,0.003,0.017,0.014,0.014,0.024c-0.001,0.003-0.003,0.006-0.006,0.009c0,0-0.313,0.288-0.625,0.576
				c-0.33,0.268-0.661,0.535-0.661,0.535c-0.008,0.007-0.021,0.005-0.027-0.003c-0.002-0.003-0.003-0.006-0.004-0.009L32.792,4.994z
				"/>
		</g>
		<g>
			<path fill="#FFFFFF" d="M24.5,4.205c0.001,0.002-0.007-0.048-0.004-0.116c0.011-0.059,0.001-0.171,0.035-0.255
				c0.036-0.081,0.049-0.208,0.114-0.284c0.063-0.08,0.129-0.165,0.197-0.25c0.094-0.053,0.188-0.107,0.276-0.157
				c0.087-0.052,0.213-0.048,0.298-0.071c0.088-0.021,0.197,0.004,0.257,0.002c0.067,0.006,0.115,0.022,0.114,0.02l0.027,0.008
				c0.011,0.003,0.017,0.014,0.014,0.024c-0.001,0.003-0.003,0.006-0.006,0.009c0,0-0.313,0.288-0.625,0.576
				c-0.331,0.268-0.661,0.535-0.661,0.535c-0.008,0.007-0.021,0.005-0.027-0.003c-0.002-0.003-0.003-0.006-0.004-0.009L24.5,4.205z"
				/>
		</g>
		<g>
			<path fill="#FFFFFF" d="M12.838,9.423c0.001,0.002-0.007-0.048-0.004-0.116c0.011-0.059,0.001-0.171,0.035-0.255
				c0.036-0.081,0.049-0.208,0.114-0.284c0.063-0.08,0.129-0.165,0.196-0.25c0.094-0.053,0.188-0.107,0.276-0.157
				c0.087-0.052,0.213-0.048,0.298-0.071c0.088-0.021,0.197,0.004,0.257,0.002c0.067,0.006,0.115,0.022,0.114,0.02l0.027,0.008
				c0.011,0.003,0.017,0.014,0.014,0.024c-0.001,0.003-0.003,0.006-0.006,0.009c0,0-0.313,0.288-0.625,0.576
				c-0.331,0.268-0.661,0.535-0.661,0.535c-0.008,0.007-0.021,0.005-0.027-0.003c-0.002-0.003-0.003-0.006-0.004-0.009L12.838,9.423
				z"/>
		</g>
		<g>
			<path fill="#FFFFFF" d="M31.696,7.595c0.001,0.002-0.007-0.048-0.004-0.116c0.011-0.059,0.001-0.171,0.035-0.255
				c0.036-0.081,0.049-0.208,0.114-0.284c0.063-0.08,0.129-0.165,0.196-0.25c0.094-0.054,0.188-0.107,0.276-0.158
				c0.087-0.052,0.213-0.048,0.298-0.071c0.088-0.021,0.197,0.004,0.257,0.002c0.067,0.007,0.115,0.022,0.114,0.02l0.027,0.008
				c0.011,0.003,0.017,0.014,0.014,0.024c-0.001,0.003-0.003,0.006-0.006,0.009c0,0-0.313,0.288-0.625,0.576
				c-0.331,0.267-0.661,0.535-0.661,0.535c-0.008,0.007-0.021,0.005-0.027-0.003C31.702,7.63,31.701,7.627,31.7,7.624L31.696,7.595z
				"/>
		</g>
		<g>
			<path fill="#FFFFFF" d="M36.311,8.188c0.002,0.002-0.007-0.048-0.004-0.116c0.011-0.059,0.001-0.171,0.035-0.255
				c0.035-0.081,0.048-0.208,0.113-0.284c0.063-0.08,0.13-0.165,0.196-0.25c0.095-0.053,0.188-0.107,0.276-0.157
				c0.087-0.052,0.213-0.048,0.299-0.071c0.087-0.021,0.196,0.004,0.256,0.002c0.067,0.006,0.116,0.022,0.114,0.02l0.027,0.008
				c0.011,0.003,0.017,0.014,0.014,0.024c-0.001,0.003-0.003,0.006-0.006,0.009c0,0-0.313,0.288-0.625,0.576
				c-0.33,0.268-0.661,0.535-0.661,0.535c-0.008,0.007-0.021,0.005-0.027-0.003c-0.002-0.003-0.004-0.006-0.004-0.009L36.311,8.188z
				"/>
		</g>
		<g>
			<path fill="#FFFFFF" d="M32.311,10.17c0.001,0.002-0.007-0.048-0.004-0.116c0.011-0.059,0.001-0.171,0.035-0.255
				c0.036-0.081,0.048-0.208,0.114-0.284c0.063-0.08,0.129-0.165,0.196-0.25c0.094-0.053,0.188-0.107,0.276-0.157
				c0.087-0.052,0.213-0.048,0.298-0.071c0.088-0.021,0.197,0.004,0.257,0.002c0.067,0.007,0.115,0.022,0.114,0.02l0.027,0.008
				c0.011,0.003,0.017,0.014,0.014,0.024c-0.001,0.003-0.003,0.006-0.006,0.009c0,0-0.313,0.288-0.625,0.576
				c-0.33,0.268-0.661,0.535-0.661,0.535c-0.008,0.007-0.021,0.005-0.027-0.003c-0.002-0.003-0.003-0.006-0.004-0.009L32.311,10.17z
				"/>
		</g>
		<g>
			<path fill="#FFFFFF" d="M37.608,10.426c0.002-0.001-0.049,0.006-0.116,0.001c-0.059-0.012-0.172-0.005-0.254-0.04
				c-0.08-0.038-0.207-0.053-0.282-0.121c-0.078-0.064-0.161-0.133-0.245-0.202c-0.052-0.095-0.103-0.19-0.151-0.28
				c-0.05-0.088-0.043-0.214-0.064-0.3c-0.019-0.088,0.009-0.197,0.008-0.257c0.009-0.067,0.025-0.115,0.023-0.113l0.008-0.027
				c0.004-0.01,0.015-0.016,0.024-0.013c0.004,0.001,0.007,0.003,0.009,0.006c0,0,0.281,0.319,0.563,0.638
				c0.26,0.336,0.52,0.673,0.52,0.673c0.007,0.008,0.006,0.021-0.003,0.027c-0.003,0.002-0.007,0.003-0.01,0.004L37.608,10.426z"/>
		</g>
		<g>
			<path fill="#FFFFFF" d="M37.491,3.934c-0.002-0.002,0.007,0.048,0.004,0.116c-0.011,0.059-0.001,0.171-0.035,0.255
				c-0.035,0.081-0.048,0.208-0.113,0.284c-0.063,0.08-0.13,0.165-0.196,0.25c-0.095,0.053-0.188,0.107-0.276,0.157
				c-0.087,0.052-0.213,0.048-0.299,0.071c-0.087,0.021-0.196-0.004-0.256-0.002c-0.067-0.007-0.116-0.022-0.114-0.02l-0.027-0.008
				c-0.011-0.003-0.017-0.014-0.014-0.024c0.001-0.003,0.003-0.006,0.006-0.009c0,0,0.313-0.288,0.625-0.576
				c0.331-0.268,0.661-0.535,0.661-0.535c0.008-0.007,0.021-0.005,0.027,0.003c0.002,0.003,0.004,0.006,0.004,0.009L37.491,3.934z"
				/>
		</g>
		<g>
			<path fill="#FFFFFF" d="M38.052,9.848c-0.002-0.002,0.007,0.048,0.004,0.116c-0.011,0.059-0.001,0.171-0.035,0.255
				c-0.035,0.081-0.048,0.208-0.113,0.284c-0.063,0.08-0.13,0.165-0.196,0.25c-0.095,0.053-0.188,0.107-0.276,0.157
				c-0.087,0.052-0.213,0.048-0.299,0.071c-0.087,0.021-0.196-0.004-0.256-0.002c-0.067-0.007-0.116-0.022-0.114-0.02l-0.027-0.008
				c-0.011-0.003-0.017-0.014-0.014-0.024c0.001-0.003,0.003-0.006,0.006-0.009c0,0,0.313-0.288,0.625-0.576
				c0.331-0.268,0.661-0.535,0.661-0.535c0.008-0.007,0.021-0.005,0.027,0.003c0.002,0.003,0.004,0.006,0.004,0.009L38.052,9.848z"
				/>
		</g>
		<g>
			<path fill="#FFFFFF" d="M36.706,6.658c-0.002-0.002,0.007,0.048,0.004,0.116c-0.011,0.059-0.001,0.171-0.035,0.255
				c-0.035,0.081-0.048,0.208-0.113,0.284c-0.063,0.08-0.13,0.165-0.196,0.25c-0.095,0.053-0.188,0.107-0.276,0.157
				c-0.087,0.052-0.213,0.048-0.299,0.071c-0.087,0.021-0.196-0.004-0.256-0.002c-0.067-0.006-0.116-0.022-0.114-0.02l-0.027-0.008
				c-0.011-0.003-0.017-0.014-0.014-0.024c0.001-0.003,0.003-0.006,0.006-0.009c0,0,0.313-0.288,0.625-0.576
				c0.331-0.268,0.661-0.535,0.661-0.535c0.008-0.007,0.021-0.005,0.027,0.003c0.002,0.003,0.004,0.006,0.004,0.009L36.706,6.658z"
				/>
		</g>
		<g>
			<path fill="#FFFFFF" d="M30.806,4.57c0.001-0.002-0.038,0.031-0.097,0.063c-0.056,0.021-0.147,0.088-0.236,0.103
				c-0.087,0.011-0.203,0.066-0.302,0.05c-0.101-0.012-0.208-0.025-0.315-0.039c-0.095-0.053-0.189-0.105-0.278-0.155
				c-0.089-0.047-0.151-0.157-0.215-0.218c-0.063-0.064-0.098-0.171-0.131-0.221c-0.029-0.061-0.041-0.11-0.042-0.107l-0.008-0.028
				c-0.002-0.01,0.003-0.021,0.014-0.024c0.003-0.001,0.007-0.001,0.01,0c0,0,0.408,0.118,0.816,0.236
				c0.4,0.144,0.799,0.288,0.799,0.288c0.01,0.003,0.016,0.015,0.012,0.025c-0.001,0.003-0.003,0.006-0.006,0.009L30.806,4.57z"/>
		</g>
		<g>
			<path fill="#FFFFFF" d="M27.554,9.046c-0.001-0.002,0.007,0.048,0.004,0.116c-0.011,0.059-0.001,0.171-0.035,0.255
				c-0.036,0.081-0.048,0.208-0.114,0.284c-0.063,0.08-0.129,0.165-0.196,0.25c-0.094,0.053-0.188,0.107-0.276,0.157
				c-0.087,0.052-0.213,0.048-0.298,0.071c-0.088,0.021-0.197-0.004-0.257-0.002c-0.067-0.006-0.115-0.022-0.114-0.02l-0.027-0.008
				c-0.011-0.003-0.017-0.014-0.014-0.024c0.001-0.003,0.003-0.006,0.006-0.009c0,0,0.313-0.288,0.625-0.576
				c0.33-0.268,0.661-0.535,0.661-0.535C27.527,8.998,27.54,9,27.546,9.008c0.002,0.003,0.003,0.006,0.004,0.009L27.554,9.046z"/>
		</g>
		<g>
			<path fill="#FFFFFF" d="M33.661,11.81c-0.001-0.002,0.007,0.048,0.004,0.116c-0.011,0.059-0.001,0.171-0.035,0.255
				c-0.036,0.081-0.049,0.208-0.114,0.284c-0.063,0.08-0.129,0.164-0.196,0.25c-0.094,0.053-0.188,0.107-0.276,0.157
				c-0.087,0.052-0.213,0.048-0.298,0.071c-0.088,0.02-0.197-0.005-0.257-0.003c-0.067-0.007-0.115-0.022-0.114-0.021l-0.027-0.008
				c-0.011-0.002-0.017-0.014-0.014-0.023c0.001-0.004,0.003-0.007,0.006-0.01c0,0,0.313-0.287,0.625-0.575
				c0.331-0.268,0.661-0.535,0.661-0.535c0.008-0.007,0.021-0.005,0.027,0.003c0.002,0.003,0.003,0.006,0.004,0.009L33.661,11.81z"
				/>
		</g>
		<g>
			<path fill="#FFFFFF" d="M35.327,8.491c-0.002-0.002,0.007,0.048,0.004,0.116c-0.011,0.059-0.001,0.171-0.034,0.255
				c-0.036,0.081-0.049,0.208-0.114,0.284c-0.063,0.08-0.129,0.165-0.196,0.25c-0.094,0.054-0.188,0.107-0.276,0.158
				c-0.087,0.052-0.213,0.048-0.298,0.071c-0.087,0.021-0.197-0.004-0.256-0.002c-0.067-0.007-0.115-0.022-0.114-0.02l-0.027-0.008
				c-0.011-0.003-0.017-0.014-0.014-0.024c0.001-0.003,0.003-0.006,0.006-0.009c0,0,0.312-0.288,0.625-0.576
				c0.331-0.268,0.661-0.535,0.661-0.535c0.008-0.007,0.021-0.005,0.027,0.003c0.002,0.003,0.004,0.006,0.004,0.009L35.327,8.491z"
				/>
		</g>
		<g>
			<path fill="#FFFFFF" d="M25.625,4.667c-0.001-0.002,0.007,0.048,0.004,0.116c-0.011,0.059-0.001,0.171-0.035,0.255
				c-0.036,0.081-0.049,0.208-0.114,0.284c-0.063,0.08-0.129,0.165-0.196,0.25c-0.094,0.053-0.188,0.107-0.276,0.157
				C24.921,5.781,24.795,5.777,24.71,5.8c-0.088,0.021-0.197-0.004-0.257-0.002c-0.067-0.006-0.115-0.022-0.114-0.02L24.312,5.77
				c-0.011-0.003-0.017-0.014-0.014-0.024c0.001-0.003,0.003-0.006,0.006-0.009c0,0,0.313-0.288,0.625-0.576
				c0.331-0.268,0.661-0.535,0.661-0.535c0.008-0.007,0.021-0.005,0.027,0.003c0.002,0.003,0.003,0.006,0.004,0.009L25.625,4.667z"
				/>
		</g>
		<g>
			<path fill="#FFFFFF" d="M21.037,6.525c-0.001-0.002,0.007,0.048,0.004,0.116c-0.011,0.059-0.001,0.171-0.035,0.255
				c-0.036,0.081-0.048,0.208-0.114,0.284c-0.063,0.08-0.129,0.165-0.196,0.25c-0.094,0.054-0.188,0.107-0.276,0.157
				c-0.087,0.052-0.213,0.048-0.298,0.071c-0.088,0.021-0.197-0.004-0.257-0.002c-0.067-0.007-0.115-0.022-0.114-0.02l-0.027-0.008
				c-0.011-0.003-0.017-0.014-0.014-0.024c0.001-0.003,0.003-0.006,0.006-0.009c0,0,0.313-0.288,0.625-0.576
				c0.33-0.267,0.661-0.535,0.661-0.535c0.008-0.007,0.021-0.005,0.027,0.003c0.002,0.003,0.003,0.006,0.004,0.009L21.037,6.525z"/>
		</g>
		<g>
			<path fill="#FFFFFF" d="M27.143,6.339c-0.001-0.002,0.007,0.048,0.004,0.116c-0.011,0.059-0.001,0.171-0.035,0.254
				c-0.035,0.081-0.048,0.208-0.114,0.285c-0.063,0.08-0.129,0.165-0.196,0.25c-0.094,0.054-0.188,0.107-0.276,0.158
				c-0.087,0.052-0.213,0.048-0.298,0.071c-0.088,0.021-0.197-0.004-0.257-0.002c-0.067-0.006-0.115-0.022-0.114-0.02l-0.027-0.008
				c-0.011-0.003-0.017-0.014-0.014-0.024c0.001-0.003,0.003-0.006,0.006-0.009c0,0,0.312-0.288,0.625-0.576
				c0.33-0.268,0.661-0.535,0.661-0.535c0.008-0.007,0.021-0.005,0.027,0.003c0.002,0.003,0.003,0.006,0.004,0.009L27.143,6.339z"/>
		</g>
	</g>
</g>
</svg>
