<?xml version="1.0" encoding="utf-8"?>
<!-- Generator: Adobe Illustrator 16.0.0, SVG Export Plug-In . SVG Version: 6.00 Build 0)  -->
<!DOCTYPE svg PUBLIC "-//W3C//DTD SVG 1.1//EN" "http://www.w3.org/Graphics/SVG/1.1/DTD/svg11.dtd">
<svg version="1.1" id="Layer_1" xmlns="http://www.w3.org/2000/svg" xmlns:xlink="http://www.w3.org/1999/xlink" x="0px" y="0px"
	 width="60.409px" height="69.642px" viewBox="0 0 60.409 69.642" enable-background="new 0 0 60.409 69.642" xml:space="preserve">
<g>
	<g>
		<g>
			<g>
				<path fill="#FFFFFF" d="M25.86,37.269c0.052,1.119-1.014,2.281-1.535,3.215c-0.717,1.281-1.408,2.428-1.848,3.83
					c-0.703,2.215-0.703,4.73-0.6,7.08c0.172,4.16,2.188,9.98,5.631,12.568c2.015,1.521,4.723,2.438,7.154,2.973
					c2.228,0.494,4.474,0.473,6.574,1.574c1.151,0.609,1.514,1.365,2.105-0.377c0.324-0.982,0.467-2.537,0.573-3.566
					c0.202-1.887,0.044-3.885,0.069-5.785c0.068-5.512-0.723-9.764-4.045-14.277c-1.987-2.701-4.725-5.061-7.293-7.248
					c-1.695-1.445-3.925-2.527-4.512-4.732c-0.41,1.334-2.201,3.604-2.006,4.885"/>
				<path fill="#90298D" d="M25.95,37.275c0.049,0.443-0.082,0.973-0.263,1.402c-0.192,0.438-0.431,0.844-0.659,1.242
					c-0.447,0.764-0.814,1.633-1.211,2.438c-0.371,0.813-0.699,1.658-0.863,2.475l-0.268,1.352l-0.094,1.291
					c-0.055,0.416-0.023,0.881-0.033,1.324c-0.002,0.445-0.006,0.891,0.027,1.346l0.066,1.32l0.142,1.371
					c0.278,1.701,0.75,3.422,1.368,5.082c0.678,1.627,1.463,3.221,2.574,4.574l0.92,0.918l0.115,0.115l0.029,0.029
					c0.031,0.023-0.029-0.016-0.016-0.008l0.018,0.012l0.07,0.051l0.283,0.197l0.564,0.395l0.566,0.395
					c0.189,0.123,0.389,0.205,0.584,0.311l1.187,0.6c1.683,0.662,3.427,1.199,5.237,1.443c1.797,0.268,3.709,0.461,5.433,1.389
					l0.597,0.342c0.196,0.111,0.294,0.092,0.219,0.088c0.056-0.025,0.32-0.602,0.354-0.922l0.226-1.361
					c0.08-0.455,0.073-0.889,0.115-1.332l0.042-0.623l-0.005-0.689l0.01-1.379c0.027-0.922-0.041-1.828-0.067-2.74l-0.081-2.729
					c-0.067-0.898-0.092-1.771-0.238-2.65c-0.201-1.768-0.688-3.461-1.352-5.068c-0.62-1.615-1.615-3.133-2.606-4.514
					c-1.146-1.49-2.309-2.74-3.593-4.012c-1.288-1.252-2.647-2.541-4.022-3.674c-0.677-0.561-1.444-1.145-2.115-1.857
					c-0.673-0.705-1.253-1.586-1.489-2.584l0.824,0.016c-0.1,0.221-0.188,0.455-0.301,0.66l-0.346,0.594l-0.71,1.133
					c-0.227,0.377-0.452,0.754-0.634,1.145c-0.109,0.193-0.158,0.395-0.236,0.596c-0.088,0.203-0.061,0.406-0.101,0.619
					l-0.177,0.027c0.002-0.227-0.057-0.48,0.002-0.703c0.049-0.223,0.07-0.467,0.158-0.676c0.14-0.438,0.323-0.852,0.506-1.264
					l0.564-1.211c0.182-0.398,0.336-0.797,0.453-1.172l0.392-1.254l0.435,1.27c0.547,1.602,2.063,2.545,3.609,3.6
					c1.523,1.123,2.9,2.293,4.318,3.523c0.711,0.586,1.391,1.287,2.072,1.953c0.354,0.334,0.662,0.684,0.947,1.037l0.889,1.053
					c1.211,1.547,2.213,3.158,2.922,4.975c0.718,1.791,1.162,3.693,1.328,5.582c0.126,0.938,0.126,1.908,0.164,2.842l-0.028,2.783
					c-0.024,0.924-0.007,1.855-0.083,2.768l-0.087,1.375l-0.053,0.688l-0.112,0.746c-0.082,0.467-0.127,0.955-0.242,1.398
					l-0.337,1.336l-0.042,0.166c-0.047,0.15-0.053,0.141-0.08,0.219c-0.043,0.113-0.097,0.229-0.152,0.346
					c-0.132,0.229-0.217,0.496-0.613,0.742c-0.199,0.119-0.502,0.121-0.659,0.057c-0.181-0.055-0.295-0.129-0.409-0.197
					l-0.572-0.385c-1.478-0.957-3.309-1.248-5.121-1.523c-1.831-0.277-3.628-0.781-5.4-1.359c-0.844-0.398-1.818-0.672-2.572-1.178
					l-0.598-0.342l-0.299-0.172L27.266,64.4l-0.019-0.012l-0.049-0.033l-0.035-0.029l-0.14-0.115l-1.119-0.938
					c-1.345-1.391-2.393-3.023-3.175-4.764c-0.736-1.758-1.239-3.598-1.49-5.533l-0.111-1.373c-0.031-0.531-0.021-0.951-0.026-1.434
					c-0.012-0.463,0.015-0.936,0.039-1.408c0.032-0.475,0.021-0.932,0.104-1.426l0.211-1.447l0.365-1.33
					c0.264-0.973,0.715-1.809,1.181-2.627c0.481-0.807,0.962-1.572,1.538-2.336c0.545-0.742,1.137-1.414,1.231-2.332L25.95,37.275z"
					/>
			</g>
			<g>
				<path fill="#FFFFFF" d="M27.95,33.619c-1.738-0.568-2.078-6.506-2.229-8.178c-0.279-3.16-0.267-6.715-0.001-9.893
					c0.234-2.734,2.039-6.848,3.98-8.869c1.255-1.307,3.07-2.27,4.644-3.07c0.974-0.496,2.411-1.02,2.3-2.337
					c1.086,2.044,2.718,3.662,4.366,5.304c1.489,1.484,2.344,3.201,3.175,5.051c1.455,3.238,1.422,7.506,0.175,10.861
					c-1.347,3.613-2.642,7.014-6.038,9.215c-3.301,2.145-6.795,2.236-10.648,2.188"/>
				<path fill="#90298D" d="M27.908,33.699c-0.367-0.092-0.729-0.459-0.956-0.783c-0.221-0.35-0.4-0.719-0.551-1.094
					c-0.297-0.754-0.519-1.527-0.686-2.307c-0.165-0.779-0.307-1.563-0.414-2.348l-0.151-1.174c-0.023-0.209-0.05-0.354-0.071-0.607
					L25.031,24.8l-0.161-2.344c-0.041-0.785-0.139-1.555-0.108-2.354l0.067-2.395c0.035-0.818,0.049-1.557,0.129-2.436
					c0.09-0.746,0.313-1.604,0.568-2.396c0.268-0.773,0.602-1.514,0.949-2.242c0.377-0.717,0.764-1.424,1.217-2.094
					c0.451-0.67,0.942-1.318,1.52-1.902l0.208-0.223l0.25-0.205l0.454-0.373c0.285-0.262,0.625-0.488,0.973-0.705
					c0.68-0.463,1.367-0.834,2.063-1.215l2.079-1.08c0.676-0.35,1.152-0.904,1.082-1.539L36.176,0l0.753,1.119l0.787,1.169
					c0.257,0.391,0.604,0.727,0.898,1.09c0.615,0.715,1.308,1.367,2.011,2.02C40.985,5.744,41.317,6,41.7,6.419
					c0.327,0.365,0.682,0.66,0.983,1.086c0.296,0.424,0.632,0.848,0.89,1.281c0.246,0.434,0.512,0.865,0.74,1.303
					c0.225,0.459,0.439,0.832,0.671,1.365c0.171,0.461,0.374,0.867,0.52,1.373c0.313,1.029,0.511,2.033,0.604,3.047
					c0.095,1.016,0.101,2.037,0.008,3.055c-0.084,1.016-0.281,2.025-0.582,3.01c-0.305,1.021-0.64,1.865-1.025,2.789
					c-0.188,0.457-0.379,0.912-0.599,1.363c-0.204,0.453-0.425,0.902-0.679,1.344c-0.228,0.449-0.501,0.881-0.801,1.299
					c-0.271,0.434-0.602,0.828-0.941,1.219c-0.664,0.785-1.451,1.482-2.313,2.041l-0.317,0.219c-0.068,0.045-0.07,0.055-0.193,0.129
					l-0.16,0.084l-0.643,0.336c-0.4,0.238-0.916,0.414-1.4,0.596c-0.974,0.355-1.949,0.551-2.938,0.686
					c-0.491,0.076-0.986,0.086-1.477,0.129c-0.492,0.018-0.982,0-1.47,0.002c-0.976-0.033-1.942-0.092-2.906-0.193l0.002-0.18
					c0.965-0.076,1.927-0.143,2.879-0.24c0.95-0.121,1.89-0.256,2.804-0.463c0.906-0.217,1.811-0.502,2.615-0.893
					c0.399-0.201,0.791-0.363,1.207-0.645l0.615-0.383l0.153-0.094c-0.022,0.01,0.069-0.061,0.099-0.086l0.262-0.213
					c0.348-0.287,0.716-0.545,1.008-0.891c0.311-0.322,0.635-0.629,0.889-1.004c0.277-0.354,0.549-0.709,0.768-1.109
					c0.244-0.381,0.467-0.777,0.666-1.193c0.217-0.402,0.41-0.822,0.589-1.254c0.192-0.424,0.362-0.861,0.528-1.303
					c0.322-0.867,0.71-1.816,0.951-2.645c0.273-0.857,0.432-1.754,0.551-2.652c0.113-0.9,0.14-1.814,0.088-2.721
					c-0.051-0.91-0.205-1.809-0.417-2.635c-0.1-0.428-0.308-0.9-0.457-1.35l-0.538-1.262c-0.193-0.43-0.412-0.832-0.615-1.252
					c-0.211-0.41-0.461-0.756-0.688-1.145c-0.231-0.377-0.583-0.754-0.867-1.131c-0.232-0.324-0.626-0.711-0.932-1.063
					c-0.328-0.354-0.646-0.729-0.961-1.105c-0.317-0.373-0.643-0.738-0.924-1.148c-0.281-0.406-0.605-0.777-0.848-1.213
					l-0.742-1.287l0.609-0.18c-0.005,0.46-0.111,0.974-0.441,1.302c-0.293,0.346-0.653,0.584-1.008,0.781
					c-0.72,0.377-1.413,0.688-2.096,1.074c-0.666,0.393-1.364,0.758-1.947,1.227c-0.306,0.217-0.607,0.439-0.885,0.727l-0.424,0.406
					l-0.189,0.188l-0.17,0.225c-0.471,0.582-0.869,1.23-1.228,1.898c-0.361,0.67-0.663,1.369-0.95,2.072l-0.376,1.074l-0.31,1.086
					c-0.19,0.707-0.322,1.379-0.412,2.191c-0.055,0.68-0.055,1.51-0.1,2.256l-0.126,2.301c-0.044,0.766,0.024,1.561,0.017,2.34
					l0.033,2.35l0.001,0.588c-0.003,0.137,0.015,0.383,0.021,0.563l0.056,1.168c0.042,0.773,0.084,1.547,0.166,2.313
					c0.081,0.768,0.164,1.535,0.345,2.275c0.204,0.73,0.381,1.49,1.049,1.893L27.908,33.699z"/>
			</g>
			<g>
				<path fill="#FFFFFF" d="M28.405,35.666c-0.134,1.104-1.321,2.75-1.938,3.717c-0.897,1.418-2.212,2.654-3.168,4.07
					c-1.778,2.637-3.392,5.387-5.063,8.088c-1.48,2.395-2.789,5.322-4.959,7.189c-2.603,2.234-6.187,2.67-9.432,3.443
					c-0.313-1.686,0.286-2.838-0.415-4.654c-0.963-2.494-2.032-5.123-2.479-7.734c-0.77-4.465,0.854-8.773,4.118-11.84
					c3.597-3.375,7.459-7.178,12.684-7.311c3.367-0.082,9.382,1.014,11.278,3.787"/>
				<path fill="#90298D" d="M28.493,35.679c-0.058,0.824-0.428,1.578-0.789,2.283c-0.381,0.717-0.758,1.387-1.168,2.082
					c-0.883,1.391-1.973,2.564-2.746,3.82l-2.444,4.053c-0.812,1.348-1.601,2.709-2.429,4.045l-1.198,2.006
					c-0.413,0.676-0.816,1.367-1.288,2.027c-0.463,0.664-0.961,1.316-1.521,1.926c-0.28,0.303-0.576,0.596-0.888,0.871
					c-0.167,0.137-0.306,0.264-0.494,0.404l-0.484,0.348c-0.717,0.486-1.441,0.834-2.205,1.129
					c-0.762,0.285-1.527,0.531-2.303,0.723c-1.546,0.4-3.105,0.67-4.626,1.049l-0.284,0.07L3.57,62.224
					c-0.218-1.158-0.024-2.309-0.151-3.332c-0.084-0.521-0.238-0.984-0.461-1.492l-0.656-1.531
					c-0.852-2.051-1.749-4.137-2.121-6.436c-0.188-1.131-0.233-2.352-0.115-3.51c0.128-1.172,0.412-2.328,0.839-3.43
					s0.995-2.146,1.678-3.109c0.665-0.953,1.521-1.863,2.329-2.598c1.608-1.523,3.271-3.072,5.203-4.348
					c1.908-1.289,4.156-2.246,6.523-2.469c1.189-0.094,2.341-0.043,3.468,0.125c1.128,0.162,2.239,0.4,3.327,0.723
					c1.088,0.318,2.158,0.725,3.15,1.291c0.983,0.557,1.94,1.27,2.521,2.262l-0.147,0.102c-0.7-0.838-1.656-1.389-2.649-1.799
					c-1.002-0.402-2.05-0.691-3.11-0.906c-1.062-0.211-2.142-0.342-3.218-0.398c-1.076-0.055-2.151-0.068-3.165,0.082
					c-2.058,0.299-3.935,1.285-5.667,2.496c-1.731,1.227-3.309,2.73-4.934,4.229c-0.822,0.764-1.527,1.441-2.16,2.287
					c-0.625,0.824-1.152,1.725-1.557,2.678c-0.404,0.951-0.687,1.955-0.832,2.982c-0.156,1.039-0.184,2.051-0.07,3.113
					c0.248,2.102,0.855,4.221,1.564,6.307l0.539,1.57c0.188,0.521,0.345,1.129,0.388,1.709c0.089,1.184-0.167,2.262,0.034,3.301
					l-0.34-0.221c1.548-0.35,3.097-0.645,4.588-1.102c0.742-0.234,1.476-0.488,2.16-0.834c0.682-0.336,1.351-0.746,1.902-1.199
					l0.445-0.387c0.117-0.105,0.258-0.256,0.387-0.383c0.256-0.271,0.498-0.557,0.728-0.854c0.458-0.598,0.865-1.242,1.248-1.908
					l1.13-2.039c0.363-0.689,0.775-1.395,1.187-2.078c0.819-1.354,1.677-2.682,2.513-4.025l2.654-3.918
					c0.981-1.371,2.166-2.424,3.104-3.611c0.472-0.611,0.965-1.258,1.412-1.883c0.433-0.643,0.883-1.287,1.079-2.031L28.493,35.679z
					"/>
			</g>
			<g>
				<path fill="#FFFFFF" d="M28.093,33.21c0.204,1.637,1.707,3.084,2.543,4.43c0.962,1.539,1.851,3.119,2.951,4.588
					c2.266,3.021,4.837,5.844,8.264,7.361c2.455,1.084,6.062,1.318,8.746,0.828c3.479-0.641,5.838-3.51,8.813-5.164
					c-2.648-2.105-3.788-5.633-6.444-7.818c-2.306-1.895-5.311-3.654-8.259-4.121c-2.701-0.43-5.557-0.26-8.289-0.406
					c-2.407-0.131-5.896-1.377-8.182-0.51"/>
				<path fill="#90298D" d="M28.18,33.191l0.206,0.609l0.28,0.535c0.216,0.354,0.457,0.689,0.719,1.016
					c0.532,0.648,1.127,1.256,1.651,1.998c0.496,0.699,0.971,1.408,1.449,2.117l1.471,2.039c0.48,0.652,1.064,1.34,1.588,1.957
					c0.531,0.635,1.102,1.25,1.69,1.824c0.57,0.6,1.188,1.141,1.813,1.668c0.623,0.529,1.295,0.986,1.971,1.445l1.061,0.611
					c0.323,0.139,0.773,0.361,1.134,0.48c0.737,0.258,1.553,0.486,2.374,0.619c0.82,0.164,1.662,0.219,2.5,0.23
					c0.832,0.021,1.698-0.078,2.484-0.195l1.232-0.346c0.371-0.172,0.746-0.324,1.113-0.504l1.068-0.652l1.016-0.752l1.984-1.617
					l1.028-0.807l1.099-0.75l-0.084,1.016l-0.926-0.771c-0.294-0.273-0.544-0.576-0.818-0.865c-0.514-0.592-0.988-1.213-1.43-1.826
					c-0.459-0.613-0.861-1.234-1.307-1.811c-0.43-0.594-0.896-1.125-1.376-1.629l-0.761-0.688l-0.882-0.666
					c-0.579-0.412-1.179-0.789-1.795-1.172c-1.231-0.742-2.534-1.342-3.864-1.764c-0.33-0.125-0.67-0.174-1.006-0.258l-0.254-0.059
					c-0.002-0.01-0.16-0.023-0.234-0.035l-0.559-0.068c-0.75-0.104-1.491-0.207-2.203-0.234c-0.713-0.059-1.453-0.092-2.211-0.133
					l-2.267-0.145l-0.569-0.045l-0.142-0.012l-0.097-0.01l-0.07-0.012l-0.279-0.043c-0.367-0.053-0.746-0.119-1.135-0.209
					l-2.215-0.504c-0.729-0.15-1.448-0.322-2.178-0.393c-0.732-0.088-1.454-0.047-2.185,0.098l-0.063-0.168
					c0.359-0.113,0.724-0.295,1.105-0.354c0.381-0.045,0.772-0.141,1.156-0.129c0.773-0.033,1.547-0.002,2.302,0.086l2.229,0.254
					c0.352,0.043,0.719,0.068,1.101,0.08l0.282,0.012l0.07,0.004c0,0,0.051,0.004,0.009,0l0.034-0.002l0.141-0.004l0.558-0.01
					c1.491,0.012,2.961-0.092,4.538-0.041c0.793-0.004,1.547,0.045,2.29,0.123l0.562,0.053c0.113,0.014,0.143,0.006,0.324,0.037
					l0.299,0.059c0.396,0.084,0.805,0.137,1.184,0.266c1.561,0.416,2.993,1.123,4.334,1.932c0.666,0.402,1.309,0.873,1.94,1.354
					l0.892,0.727l0.88,0.857c1.093,1.201,1.914,2.521,2.712,3.775c0.395,0.635,0.797,1.238,1.23,1.809
					c0.227,0.271,0.438,0.568,0.679,0.822l0.736,0.752l0.618,0.631l-0.701,0.383l-1.084,0.592l-1.064,0.674L55.437,48.5
					l-1.102,0.693l-1.15,0.625l-1.235,0.52l-1.239,0.328c-0.896,0.17-1.734,0.25-2.61,0.293c-0.434,0.018-0.868,0.043-1.304,0.021
					c-0.436-0.002-0.872-0.006-1.309-0.047c-0.877-0.047-1.738-0.182-2.64-0.398c-0.462-0.107-0.796-0.236-1.272-0.391l-1.227-0.543
					c-0.799-0.406-1.56-0.883-2.271-1.42c-0.707-0.539-1.369-1.135-1.986-1.762c-0.616-0.635-1.191-1.291-1.738-1.98
					c-0.568-0.695-1.051-1.346-1.544-2.096c-0.466-0.736-0.945-1.473-1.378-2.221l-1.232-2.248
					c-0.393-0.701-0.898-1.406-1.334-2.166c-0.219-0.381-0.418-0.775-0.586-1.188c-0.078-0.215-0.137-0.438-0.197-0.652
					l-0.076-0.641L28.18,33.191z"/>
			</g>
			<g>
				<path fill="#FFFFFF" d="M27.549,32.796c-1.327,0.355-2.322,1.398-3.623,1.844c-1.62,0.553-3.224,0.662-4.922,0.639
					c-1.658-0.023-2.932-0.014-4.409-0.832c-1.653-0.908-3.019-2.176-4.238-3.561c-2.609-2.951-5.032-5.951-6.574-9.631
					c-0.629-1.508-1.13-3.053-1.364-4.666c-0.171-1.213,0.188-2.898-0.675-3.895c2.185-2.191,5.956-2.1,8.696-1.256
					c3.249,0.998,7.097,2.51,9.978,4.307c5.98,3.727,7.581,11.346,7.533,17.873"/>
				<path fill="#90298D" d="M27.577,32.882c-0.784,0.316-1.384,0.805-2.074,1.301c-0.652,0.51-1.516,0.943-2.313,1.166
					c-1.675,0.529-3.419,0.6-5.085,0.605c-0.847-0.002-1.766-0.041-2.669-0.314c-0.451-0.15-0.862-0.326-1.294-0.559l-0.539-0.309
					l-0.57-0.369c-0.734-0.492-1.395-1.063-2.013-1.668c-0.62-0.59-1.182-1.273-1.699-1.904c-0.523-0.635-1.03-1.32-1.53-1.994
					c-0.497-0.676-0.974-1.369-1.432-2.074c-0.447-0.715-0.891-1.43-1.278-2.178c-0.414-0.73-0.781-1.488-1.124-2.254
					c-0.359-0.764-0.659-1.545-0.943-2.324c-0.287-0.795-0.52-1.604-0.717-2.424c-0.078-0.42-0.198-0.816-0.239-1.256
					c-0.048-0.447-0.06-0.859-0.083-1.27c-0.041-0.805-0.162-1.602-0.599-2.043l-0.304-0.309l0.326-0.355
					c1.262-1.371,3.127-2.043,4.905-2.16c0.897-0.068,1.796-0.033,2.68,0.092c0.876,0.113,1.78,0.387,2.56,0.625
					c1.631,0.498,3.252,1.068,4.836,1.721c0.797,0.316,1.572,0.693,2.346,1.078c0.776,0.398,1.518,0.799,2.287,1.291
					c0.337,0.223,0.711,0.49,1.082,0.781c0.351,0.283,0.688,0.58,1.014,0.891c0.647,0.623,1.229,1.313,1.734,2.045
					c1.023,1.461,1.766,3.078,2.281,4.738c0.521,1.662,0.8,3.371,0.955,5.072c0.144,1.703,0.121,3.41-0.038,5.096l-0.179-0.002
					c-0.137-1.68-0.35-3.34-0.673-4.969c-0.312-1.629-0.78-3.219-1.384-4.729c-0.608-1.508-1.382-2.934-2.352-4.186
					c-0.49-0.623-1.021-1.205-1.6-1.734c-0.291-0.264-0.592-0.514-0.902-0.75c-0.298-0.219-0.611-0.436-0.984-0.666
					c-0.664-0.387-1.387-0.814-2.109-1.18c-0.729-0.371-1.473-0.719-2.223-1.063c-1.504-0.684-3.039-1.289-4.605-1.83
					C10.21,12.224,9.503,12,8.716,11.841c-0.773-0.16-1.563-0.242-2.346-0.232c-1.553,0.033-3.135,0.393-4.281,1.432l0.023-0.664
					c0.662,0.859,0.637,1.85,0.627,2.67c-0.01,0.42-0.035,0.838-0.021,1.217c0.016,0.389,0.117,0.797,0.17,1.195
					c0.297,1.59,0.867,3.166,1.593,4.625c0.163,0.375,0.386,0.723,0.587,1.078s0.406,0.709,0.645,1.043
					c0.451,0.684,0.954,1.332,1.457,1.975c0.517,0.637,1.045,1.262,1.596,1.869l1.68,1.805c0.564,0.625,1.109,1.18,1.684,1.738
					c0.572,0.547,1.181,1.053,1.805,1.51l0.465,0.32l0.531,0.322c0.297,0.168,0.643,0.33,0.976,0.451
					c0.679,0.24,1.432,0.332,2.239,0.375c1.639,0.096,3.248,0.152,4.799-0.141c0.818-0.154,1.504-0.361,2.241-0.764
					c0.714-0.371,1.513-0.822,2.337-0.953L27.577,32.882z"/>
			</g>
		</g>
		<g>
			<g>
				<path fill="#FAAF42" d="M24.41,31.796c-1.926,0.301-4.164-0.201-6.1-0.469c-2.923-0.408-4.688-1.369-6.952-3.16
					c-2.332-1.852-4.534-3.676-5.975-6.256c-0.803-1.438-2.219-4.402-1.902-6.152c0.211-1.174,1.223-1.455,2.346-1.658
					c1.318-0.238,1.729,0.184,2.68,1.08c2.08,1.963,3.826,3.813,5.498,6.201c2.463,3.512,4.291,7.824,8.18,9.705
					c0.837,0.404,1.72,1.385,2.7,1.035"/>
			</g>
			<g>
				<path fill="#FAAF42" d="M33.815,30.697c-0.029-3.66-2.285-6.754-2.069-10.508c0.126-2.188,1.201-4.777,2.888-6.059
					c1.5-1.143,1.81-7.375,2.22-9.273c3.283,1.188,5.744,14.617,4.815,17.336c-0.809,2.361-1.988,4.469-3.85,6.074
					c-0.932,0.805-3.91,2.098-4.135,3.248"/>
			</g>
			<g>
				<path fill="#FAAF42" d="M34.482,40.326c0,0,0.382,0.135,0.942,0.467c0.279,0.174,0.617,0.365,0.979,0.576
					c0.357,0.223,0.729,0.488,1.165,0.771c0.415,0.301,0.864,0.617,1.31,0.996c0.432,0.4,0.842,0.889,1.302,1.379
					c0.446,0.508,1.007,0.904,1.621,1.209c0.634,0.256,1.31,0.467,2.015,0.48l0.515,0.037l0.128,0.01l0.063,0.004l0.016,0.002
					c0.061,0.012-0.072-0.018-0.056-0.014l0.009-0.002h0.033l0.273-0.016c0.352-0.018,0.738,0.016,1.049-0.006
					c0.301-0.037,0.592-0.057,0.875-0.08c0.309-0.045,0.613-0.09,0.914-0.135c0.302-0.037,0.596-0.098,0.885-0.148
					c0.145-0.02,0.288-0.039,0.43-0.061l0.107-0.01l0.053-0.006h0.014c-0.192,0.047-0.049,0.012-0.09,0.021l0.006-0.002l0.029-0.006
					l0.225-0.053c0.146-0.029,0.291-0.061,0.434-0.09c0.088-0.033,0.175-0.063,0.268-0.082c0.17-0.016,0.432-0.158,0.637-0.229
					c0.475-0.205,0.909-0.395,1.295-0.561c0.412-0.184,0.791-0.32,1.119-0.416c0.316-0.105,0.596-0.139,0.773-0.168
					c0.182-0.02,0.278-0.031,0.278-0.031l0.105,0.215c0-0.002-0.242,0.303-0.634,0.787c-0.195,0.24-0.43,0.545-0.717,0.873
					c-0.285,0.344-0.641,0.709-1.091,1.104c-0.264,0.184-0.452,0.377-0.821,0.57c-0.169,0.098-0.349,0.186-0.531,0.273
					c-0.156,0.064-0.285,0.115-0.434,0.166l-0.219,0.074l-0.027,0.01l-0.127,0.031l-0.062,0.012l-0.124,0.025
					c-0.168,0.029-0.338,0.057-0.51,0.086c-0.346,0.053-0.698,0.1-1.064,0.084c-0.367-0.006-0.721,0.014-1.111-0.021
					c-0.402-0.045-0.806-0.088-1.203-0.148c-0.387-0.064-0.69-0.201-1.038-0.32l-0.252-0.102l-0.031-0.014l-0.009-0.004
					c0.012,0.002-0.126-0.029-0.071-0.018l-0.017-0.01l-0.063-0.035l-0.127-0.07l-0.5-0.287c-0.673-0.357-1.271-0.793-1.93-1.072
					c-0.613-0.361-1.311-0.547-1.973-0.777c-0.673-0.215-1.348-0.422-1.881-0.773c-0.557-0.322-0.992-0.748-1.386-1.143
					c-0.397-0.385-0.72-0.809-0.984-1.189c-0.271-0.381-0.468-0.723-0.591-1.023c-0.274-0.59-0.369-0.982-0.369-0.982L34.482,40.326
					z"/>
			</g>
			<g>
				<path fill="#FAAF42" d="M33.796,60.662c0.001,0-0.428-0.133-1.08-0.471c-0.328-0.164-0.717-0.373-1.126-0.707
					c-0.409-0.316-0.907-0.676-1.325-1.148c-0.426-0.471-0.919-0.965-1.265-1.615c-0.187-0.316-0.343-0.662-0.493-1.016
					c-0.115-0.371-0.232-0.75-0.352-1.137c-0.262-0.75-0.42-1.555-0.805-2.27c-0.261-0.766-0.719-1.477-1.072-2.244l-0.563-1.15
					l-0.203-0.637l-0.162-0.582c-0.125-0.357-0.139-0.855-0.201-1.285l-0.069-0.666l0.003-0.625
					c-0.023-0.836,0.117-1.611,0.28-2.338c0.194-0.707,0.419-1.369,0.657-1.945c0.487-1.162,1.01-2.055,1.396-2.678
					c0.387-0.621,0.665-0.961,0.665-0.961l0.229,0.066c0,0,0.046,0.436,0.023,1.172c-0.013,0.736-0.112,1.771-0.259,2.955
					c-0.1,0.59-0.146,1.219-0.252,1.869c-0.065,0.648-0.188,1.318-0.266,2.004l-0.074,0.52l-0.023,0.498
					c-0.007,0.348-0.078,0.65-0.028,1.074l0.031,0.604c-0.003,0.178,0.012,0.465-0.006,0.553l0.076,1.191
					c0.015,0.814,0.239,1.586,0.489,2.328c0.317,0.717,0.702,1.395,1.244,1.938c0.255,0.275,0.505,0.547,0.75,0.811
					c0.253,0.256,0.504,0.498,0.707,0.76c0.398,0.529,0.773,1.027,1.101,1.51c0.312,0.502,0.639,0.9,0.886,1.32
					c0.248,0.404,0.493,0.779,0.691,1.09c0.391,0.621,0.557,1.037,0.557,1.037L33.796,60.662z"/>
			</g>
			<g>
				<path fill="#FAAF42" d="M13.446,52.943c0,0-0.029-0.088-0.084-0.252c-0.05-0.146-0.113-0.43-0.041-0.822
					c0.049-0.398,0.379-0.859,0.6-1.162c0.113-0.156,0.215-0.32,0.32-0.475l0.02-0.029c0.012-0.014-0.087,0.1-0.044,0.049
					l0.003-0.004l0.005-0.01l0.011-0.02l0.041-0.076l0.09-0.152c0.061-0.104,0.124-0.207,0.188-0.314
					c0.135-0.209,0.275-0.426,0.432-0.643c0.119-0.219,0.258-0.432,0.42-0.637c0.081-0.104,0.17-0.205,0.264-0.305l0.074-0.074
					l0.037-0.037l0.02-0.018c0.037-0.064-0.046,0.082-0.035,0.064l0.004-0.006l0.01-0.01l0.148-0.174
					c0.211-0.225,0.428-0.455,0.648-0.688c0.217-0.236,0.437-0.477,0.627-0.734c0.187-0.26,0.267-0.555,0.371-0.852
					c0.094-0.301,0.17-0.609,0.222-0.924c0.028-0.176,0.028-0.273,0.077-0.512l0.055-0.506c0.053-0.346,0.027-0.658,0.143-1.029
					c0.111-0.363,0.24-0.73,0.396-1.088c0.346-0.627,0.698-1.268,1.104-1.77c0.1-0.129,0.191-0.266,0.297-0.387l0.152-0.188
					l0.038-0.047l0.019-0.021l0.01-0.012l0.085-0.084l0.083-0.076c0.219-0.201,0.443-0.387,0.665-0.564
					c0.403-0.355,1.024-0.646,1.489-0.908c0.517-0.26,0.881-0.396,1.283-0.547c0.379-0.139,0.709-0.26,0.981-0.361
					c0.548-0.199,0.921-0.285,0.921-0.285l0.164,0.174c0,0-0.139,0.33-0.484,0.859c-0.172,0.268-0.395,0.596-0.679,0.891
					c-0.257,0.311-0.65,0.672-0.937,0.99c-0.32,0.338-0.645,0.58-1.043,1.033c-0.197,0.203-0.404,0.406-0.627,0.605l-0.082,0.076
					l-0.006,0.004c0.031-0.031-0.078,0.078,0.07-0.07l-0.01,0.01l-0.018,0.02l-0.036,0.039l-0.146,0.154
					c-0.094,0.107-0.203,0.203-0.307,0.305c-0.44,0.404-0.794,0.834-1.193,1.268c-0.152,0.215-0.332,0.424-0.531,0.641
					c-0.218,0.197-0.379,0.543-0.572,0.807l-0.273,0.428c-0.061,0.072-0.164,0.287-0.242,0.422
					c-0.158,0.309-0.291,0.619-0.404,0.936c-0.121,0.309-0.19,0.648-0.287,0.959c-0.105,0.303-0.18,0.619-0.25,0.932
					c-0.068,0.313-0.135,0.621-0.199,0.922l-0.059,0.221l-0.004,0.014l-0.002,0.006c0.008-0.014-0.078,0.137-0.043,0.076
					l-0.01,0.029l-0.021,0.057l-0.043,0.111c-0.061,0.145-0.125,0.287-0.196,0.422c-0.14,0.273-0.296,0.527-0.462,0.758
					c-0.17,0.207-0.344,0.396-0.514,0.578c-0.087,0.09-0.172,0.176-0.256,0.262c-0.104,0.102-0.207,0.201-0.307,0.299
					c-0.209,0.17-0.414,0.305-0.603,0.412c-0.387,0.217-0.575,0.256-0.748,0.4c-0.168,0.131-0.31,0.303-0.399,0.461
					c-0.1,0.141-0.152,0.217-0.152,0.217L13.446,52.943z"/>
			</g>
			<g>
				<path fill="#FAAF42" d="M24.97,38.126c0,0-0.246,0.035-0.578-0.012c-0.168-0.021-0.366-0.066-0.54-0.063
					c-0.183-0.012-0.327-0.051-0.529-0.086c-0.185-0.057-0.374-0.104-0.556-0.219c-0.172-0.135-0.35-0.352-0.566-0.592
					c-0.227-0.201-0.5-0.381-0.795-0.35c-0.291-0.016-0.59,0.135-0.857,0.318c-0.271,0.203-0.518,0.408-0.777,0.535
					c-0.256,0.129-0.508,0.254-0.751,0.375c-0.484,0.256-1.003,0.297-1.482,0.314c-0.481,0-0.92-0.047-1.249-0.131
					c-0.328-0.078-0.535-0.16-0.535-0.16l-0.094-0.219c0,0,0.083-0.205,0.26-0.498c0.178-0.293,0.459-0.648,0.858-0.98
					c0.396-0.324,0.917-0.637,1.56-0.717c0.325-0.035,0.658-0.059,1.009-0.055c0.342-0.014,0.72,0.123,1.068,0.236
					c0.358,0.148,0.686,0.234,1.012,0.26c0.323,0.02,0.649-0.047,1.007-0.176c0.351-0.09,0.737-0.213,1.06-0.127
					c0.333,0.051,0.595,0.238,0.821,0.414c0.227,0.164,0.41,0.41,0.543,0.613c0.148,0.213,0.192,0.396,0.223,0.564
					c0.07,0.328,0.053,0.576,0.053,0.576L24.97,38.126z"/>
			</g>
		</g>
		<g>
			<path fill="#E90E8B" d="M25.581,40.431c-0.045,1.291,0.947,1.746,1.813,1.049c0.823-0.607,0.818-2.033,0.922-2.967
				c0.453-3.617,2.682-0.85,4.727,0.414c1.042,0.584,2.262,1.035,3.459,1.035c1.867-0.02,2.412-0.973,0.641-2.111
				c-0.952-0.545-2.723-0.262-3.336-1.305c-0.943-1.525,0.702-1.539,1.113-2.443c-3.869-1.332,5.291-3.918,0.916-4.389
				c-2.279-0.277-7.769,5.518-7.79,1.027c-0.046-1.332,2.527-7.914,1.215-8.623c-2.45-1.342-3.267,7.139-3.509,7.902
				c-1.018,2.701-3.709,0.707-5.8,1.938c0.376,0.607,1.505,1.014,1.13,1.824c-0.422,0.684-1.982,0.516-2.407,1.195
				c-0.46,0.773-0.241,1.965,0.571,2.338c0.772,0.461,1.334-0.047,2.076-0.471c1.392-0.895,3.863-2.715,3.65,0.139
				c-0.167,1.563-1.799,3.219,0.022,4.492"/>
		</g>
	</g>
	<g>
		<g>
			<g>
				<path fill="#19444A" d="M30.599,36.626c1.922,0,1.922-2.98,0-2.98S28.677,36.626,30.599,36.626L30.599,36.626z"/>
			</g>
		</g>
		<g>
			<g>
				<path fill="#19444A" d="M29.372,35.787c-0.03-0.015-0.061-0.028-0.092-0.043c-0.735-0.345-1.601-0.213-2.039,0.535
					c-0.382,0.652-0.201,1.694,0.535,2.039c0.03,0.015,0.061,0.028,0.092,0.043c0.735,0.345,1.601,0.213,2.039-0.535
					C30.289,37.173,30.108,36.131,29.372,35.787L29.372,35.787z"/>
			</g>
		</g>
		<g>
			<g>
				<path fill="#19444A" d="M29.739,35.564c0.041-0.09,0.082-0.181,0.123-0.271c0.334-0.74,0.221-1.597-0.535-2.039
					c-0.645-0.378-1.705-0.206-2.039,0.535c-0.041,0.09-0.082,0.181-0.123,0.271c-0.337,0.739-0.219,1.598,0.535,2.039
					C28.347,36.478,29.402,36.304,29.739,35.564L29.739,35.564z"/>
			</g>
		</g>
		<g>
			<g>
				<path fill="#19444A" d="M30.038,30.986c-0.018-0.044-0.034-0.088-0.051-0.133c-0.29-0.758-0.993-1.272-1.834-1.041
					c-0.727,0.2-1.331,1.074-1.041,1.834c0.018,0.044,0.034,0.088,0.051,0.133c0.29,0.758,0.993,1.272,1.834,1.041
					C29.724,32.62,30.328,31.746,30.038,30.986L30.038,30.986z"/>
			</g>
		</g>
		<g>
			<g>
				<path fill="#19444A" d="M26.599,34.144c1.922,0,1.922-2.98,0-2.98S24.677,34.144,26.599,34.144L26.599,34.144z"/>
			</g>
		</g>
		<g>
			<g>
				<path fill="#19444A" d="M27.739,36.833c0.014-0.029,0.027-0.06,0.041-0.09c0.338-0.738,0.218-1.598-0.535-2.039
					c-0.646-0.379-1.701-0.204-2.039,0.535c-0.014,0.029-0.027,0.06-0.041,0.09c-0.338,0.738-0.218,1.598,0.535,2.039
					C26.347,37.748,27.401,37.573,27.739,36.833L27.739,36.833z"/>
			</g>
		</g>
		<g>
			<g>
				<path fill="#19444A" d="M24.972,36.021c1.922,0,1.922-2.98,0-2.98S23.05,36.021,24.972,36.021L24.972,36.021z"/>
			</g>
		</g>
	</g>
</g>
</svg>
