<?xml version="1.0" encoding="utf-8"?>
<!-- Generator: Adobe Illustrator 16.0.0, SVG Export Plug-In . SVG Version: 6.00 Build 0)  -->
<!DOCTYPE svg PUBLIC "-//W3C//DTD SVG 1.1//EN" "http://www.w3.org/Graphics/SVG/1.1/DTD/svg11.dtd">
<svg version="1.1" id="Layer_1" xmlns="http://www.w3.org/2000/svg" xmlns:xlink="http://www.w3.org/1999/xlink" x="0px" y="0px"
	 width="46.125px" height="41.265px" viewBox="0 0 46.125 41.265" enable-background="new 0 0 46.125 41.265" xml:space="preserve">
<g>
	<g>
		<ellipse fill="#FFFFFF" cx="23.253" cy="22.005" rx="22.38" ry="18.846"/>
		<g>
			<path fill="#B77C2D" d="M45.688,22.007c0,0-0.028,0.507-0.082,1.456c-0.068,0.945-0.307,2.34-0.847,4.038
				c-0.615,1.668-1.549,3.66-3.133,5.604c-1.569,1.941-3.734,3.851-6.462,5.32c-2.718,1.481-5.995,2.489-9.53,2.784
				c-0.891,0.03-1.769,0.095-2.704,0.077c-0.896-0.073-1.786-0.055-2.72-0.228c-0.462-0.067-0.927-0.136-1.395-0.205
				c-0.463-0.085-0.917-0.209-1.379-0.313c-0.93-0.182-1.825-0.524-2.74-0.816c-3.583-1.353-7.07-3.485-9.681-6.567
				c-2.674-3.015-4.333-6.995-4.44-11.17c-0.009-2,0.355-4.132,1.065-6.059c0.699-1.954,1.849-3.704,3.14-5.278
				c2.634-3.147,6.186-5.313,9.829-6.621c3.67-1.267,7.519-1.619,11.01-1.321c3.594,0.321,6.822,1.383,9.555,2.857
				c2.731,1.472,4.892,3.391,6.46,5.333c1.588,1.945,2.512,3.942,3.139,5.606c0.553,1.698,0.778,3.091,0.842,4.04
				C45.663,21.498,45.688,22.007,45.688,22.007z M45.579,22.003c0,0-0.035-0.502-0.101-1.446c-0.081-0.939-0.333-2.314-0.911-3.979
				c-0.625-1.646-1.686-3.538-3.308-5.362c-1.616-1.826-3.831-3.525-6.502-4.847c-2.659-1.326-5.838-2.233-9.188-2.553
				c-3.448-0.291-7.053,0.127-10.593,1.278c-3.5,1.199-6.913,3.232-9.47,6.18c-1.263,1.469-2.401,3.107-3.108,4.951
				c-0.74,1.843-1.156,3.738-1.229,5.797c0.001,1.956,0.35,3.97,1.038,5.835c0.684,1.88,1.805,3.563,3.063,5.079
				c2.58,3.014,6.058,5.079,9.617,6.233c0.906,0.25,1.788,0.549,2.701,0.692c0.453,0.084,0.9,0.188,1.349,0.254
				c0.449,0.049,0.896,0.098,1.341,0.146c0.874,0.136,1.805,0.079,2.69,0.127c0.85,0.005,1.737-0.067,2.585-0.105
				c3.409-0.346,6.54-1.307,9.213-2.625c2.675-1.323,4.884-3.032,6.501-4.859c1.625-1.824,2.677-3.721,3.313-5.363
				c0.591-1.665,0.83-3.036,0.905-3.981C45.547,22.507,45.579,22.003,45.579,22.003z"/>
		</g>
	</g>
	<g>
		<path fill="#F26730" d="M39.94,9.735c0-3.082-7.471-8.298-16.688-8.298c-9.215,0-16.687,5.216-16.687,8.298
			c0,0,8.067,2.303,17.283,2.303C33.065,12.038,39.94,9.735,39.94,9.735z"/>
		<g>
			<path fill="#CB3927" d="M39.881,9.696c-0.088-0.83-0.565-1.459-1.077-2.063c-0.523-0.61-1.17-1.109-1.806-1.602
				c-0.33-0.234-0.675-0.449-1.01-0.673l-1.057-0.598c-0.727-0.359-1.452-0.716-2.205-1.019c-0.753-0.295-1.512-0.584-2.294-0.794
				c-0.772-0.246-1.569-0.397-2.357-0.578c-0.796-0.142-1.591-0.304-2.398-0.373c-0.803-0.112-1.614-0.114-2.424-0.184
				c-0.795,0.012-1.651-0.022-2.442,0.061c-0.808,0.034-1.615,0.164-2.425,0.273c-0.802,0.152-1.603,0.324-2.384,0.566
				c-0.789,0.215-1.56,0.497-2.316,0.808c-0.753,0.322-1.48,0.695-2.194,1.091l-1.04,0.646c-0.325,0.245-0.658,0.479-0.975,0.732
				c-0.613,0.526-1.226,1.067-1.691,1.71C7.32,8.32,6.902,9.046,6.925,9.735L6.665,9.39c1.351,0.317,2.724,0.621,4.104,0.849
				c0.688,0.13,1.376,0.252,2.07,0.349c0.693,0.097,1.38,0.23,2.077,0.297L17,11.124c0.695,0.076,1.394,0.104,2.089,0.169
				c0.696,0.051,1.392,0.129,2.089,0.132l2.092,0.076c0.698,0.046,1.375-0.005,2.091-0.009c0.702-0.017,1.413,0.001,2.107-0.039
				l2.083-0.136c0.696-0.029,1.39-0.132,2.085-0.206c0.696-0.073,1.395-0.134,2.086-0.248c0.691-0.109,1.391-0.183,2.078-0.323
				C37.166,10.304,38.536,10.051,39.881,9.696z M39.956,9.782c-1.328,0.483-2.685,0.886-4.058,1.231
				c-0.684,0.186-1.381,0.305-2.072,0.461c-0.691,0.159-1.39,0.27-2.089,0.384c-0.701,0.103-1.397,0.234-2.108,0.293l-2.126,0.223
				c-0.709,0.067-1.408,0.08-2.113,0.12c-0.691,0.016-1.421,0.082-2.131,0.048l-2.13-0.047c-0.711-0.005-1.417-0.085-2.125-0.14
				c-0.707-0.062-1.416-0.107-2.118-0.202l-2.107-0.289c-0.704-0.084-1.398-0.234-2.097-0.348c-0.699-0.115-1.395-0.248-2.086-0.403
				c-1.388-0.29-2.758-0.632-4.129-1.033L6.195,10l0.013-0.265c0.049-0.997,0.597-1.741,1.133-2.391
				C7.886,6.68,8.545,6.151,9.208,5.641c0.68-0.488,1.39-0.923,2.111-1.335c0.734-0.39,1.479-0.754,2.249-1.066
				c0.768-0.309,1.534-0.633,2.331-0.865c0.785-0.274,1.599-0.44,2.4-0.662c0.814-0.164,1.626-0.348,2.464-0.437
				c0.844-0.138,1.64-0.15,2.49-0.215c0.835,0.007,1.677-0.017,2.508,0.091c0.837,0.055,1.662,0.207,2.49,0.338
				c0.816,0.193,1.634,0.38,2.428,0.65c0.803,0.237,1.582,0.554,2.353,0.878c0.77,0.331,1.517,0.713,2.239,1.139l1.056,0.683
				c0.335,0.254,0.678,0.496,1.004,0.759c0.64,0.544,1.266,1.114,1.751,1.811c0.268,0.325,0.458,0.711,0.651,1.086l0.204,0.614
				l0.056,0.657L39.956,9.782z"/>
		</g>
	</g>
</g>
</svg>
