<?xml version="1.0" encoding="utf-8"?>
<!-- Generator: Adobe Illustrator 16.0.0, SVG Export Plug-In . SVG Version: 6.00 Build 0)  -->
<!DOCTYPE svg PUBLIC "-//W3C//DTD SVG 1.1//EN" "http://www.w3.org/Graphics/SVG/1.1/DTD/svg11.dtd">
<svg version="1.1" id="Layer_1" xmlns="http://www.w3.org/2000/svg" xmlns:xlink="http://www.w3.org/1999/xlink" x="0px" y="0px"
	 width="46.125px" height="41.265px" viewBox="0 0 46.125 41.265" enable-background="new 0 0 46.125 41.265" xml:space="preserve">
<g>
	<g>
		<ellipse fill="#FFFFFF" cx="23.253" cy="22.005" rx="22.38" ry="18.846"/>
		<g>
			<path fill="#B77C2D" d="M45.688,22.007c0,0-0.028,0.506-0.082,1.455c-0.068,0.945-0.307,2.34-0.847,4.039
				c-0.615,1.668-1.549,3.66-3.133,5.604c-1.569,1.941-3.733,3.85-6.462,5.32c-2.718,1.48-5.995,2.49-9.53,2.785
				c-0.891,0.029-1.769,0.094-2.704,0.076c-0.896-0.072-1.786-0.055-2.72-0.227c-0.462-0.068-0.927-0.137-1.395-0.205
				c-0.463-0.086-0.917-0.209-1.379-0.313c-0.93-0.184-1.825-0.525-2.74-0.818c-3.583-1.352-7.07-3.484-9.681-6.566
				c-2.675-3.008-4.333-7.014-4.441-11.152c-0.007-2.037,0.356-4.143,1.065-6.076c0.7-1.955,1.849-3.705,3.14-5.279
				c2.634-3.146,6.186-5.313,9.829-6.62c3.67-1.268,7.519-1.62,11.01-1.321c3.594,0.321,6.823,1.383,9.555,2.857
				c2.731,1.471,4.891,3.39,6.46,5.333c1.587,1.945,2.512,3.941,3.139,5.605c0.553,1.699,0.778,3.092,0.842,4.041
				C45.663,21.498,45.688,22.007,45.688,22.007z M45.579,22.003c0,0-0.035-0.502-0.101-1.447c-0.081-0.939-0.333-2.314-0.911-3.979
				c-0.625-1.645-1.686-3.537-3.308-5.361c-1.617-1.826-3.831-3.526-6.503-4.848c-2.658-1.326-5.838-2.233-9.188-2.553
				c-3.448-0.291-7.053,0.127-10.593,1.278c-3.5,1.2-6.913,3.232-9.47,6.181c-1.263,1.468-2.4,3.107-3.108,4.951
				c-0.74,1.836-1.156,3.756-1.228,5.779c0,1.992,0.35,3.98,1.038,5.854c0.684,1.879,1.806,3.563,3.063,5.078
				c2.58,3.014,6.058,5.08,9.617,6.234c0.906,0.25,1.788,0.549,2.701,0.691c0.453,0.084,0.9,0.189,1.349,0.254
				c0.449,0.049,0.896,0.098,1.341,0.146c0.874,0.137,1.805,0.08,2.69,0.127c0.85,0.006,1.737-0.066,2.585-0.105
				c3.409-0.346,6.54-1.307,9.213-2.625c2.674-1.322,4.884-3.033,6.5-4.859c1.625-1.824,2.677-3.721,3.313-5.363
				c0.591-1.666,0.83-3.037,0.905-3.982C45.547,22.507,45.579,22.003,45.579,22.003z"/>
		</g>
	</g>
	<g>
		<path fill="#EDE595" d="M39.94,9.735c0-3.082-7.471-8.298-16.688-8.298c-9.215,0-16.687,5.216-16.687,8.298
			c0,0,8.067,2.303,17.283,2.303C33.065,12.038,39.94,9.735,39.94,9.735z"/>
		<path fill="#E8DB80" d="M39.909,9.714c-0.048-0.837-0.531-1.518-1.04-2.133c-0.517-0.629-1.159-1.143-1.795-1.647
			c-0.329-0.241-0.673-0.461-1.008-0.693l-1.058-0.617c-0.725-0.375-1.456-0.738-2.212-1.046c-0.757-0.302-1.521-0.598-2.308-0.813
			c-0.777-0.252-1.579-0.411-2.374-0.595c-0.804-0.139-1.604-0.299-2.419-0.365c-0.81-0.111-1.627-0.107-2.443-0.163
			c-0.808,0.024-1.65,0-2.453,0.096c-0.814,0.047-1.623,0.188-2.434,0.311c-0.802,0.168-1.606,0.338-2.388,0.588
			c-0.791,0.219-1.561,0.509-2.318,0.822c-0.756,0.322-1.485,0.697-2.202,1.094l-1.044,0.646c-0.33,0.241-0.669,0.471-0.992,0.72
			c-0.626,0.52-1.253,1.053-1.738,1.7C7.2,8.244,6.75,8.973,6.753,9.735L6.618,9.556c1.355,0.339,2.73,0.643,4.112,0.883
			c0.688,0.135,1.379,0.26,2.073,0.36c0.694,0.101,1.383,0.238,2.082,0.309l2.089,0.25c0.697,0.08,1.398,0.112,2.095,0.18
			c0.699,0.054,1.396,0.134,2.098,0.14l2.101,0.066c0.7,0.042,1.39-0.015,2.1-0.023c0.703-0.021,1.411-0.007,2.109-0.051l2.093-0.15
			c0.699-0.034,1.395-0.141,2.091-0.22c0.697-0.084,1.396-0.16,2.086-0.287c0.691-0.123,1.39-0.209,2.075-0.363
			C37.193,10.384,38.564,10.1,39.909,9.714z M39.949,9.761c-1.336,0.454-2.698,0.825-4.073,1.143
			c-0.686,0.172-1.383,0.278-2.075,0.421c-0.691,0.146-1.391,0.242-2.089,0.346c-0.699,0.098-1.395,0.225-2.102,0.279l-2.115,0.209
			c-0.705,0.063-1.407,0.071-2.111,0.106c-0.697,0.012-1.415,0.072-2.122,0.033l-2.121-0.057c-0.708-0.002-1.411-0.08-2.116-0.131
			c-0.705-0.06-1.411-0.102-2.112-0.192l-2.102-0.277c-0.703-0.08-1.395-0.227-2.092-0.336c-0.698-0.111-1.392-0.241-2.083-0.391
			c-1.385-0.278-2.754-0.619-4.121-0.999l-0.14-0.039l0.004-0.14C6.41,8.812,6.926,8.07,7.443,7.426
			c0.524-0.66,1.17-1.195,1.82-1.712C9.596,5.465,9.944,5.238,10.284,5l1.069-0.634c0.731-0.389,1.475-0.753,2.241-1.063
			c0.767-0.307,1.533-0.623,2.328-0.851c0.784-0.267,1.595-0.435,2.397-0.64c0.813-0.151,1.624-0.323,2.455-0.4
			c0.832-0.125,1.642-0.127,2.479-0.18c0.83,0.021,1.664,0.004,2.489,0.113c0.831,0.058,1.648,0.212,2.469,0.346
			c0.81,0.19,1.623,0.369,2.412,0.634c0.798,0.231,1.572,0.542,2.339,0.859c0.766,0.324,1.508,0.701,2.231,1.111l1.057,0.664
			c0.335,0.248,0.678,0.483,1.005,0.74c0.639,0.532,1.27,1.086,1.762,1.765c0.488,0.647,0.963,1.432,0.951,2.268l-0.001,0.023
			L39.949,9.761z"/>
	</g>
</g>
<g>
	<g>
		<ellipse fill="#FFFFFF" cx="23.253" cy="22.005" rx="22.38" ry="18.846"/>
		<g>
			<path fill="#B77C2D" d="M45.688,22.007c0,0-0.028,0.506-0.082,1.455c-0.068,0.945-0.307,2.34-0.847,4.039
				c-0.615,1.668-1.549,3.66-3.133,5.604c-1.569,1.941-3.733,3.85-6.462,5.32c-2.718,1.48-5.995,2.49-9.53,2.785
				c-0.891,0.029-1.769,0.094-2.704,0.076c-0.896-0.072-1.786-0.055-2.72-0.227c-0.462-0.068-0.927-0.137-1.395-0.205
				c-0.463-0.086-0.917-0.209-1.379-0.313c-0.93-0.184-1.825-0.525-2.74-0.818c-3.583-1.352-7.07-3.484-9.681-6.566
				c-2.675-3.008-4.333-7.014-4.441-11.152c-0.007-2.037,0.356-4.143,1.065-6.076c0.7-1.955,1.849-3.705,3.14-5.279
				c2.634-3.146,6.186-5.313,9.829-6.62c3.67-1.268,7.519-1.62,11.01-1.321c3.594,0.321,6.823,1.383,9.555,2.857
				c2.731,1.471,4.891,3.39,6.46,5.333c1.587,1.945,2.512,3.941,3.139,5.605c0.553,1.699,0.778,3.092,0.842,4.041
				C45.663,21.498,45.688,22.007,45.688,22.007z M45.579,22.003c0,0-0.035-0.502-0.101-1.447c-0.081-0.939-0.333-2.314-0.911-3.979
				c-0.625-1.645-1.686-3.537-3.308-5.361c-1.617-1.826-3.831-3.526-6.503-4.848c-2.658-1.326-5.838-2.233-9.188-2.553
				c-3.448-0.291-7.053,0.127-10.593,1.278c-3.5,1.2-6.913,3.232-9.47,6.181c-1.263,1.468-2.4,3.107-3.108,4.951
				c-0.74,1.836-1.156,3.756-1.228,5.779c0,1.992,0.35,3.98,1.038,5.854c0.684,1.879,1.806,3.563,3.063,5.078
				c2.58,3.014,6.058,5.08,9.617,6.234c0.906,0.25,1.788,0.549,2.701,0.691c0.453,0.084,0.9,0.189,1.349,0.254
				c0.449,0.049,0.896,0.098,1.341,0.146c0.874,0.137,1.805,0.08,2.69,0.127c0.85,0.006,1.737-0.066,2.585-0.105
				c3.409-0.346,6.54-1.307,9.213-2.625c2.674-1.322,4.884-3.033,6.5-4.859c1.625-1.824,2.677-3.721,3.313-5.363
				c0.591-1.666,0.83-3.037,0.905-3.982C45.547,22.507,45.579,22.003,45.579,22.003z"/>
		</g>
	</g>
	<g>
		<path fill="#6BB76F" d="M39.94,9.735c0-3.082-7.471-8.298-16.688-8.298c-9.215,0-16.687,5.216-16.687,8.298
			c0,0,8.067,2.303,17.283,2.303C33.065,12.038,39.94,9.735,39.94,9.735z"/>
		<path fill="#4CA54D" d="M39.909,9.714c-0.048-0.837-0.531-1.518-1.04-2.133c-0.517-0.629-1.159-1.143-1.795-1.647
			c-0.329-0.241-0.673-0.461-1.008-0.693l-1.058-0.617c-0.725-0.375-1.456-0.738-2.212-1.046c-0.757-0.302-1.521-0.598-2.308-0.813
			c-0.777-0.252-1.579-0.411-2.374-0.595c-0.804-0.139-1.604-0.299-2.419-0.365c-0.81-0.111-1.627-0.107-2.443-0.163
			c-0.808,0.024-1.65,0-2.453,0.096c-0.814,0.047-1.623,0.188-2.434,0.311c-0.802,0.168-1.606,0.338-2.388,0.588
			c-0.791,0.219-1.561,0.509-2.318,0.822c-0.756,0.322-1.485,0.697-2.202,1.094l-1.044,0.646c-0.33,0.241-0.669,0.471-0.992,0.72
			c-0.626,0.52-1.253,1.053-1.738,1.7C7.2,8.244,6.75,8.973,6.753,9.735L6.618,9.556c1.355,0.339,2.73,0.643,4.112,0.883
			c0.688,0.135,1.379,0.26,2.073,0.36c0.694,0.101,1.383,0.238,2.082,0.309l2.089,0.25c0.697,0.08,1.398,0.112,2.095,0.18
			c0.699,0.054,1.396,0.134,2.098,0.14l2.101,0.066c0.7,0.042,1.39-0.015,2.1-0.023c0.703-0.021,1.411-0.007,2.109-0.051l2.093-0.15
			c0.699-0.034,1.395-0.141,2.091-0.22c0.697-0.084,1.396-0.16,2.086-0.287c0.691-0.123,1.39-0.209,2.075-0.363
			C37.193,10.384,38.564,10.1,39.909,9.714z M39.949,9.761c-1.336,0.454-2.698,0.825-4.073,1.143
			c-0.686,0.172-1.383,0.278-2.075,0.421c-0.691,0.146-1.391,0.242-2.089,0.346c-0.699,0.098-1.395,0.225-2.102,0.279l-2.115,0.209
			c-0.705,0.063-1.407,0.071-2.111,0.106c-0.697,0.012-1.415,0.072-2.122,0.033l-2.121-0.057c-0.708-0.002-1.411-0.08-2.116-0.131
			c-0.705-0.06-1.411-0.102-2.112-0.192l-2.102-0.277c-0.703-0.08-1.395-0.227-2.092-0.336c-0.698-0.111-1.392-0.241-2.083-0.391
			c-1.385-0.278-2.754-0.619-4.121-0.999l-0.14-0.039l0.004-0.14C6.41,8.812,6.926,8.07,7.443,7.426
			c0.524-0.66,1.17-1.195,1.82-1.712C9.596,5.465,9.944,5.238,10.284,5l1.069-0.634c0.731-0.389,1.475-0.753,2.241-1.063
			c0.767-0.307,1.533-0.623,2.328-0.851c0.784-0.267,1.595-0.435,2.397-0.64c0.813-0.151,1.624-0.323,2.455-0.4
			c0.832-0.125,1.642-0.127,2.479-0.18c0.83,0.021,1.664,0.004,2.489,0.113c0.831,0.058,1.648,0.212,2.469,0.346
			c0.81,0.19,1.623,0.369,2.412,0.634c0.798,0.231,1.572,0.542,2.339,0.859c0.766,0.324,1.508,0.701,2.231,1.111l1.057,0.664
			c0.335,0.248,0.678,0.483,1.005,0.74c0.639,0.532,1.27,1.086,1.762,1.765c0.488,0.647,0.963,1.432,0.951,2.268l-0.001,0.023
			L39.949,9.761z"/>
	</g>
</g>
<g>
	<g>
		<ellipse fill="#FFFFFF" cx="23.253" cy="22.005" rx="22.38" ry="18.846"/>
		<g>
			<path fill="#B77C2D" d="M45.688,22.007c0,0-0.028,0.506-0.082,1.455c-0.068,0.945-0.307,2.34-0.846,4.039
				c-0.616,1.668-1.549,3.66-3.134,5.604c-1.568,1.941-3.733,3.85-6.462,5.32c-2.717,1.48-5.995,2.49-9.529,2.785
				c-0.891,0.029-1.769,0.094-2.704,0.076c-0.896-0.072-1.786-0.055-2.72-0.227c-0.462-0.068-0.927-0.137-1.395-0.205
				c-0.462-0.086-0.917-0.209-1.379-0.314c-0.929-0.182-1.825-0.523-2.74-0.816c-3.583-1.352-7.07-3.484-9.681-6.566
				c-2.675-3.008-4.333-7.014-4.441-11.152c-0.007-2.037,0.356-4.143,1.065-6.076c0.699-1.955,1.849-3.704,3.14-5.278
				c2.633-3.147,6.186-5.313,9.829-6.621c3.67-1.268,7.519-1.62,11.01-1.321c3.594,0.321,6.823,1.383,9.555,2.856
				c2.731,1.472,4.892,3.391,6.46,5.333c1.588,1.945,2.512,3.941,3.139,5.605c0.553,1.699,0.778,3.092,0.842,4.041
				C45.662,21.498,45.688,22.007,45.688,22.007z M45.578,22.003c0,0-0.035-0.502-0.101-1.447c-0.081-0.939-0.333-2.314-0.911-3.979
				c-0.625-1.645-1.686-3.537-3.308-5.361c-1.616-1.826-3.831-3.525-6.502-4.847c-2.658-1.326-5.838-2.233-9.188-2.553
				c-3.448-0.291-7.053,0.127-10.593,1.279c-3.5,1.199-6.912,3.231-9.469,6.18c-1.264,1.468-2.401,3.107-3.108,4.951
				c-0.74,1.836-1.156,3.756-1.228,5.779c0,1.992,0.35,3.98,1.038,5.854c0.684,1.879,1.806,3.563,3.063,5.078
				c2.58,3.014,6.058,5.08,9.617,6.234c0.906,0.25,1.788,0.549,2.701,0.691c0.452,0.084,0.9,0.189,1.348,0.254
				c0.449,0.049,0.896,0.098,1.341,0.146c0.874,0.137,1.805,0.08,2.69,0.127c0.85,0.006,1.737-0.066,2.585-0.105
				c3.409-0.346,6.54-1.307,9.213-2.625c2.675-1.322,4.884-3.033,6.501-4.859c1.624-1.824,2.677-3.721,3.313-5.363
				c0.591-1.666,0.83-3.037,0.905-3.982C45.546,22.507,45.578,22.003,45.578,22.003z"/>
		</g>
	</g>
	<g>
		<path fill="#3C2415" d="M39.94,9.735c0-3.082-7.472-8.298-16.687-8.298c-9.217,0-16.688,5.216-16.688,8.298
			c0,0,8.067,2.303,17.283,2.303C33.065,12.038,39.94,9.735,39.94,9.735z"/>
		<path fill="#24140C" d="M39.909,9.714c-0.048-0.837-0.531-1.518-1.04-2.133c-0.517-0.628-1.159-1.143-1.795-1.647
			c-0.329-0.241-0.673-0.461-1.008-0.693l-1.058-0.617c-0.725-0.375-1.456-0.738-2.212-1.046c-0.757-0.302-1.521-0.598-2.308-0.813
			c-0.777-0.252-1.579-0.411-2.374-0.595c-0.804-0.139-1.605-0.299-2.419-0.365c-0.807-0.111-1.634-0.107-2.436-0.163
			c-0.822,0.025-1.654,0-2.46,0.096c-0.814,0.047-1.623,0.189-2.434,0.311c-0.802,0.168-1.606,0.338-2.388,0.588
			c-0.791,0.219-1.561,0.509-2.318,0.822c-0.756,0.322-1.485,0.697-2.202,1.094l-1.044,0.646c-0.331,0.241-0.669,0.471-0.992,0.72
			c-0.626,0.52-1.252,1.054-1.737,1.7C7.2,8.244,6.75,8.973,6.753,9.735L6.618,9.556c1.355,0.339,2.73,0.643,4.112,0.883
			c0.688,0.135,1.379,0.26,2.073,0.36c0.694,0.101,1.383,0.238,2.082,0.309l2.089,0.25c0.697,0.08,1.398,0.112,2.095,0.18
			c0.699,0.054,1.396,0.134,2.098,0.14l2.101,0.066c0.7,0.042,1.39-0.015,2.1-0.023c0.703-0.021,1.411-0.007,2.109-0.051l2.093-0.15
			c0.699-0.034,1.395-0.141,2.091-0.22c0.697-0.084,1.396-0.16,2.086-0.287c0.691-0.123,1.39-0.209,2.075-0.363
			C37.193,10.384,38.564,10.1,39.909,9.714z M39.949,9.761c-1.336,0.454-2.698,0.825-4.073,1.143
			c-0.686,0.172-1.383,0.278-2.075,0.421c-0.691,0.146-1.391,0.242-2.089,0.346c-0.699,0.098-1.395,0.225-2.102,0.279l-2.115,0.209
			c-0.705,0.063-1.407,0.071-2.111,0.106c-0.697,0.012-1.415,0.072-2.122,0.033l-2.121-0.057c-0.708-0.002-1.411-0.08-2.116-0.131
			c-0.705-0.06-1.411-0.102-2.112-0.192l-2.102-0.277c-0.703-0.08-1.395-0.227-2.092-0.336c-0.698-0.111-1.392-0.241-2.083-0.391
			c-1.385-0.278-2.754-0.619-4.121-0.999l-0.14-0.039l0.004-0.14C6.41,8.812,6.926,8.07,7.443,7.426
			c0.524-0.661,1.17-1.195,1.819-1.713C9.596,5.465,9.944,5.238,10.284,5l1.069-0.635c0.732-0.388,1.475-0.752,2.242-1.063
			c0.767-0.307,1.533-0.623,2.328-0.851c0.784-0.267,1.595-0.435,2.397-0.64c0.813-0.151,1.624-0.323,2.455-0.4
			c0.829-0.125,1.649-0.127,2.472-0.179c0.844,0.021,1.668,0.003,2.497,0.112c0.831,0.058,1.648,0.212,2.469,0.346
			c0.81,0.19,1.623,0.369,2.412,0.634c0.798,0.231,1.572,0.542,2.339,0.859c0.766,0.324,1.508,0.701,2.231,1.111l1.057,0.664
			c0.335,0.248,0.678,0.483,1.005,0.74c0.639,0.532,1.27,1.086,1.762,1.765c0.488,0.647,0.963,1.432,0.951,2.268l-0.001,0.023
			L39.949,9.761z"/>
	</g>
</g>
<g>
	<g>
		<ellipse fill="#FFFFFF" cx="23.253" cy="22.005" rx="22.38" ry="18.846"/>
		<g>
			<path fill="#B77C2D" d="M45.688,22.007c0,0-0.028,0.506-0.082,1.455c-0.068,0.945-0.307,2.34-0.846,4.039
				c-0.616,1.668-1.549,3.66-3.134,5.604c-1.568,1.941-3.733,3.852-6.462,5.32c-2.717,1.48-5.995,2.49-9.529,2.785
				c-0.891,0.029-1.769,0.094-2.704,0.076c-0.896-0.072-1.786-0.055-2.72-0.227c-0.462-0.068-0.927-0.137-1.395-0.205
				c-0.462-0.086-0.917-0.209-1.378-0.314c-0.93-0.182-1.826-0.523-2.74-0.816c-3.583-1.352-7.07-3.484-9.681-6.568
				c-2.674-3.014-4.333-6.994-4.44-11.168c-0.009-2.002,0.355-4.133,1.064-6.059c0.699-1.955,1.849-3.705,3.14-5.279
				c2.633-3.147,6.186-5.313,9.829-6.621c3.67-1.268,7.519-1.62,11.01-1.321c3.594,0.321,6.822,1.383,9.554,2.857
				c2.731,1.471,4.892,3.391,6.46,5.333c1.588,1.945,2.512,3.941,3.139,5.605c0.553,1.699,0.778,3.092,0.842,4.041
				C45.662,21.498,45.688,22.007,45.688,22.007z M45.578,22.003c0,0-0.035-0.502-0.101-1.447c-0.081-0.939-0.333-2.314-0.911-3.979
				c-0.624-1.646-1.686-3.537-3.308-5.361c-1.616-1.826-3.83-3.526-6.502-4.847c-2.659-1.326-5.839-2.233-9.188-2.553
				c-3.448-0.291-7.052,0.127-10.593,1.278c-3.5,1.2-6.912,3.232-9.469,6.181c-1.263,1.469-2.4,3.107-3.108,4.951
				c-0.74,1.842-1.156,3.738-1.229,5.797c0.002,1.955,0.351,3.971,1.039,5.834c0.684,1.881,1.805,3.564,3.063,5.08
				c2.58,3.014,6.058,5.08,9.617,6.234c0.906,0.25,1.788,0.549,2.701,0.691c0.452,0.084,0.9,0.189,1.349,0.254
				c0.449,0.049,0.896,0.098,1.341,0.146c0.874,0.137,1.805,0.08,2.69,0.127c0.85,0.006,1.737-0.066,2.585-0.105
				c3.408-0.346,6.54-1.307,9.213-2.625c2.675-1.322,4.884-3.033,6.501-4.859c1.624-1.824,2.677-3.721,3.313-5.363
				c0.591-1.666,0.83-3.037,0.905-3.982C45.546,22.507,45.578,22.003,45.578,22.003z"/>
		</g>
	</g>
	<g>
		<path fill="#CC3850" d="M39.94,9.734c0-3.082-7.472-8.297-16.687-8.297c-9.217,0-16.688,5.216-16.688,8.297
			c0,0,8.067,2.304,17.283,2.304C33.065,12.038,39.94,9.734,39.94,9.734z"/>
		<path fill="#911D37" d="M39.909,9.714c-0.048-0.837-0.531-1.518-1.04-2.133c-0.517-0.629-1.159-1.143-1.796-1.648
			C36.745,5.692,36.4,5.472,36.065,5.24l-1.057-0.617c-0.726-0.375-1.456-0.737-2.212-1.046c-0.757-0.302-1.52-0.598-2.308-0.813
			c-0.777-0.252-1.579-0.411-2.373-0.595c-0.804-0.139-1.605-0.299-2.419-0.365c-0.807-0.111-1.634-0.107-2.436-0.163
			c-0.822,0.025-1.654,0-2.46,0.096c-0.814,0.047-1.623,0.189-2.434,0.311c-0.802,0.168-1.606,0.338-2.388,0.588
			c-0.791,0.219-1.562,0.509-2.319,0.822c-0.755,0.322-1.485,0.697-2.202,1.094l-1.044,0.646c-0.33,0.241-0.669,0.47-0.992,0.72
			c-0.626,0.52-1.252,1.053-1.738,1.7C7.2,8.243,6.75,8.972,6.753,9.734L6.618,9.555c1.355,0.339,2.73,0.644,4.112,0.883
			c0.688,0.135,1.379,0.26,2.073,0.361c0.694,0.101,1.383,0.238,2.082,0.309l2.089,0.25c0.697,0.08,1.397,0.112,2.095,0.18
			c0.699,0.054,1.396,0.134,2.098,0.14l2.101,0.066c0.7,0.042,1.39-0.015,2.1-0.023c0.703-0.021,1.411-0.007,2.109-0.052
			l2.093-0.149c0.7-0.034,1.395-0.142,2.091-0.22c0.697-0.084,1.396-0.16,2.086-0.287c0.691-0.123,1.389-0.209,2.075-0.362
			C37.193,10.384,38.564,10.1,39.909,9.714z M39.949,9.76c-1.336,0.454-2.698,0.825-4.073,1.143
			c-0.686,0.173-1.383,0.279-2.075,0.421c-0.691,0.146-1.391,0.242-2.089,0.345c-0.7,0.099-1.395,0.225-2.102,0.279l-2.115,0.209
			c-0.705,0.063-1.407,0.071-2.111,0.106c-0.697,0.012-1.415,0.072-2.122,0.033l-2.121-0.057c-0.708-0.002-1.411-0.08-2.116-0.131
			c-0.705-0.06-1.411-0.102-2.112-0.192l-2.102-0.278c-0.703-0.08-1.395-0.226-2.092-0.336c-0.698-0.112-1.392-0.241-2.083-0.392
			c-1.386-0.278-2.754-0.619-4.121-0.999l-0.14-0.039L6.38,9.734C6.41,8.812,6.926,8.07,7.443,7.426
			c0.524-0.661,1.17-1.196,1.82-1.713C9.596,5.465,9.944,5.238,10.284,5l1.069-0.634c0.731-0.388,1.475-0.752,2.241-1.063
			c0.767-0.307,1.533-0.623,2.328-0.851c0.784-0.267,1.595-0.435,2.397-0.64c0.813-0.151,1.624-0.323,2.455-0.4
			c0.829-0.125,1.649-0.127,2.472-0.179c0.844,0.021,1.668,0.003,2.497,0.112c0.831,0.058,1.648,0.212,2.469,0.346
			c0.809,0.19,1.623,0.369,2.411,0.634c0.799,0.23,1.572,0.542,2.339,0.859c0.766,0.324,1.508,0.7,2.231,1.111l1.057,0.664
			c0.335,0.247,0.678,0.483,1.005,0.739c0.639,0.532,1.27,1.087,1.762,1.765c0.488,0.647,0.963,1.432,0.951,2.268l-0.001,0.023
			L39.949,9.76z"/>
	</g>
</g>
</svg>
