<?xml version="1.0" encoding="utf-8"?>
<!-- Generator: Adobe Illustrator 16.0.0, SVG Export Plug-In . SVG Version: 6.00 Build 0)  -->
<!DOCTYPE svg PUBLIC "-//W3C//DTD SVG 1.1//EN" "http://www.w3.org/Graphics/SVG/1.1/DTD/svg11.dtd">
<svg version="1.1" id="Layer_1" xmlns="http://www.w3.org/2000/svg" xmlns:xlink="http://www.w3.org/1999/xlink" x="0px" y="0px"
	 width="348.708px" height="131.833px" viewBox="0 0 348.708 131.833" enable-background="new 0 0 348.708 131.833"
	 xml:space="preserve">
<g>
	<g>
		<path fill="#231F20" stroke="#231F20" stroke-width="1.7721" stroke-miterlimit="10" d="M90.828,59.585
			c0,0,10.699-7.65,11.627,3.796c0.933,11.444-7.088,34.423-2.79,32.559c4.297-1.865-14.421,9.768-8.837-18.279
			C93.991,61.768,93.619,59.976,90.828,59.585z"/>
		<path fill="#231F20" stroke="#231F20" stroke-width="1.7721" stroke-miterlimit="10" d="M175.484,55.363
			c0,0,9.052-3.021,8.25,4.571c-0.812,7.591-5.998,17.004-4.104,19.486c1.901,2.479,1.901,2.479,1.901,2.479
			s-9.766,5.597-9.303-5.375C172.693,65.544,180.364,54.528,175.484,55.363z"/>
		<path fill="#231F20" stroke="#231F20" stroke-width="1.7721" stroke-miterlimit="10" d="M197.344,61.371
			c0,0,10.234-2.932,7.446,7.678c-2.795,10.608-7.866,18.574,3.274,19.478c0,0-13.977,6.842-14.906-5.2
			C192.23,71.287,199.206,69.13,197.344,61.371z"/>
		<path fill="#231F20" stroke="#231F20" stroke-width="1.7721" stroke-miterlimit="10" d="M267.579,61.371
			c0,0,8.84-1.786,6.319,7.678c-1.874,7.029-7.714,20.588,2.053,21.413l0,0c0,0-14.026,4.195-12.558-10.336
			C264.861,65.593,268.977,65.408,267.579,61.371z"/>
		<path fill="#231F20" stroke="#231F20" stroke-width="1.7721" stroke-miterlimit="10" d="M245.252,57.083
			c0,0,9.307-3.77,9.307,4.288c0,8.059-14.887,17.592-8.84,20.846c0,0-7.442,1.166-3.258-10.929
			C246.648,59.191,247.112,66.596,245.252,57.083z"/>
		<path fill="#231F20" stroke="#231F20" stroke-width="1.7721" stroke-miterlimit="10" d="M319.679,51.747
			c0,0-13.794,3.804-16.202,16.789c-2.408,12.983,8.872,15.666,12.592,14.791c3.722-0.875-10.164-2.872-1.975-19.945
			c5.585-11.634,10.399-10.681,12.735-11.38C329.167,51.302,319.679,51.747,319.679,51.747z"/>
		<path fill="#231F20" stroke="#231F20" stroke-width="1.7721" stroke-miterlimit="10" d="M151.993,54.77
			c-0.696-0.692-18.138,3.106-21.627,13.766c-3.489,10.661,6.276,12.379,8.604,12.334c2.324-0.049-3.975-6.782,2.79-16.558
			c2.936-4.244,9.945-9.523,16.229-8.109C164.264,57.618,151.993,54.77,151.993,54.77z"/>
	</g>
	<g>
		<path fill="#231F20" d="M7.567,56.867c0,0-17.211-23.256,3.72-48.568c0,0,24.188-21.666,30.235,7.17
			c0,0,2.793,21.715-9.767,44.116c-12.56,22.401-23.721,43.329-15.353,39.609c8.374-3.719,44.655-40.93,60.468-74.653
			c0,0,3.26-1.63,2.331,3.022c-0.932,4.65-33.261,105.589-56.752,103.728c0,0,25.119-27.59,35.354-71.706
			c0,0-40.933,50.772-50.236,41.006c-9.303-9.768,13.023-42.795,20-56.281C34.546,30.822,39.66,10.82,29.431,4.307
			C19.195-2.206-4.526,24.771,7.567,56.867z"/>
		<g>
			<path fill="#231F20" d="M8.51,56.486C5.197,51.94,3.349,46.185,2.4,40.712C1.451,35.236,1.98,29.67,3.429,24.339
				C4.908,18.894,8.063,11.84,12.43,8.13c4.215-3.58,9.643-6.896,15.286-7.116c8.18-0.318,12.414,9.308,12.928,16.191
				c0.772,10.341-1.167,20.898-4.511,30.647c-4.775,13.919-13.881,26.34-20.099,39.671c-0.921,1.977-6.91,13.22-0.92,12.558
				c4.61-0.509,9.369-6.021,12.476-8.905c16.742-15.532,31.469-34.033,43.225-53.577c1.318-2.191,2.585-4.421,3.782-6.681
				c0.689-1.3,1.363-2.604,2.025-3.918c0.275-0.546,0.715-3.462,1.649-1.423c0.521,1.135-0.455,3.568-0.807,4.741
				c-1.388,4.625-2.94,9.203-4.514,13.767c-5.273,15.296-11.142,30.417-17.895,45.124c-6.043,13.161-12.914,28.579-24.202,38.175
				c-1.707,1.45-3.646,2.678-5.83,3.239c-0.562,0.145-1.147,0.164-1.724,0.166c0.5-0.002-0.111,0.714,0.196,0.37
				c0.29-0.324,0.572-0.656,0.854-0.988c3.327-3.918,6.323-8.118,9.178-12.388c11.844-17.712,20.365-37.628,25.284-58.34
				c0.185-0.779-1.695-0.156-1.94,0.148c-7.158,8.866-14.814,17.4-22.896,25.43c-5.292,5.258-10.912,10.584-17.396,14.352
				c-2.084,1.211-5.128,2.808-7.458,1.36c-2.963-1.841-2.923-6.518-2.615-9.474c1.005-9.639,6.511-19.101,11.045-27.45
				c4.233-7.795,9.091-15.29,12.819-23.35c4.183-9.044,8.09-21.004,4.558-30.86c-1.94-5.413-7.242-8.103-12.566-6.035
				c-7.376,2.866-12.228,9.962-15.357,16.911C1.782,32.071,2.326,45.364,6.557,57.138c0.232,0.646,2.234,0.049,2.021-0.542
				C4.284,44.646,4.096,31.981,9.017,20.193c2.65-6.348,11.868-20.871,20.334-14.896c9.266,6.54,3.793,23.228,0.655,31.515
				c-3.457,9.131-9.017,17.41-13.726,25.919c-4.554,8.229-9.14,16.822-11.305,26.037c-0.921,3.921-1.647,11.982,3.624,13.37
				c4.056,1.067,8.457-1.675,11.673-3.792c5.916-3.894,11.152-8.904,16.137-13.901c7.86-7.878,15.336-16.205,22.328-24.866
				c-0.646,0.049-1.293,0.099-1.94,0.148c-6.027,25.375-17.548,51.992-35.281,71.571c-0.338,0.373,0.289,0.506,0.527,0.519
				c9.98,0.516,17.412-11.198,22.02-18.385c8.92-13.913,15.511-29.387,21.633-44.686c4.89-12.22,9.398-24.631,13.318-37.198
				c0.641-2.055,2.848-6.998-0.236-7.788c-0.72-0.185-2.55,0.158-2.914,0.923c-2.985,6.271-6.422,12.284-10.14,18.147
				C53.769,61.681,38.89,80.028,21.891,94.589c-0.684,0.585-6.241,5.653-7.201,4.09c-1.57-2.56,2.359-9.232,3.358-11.438
				c6.116-13.499,14.972-25.745,20.099-39.671c3.472-9.432,5.003-19.773,4.583-29.812c-0.243-5.787-2.68-13.458-8.167-16.338
				c-4.929-2.587-10.491-1.263-15.285,0.984c-2.838,1.331-6.9,3.367-8.924,5.902C-0.667,22.108-4.375,42.15,6.625,57.248
				C6.991,57.75,8.945,57.084,8.51,56.486z"/>
		</g>
	</g>
	<g>
		<g>
			<path fill="#231F20" d="M25.554,128.911c-6.092-4.037,4.285-14.285,7.277-16.959c15.887-14.195,37.789-21.08,51.685-37.676
				c2.434-2.906,4.009-6.26,5.913-9.499c0.854-1.451,1.97-2.758,3.213-3.888c1.197-1.088,0.612-1.109,1.054-0.457
				c0.668,0.984,0.759,2.531,0.908,3.669c0.932,7.102-0.134,14.604-0.561,21.712c-0.138,2.286-1.785,10.8,1.931,11.36
				c4.542,0.685,9.465-5.678,12.143-8.467c5.861-6.103,11.224-12.836,15.703-20.017c1.771-2.839,7.328-13.779,0.45-14.462
				c-4.917-0.488-8.765,4.135-3.639,7.271c3.815,2.333,9.012,1.917,13.219,1.394c5.406-0.672,10.144-4.484,15.646-4.308
				c12.905,0.414,5.418,9.104,0.229,12.998c-2.355,1.767-13.294,9.396-16.138,5.704c-2.874-3.731,5.452-10.959,7.633-12.639
				c10.216-7.872,24.267-8.508,36.527-6.937c-0.454-0.455-0.908-0.91-1.362-1.365c-0.806,6.104-1.49,12.237-1.876,18.382
				c-0.156,2.5-0.945,11.791,4.368,8.084c4.97-3.466,8.514-9.574,12.797-13.84c1.434-1.428,5.572-5.93,7.834-4.326
				c-0.486-0.345,0.136-1.508-0.461,0.494c-0.432,1.445-0.821,2.902-1.193,4.362c-1.455,5.717-4.006,14.753-0.201,20.064
				c2.945,4.111,9.152,0.777,12.348-1.016c12.771-7.163,24.032-17.629,34.861-27.383c0.837-0.754,1.651-1.71,2.644-2.271
				c-1.861,1.052-1.422-1.249-1.568,0.503c-0.049,0.58-0.204,1.157-0.335,1.722c-0.458,1.971-1.189,3.894-1.853,5.802
				c-0.899,2.584-5.992,12.472-2.356,14.579c4.646,2.694,12.294-5.825,15.094-8.364c2.851-2.586,5.597-5.284,8.415-7.903
				c0.462-0.429,0.932-0.847,1.406-1.261c1.793-1.565-1.258,0.963-1.244-0.247c-0.031,2.696-0.773,5.466-1.07,8.144
				c-0.75,6.75-0.029,20.795,10.205,18.694c7.33-1.506,13.768-7.49,19.188-12.229c2.243-1.961,4.423-4.002,6.565-6.072
				c1.345-1.299,1.117-1.776,2.617-2.215c3.356-0.982,6.656-2.146,9.919-3.402c5.371-2.068,12.133-4.758,15.482-9.739
				c3.173-4.718-1.077-7.417-5.601-6.451c-9.649,2.062-14.437,9.506-16.792,18.326c-1.374,5.146-1.946,12.568,4.648,13.949
				c4.225,0.884,9.061-1.517,12.674-3.36c8.742-4.46,16.573-10.838,24.108-17.042c2.12-1.746-1.106-3.235-2.703-1.921
				c-3.164,2.605-33.668,29.054-35.475,15.213c-0.479-3.671,0.883-7.761,2.163-11.14c0.538-1.422,1.165-2.814,1.894-4.149
				c1.059-1.935,2.732-3.362,4.498-4.626c0.792-0.567,7.593-4.205,7.618-1.46c0.034,3.766-6.674,6.512-9.34,7.798
				c-3.916,1.889-8.048,3.333-12.188,4.638c-2.507,0.79-3.594,1.083-5.567,3.016c-4.833,4.732-9.884,9.292-15.342,13.297
				c-2.708,1.986-9.45,7.369-12.402,3.138c-2.854-4.092-2.394-11.614-1.909-15.971c0.208-1.875,2.266-7.767,0.179-9.247
				c-2.011-1.426-4.3,0.653-5.72,1.928c-5.795,5.204-11.14,11.704-17.976,15.583c-1.289,0.732-0.531,0.924-0.346-0.604
				c0.185-1.515,0.716-3.001,1.18-4.447c1.159-3.609,2.55-7.14,3.646-10.771c1.088-3.601,0.79-9.237-4.411-5.655
				c-3.421,2.356-6.402,5.663-9.535,8.384c-6.274,5.447-12.689,10.752-19.401,15.655c-2.575,1.882-13.021,10.89-15.254,5.469
				c-2.498-6.065,0.671-15.318,2.444-21.266c0.109-0.366,0.223-0.731,0.341-1.095c0.203-0.628,0.077-0.992-0.387-1.442
				c-7.396-7.173-20.039,10.784-23.839,15.167c-0.698,0.806-1.411,1.598-2.153,2.365c-1.276,1.317,1.719,1.382,1.511-0.243
				c-0.388-3.028,0.112-6.327,0.36-9.347c0.398-4.857,0.957-9.707,1.596-14.539c0.104-0.795-0.68-1.277-1.362-1.365
				c-16.412-2.104-37.599,0.119-47.588,15.311c-1.851,2.814-4.003,7.705-0.504,10.183c3.975,2.815,10.854-0.585,14.482-2.406
				c5.264-2.642,11.214-6.55,14.311-11.713c3.684-6.142-2.16-9.009-7.671-10.328c-4.053-0.97-8.25,0.668-11.936,2.168
				c-3.201,1.304-6.137,2.043-9.607,2.293c-0.343,0.025-9.717-0.875-8.62-2.563c1.255-1.931,1.187,3.784,0.97,4.509
				c-0.398,1.332-1.078,2.588-1.728,3.809c-2.082,3.909-4.8,7.5-7.503,10.993c-4.633,5.989-9.83,12.623-16.151,16.927
				c-0.894,0.608,0.685,1.229,0.45-0.022c-0.191-1.022-0.125-2.116-0.112-3.15c0.04-3.466,0.334-6.934,0.552-10.392
				c0.273-4.329,2.776-31.171-8.532-21.345c-2.695,2.341-4.396,5.241-6.055,8.348c-2.485,4.654-5.957,8.418-9.935,11.857
				c-9.472,8.189-20.596,14.108-31.115,20.782c-7.686,4.876-15.908,10.54-21.171,18.143c-2.462,3.557-4.824,10.137-0.216,13.191
				C23.985,132.309,27.501,130.202,25.554,128.911L25.554,128.911z"/>
		</g>
	</g>
</g>
</svg>
